SplineFontDB: 3.0
FontName: Play-Bold
FullName: Play Bold
FamilyName: Play
Weight: Bold
Copyright: Copyright (c) 2011 by Jonas Hecksher, Playtype e-types AS. All rights reserved.
Version: 1.002
ItalicAngle: 0
UnderlinePosition: -50
UnderlineWidth: 50
Ascent: 800
Descent: 200
sfntRevision: 0x00010083
LayerCount: 2
Layer: 0 1 "Back"  1
Layer: 1 1 "Fore"  0
XUID: [1021 288 713564382 16558038]
FSType: 0
OS2Version: 2
OS2_WeightWidthSlopeOnly: 0
OS2_UseTypoMetrics: 1
CreationTime: 1302516099
ModificationTime: 1321910932
PfmFamily: 17
TTFWeight: 700
TTFWidth: 5
LineGap: 0
VLineGap: 0
Panose: 2 11 0 0 0 0 0 0 0 0
OS2TypoAscent: 132
OS2TypoAOffset: 1
OS2TypoDescent: -20
OS2TypoDOffset: 1
OS2TypoLinegap: 0
OS2WinAscent: 0
OS2WinAOffset: 1
OS2WinDescent: 0
OS2WinDOffset: 1
HheadAscent: 0
HheadAOffset: 1
HheadDescent: 0
HheadDOffset: 1
OS2SubXSize: 700
OS2SubYSize: 650
OS2SubXOff: 0
OS2SubYOff: 140
OS2SupXSize: 700
OS2SupYSize: 650
OS2SupXOff: 0
OS2SupYOff: 477
OS2StrikeYSize: 50
OS2StrikeYPos: 250
OS2FamilyClass: 2054
OS2Vendor: 'PLAY'
OS2CodePages: 2000009f.00000000
OS2UnicodeRanges: a00002af.4000205b.00000000.00000000
Lookup: 1 0 0 "'rtla' Right to Left Alternates lookup 0"  {"'rtla' Right to Left Alternates lookup 0 subtable"  } ['rtla' ('DFLT' <'dflt' > ) ]
Lookup: 1 0 0 "<6,0> Monospaced Numbers lookup 1"  {"<6,0> Monospaced Numbers lookup 1 subtable"  } [<6,0> ('DFLT' <'dflt' > ) 'tnum' ('DFLT' <'dflt' > ) ]
Lookup: 1 0 0 "<10,1> Superiors lookup 2"  {"<10,1> Superiors lookup 2 subtable" ("superior" ) } [<10,1> ('DFLT' <'dflt' > ) 'sups' ('DFLT' <'dflt' > ) ]
Lookup: 1 0 0 "<10,2> Inferiors lookup 3"  {"<10,2> Inferiors lookup 3 subtable" ("inferior" ) } [<10,2> ('DFLT' <'dflt' > ) 'subs' ('DFLT' <'dflt' > ) ]
Lookup: 1 0 0 "<11,2> Diagonal Fractions lookup 4"  {"<11,2> Diagonal Fractions lookup 4 subtable"  } [<11,2> ('DFLT' <'dflt' > ) 'frac' ('DFLT' <'dflt' > ) ]

StartChar: exclam
Encoding: 33 33 4
Width: 295
Flags: W
LayerCount: 2
Fore
SplineSet
235 649 m 1,0,-1
 192 188 l 1,1,-1
 103 188 l 1,2,-1
 60 649 l 1,3,-1
 235 649 l 1,0,-1
226 0 m 1,4,-1
 70 0 l 1,5,-1
 70 138 l 1,6,-1
 226 138 l 1,7,-1
 226 0 l 1,4,-1
EndSplineSet
Substitution2: "<3,3> Small Caps in Latin lookup 11 subtable" exclam.smcp
EndChar

StartChar: quotedbl
Encoding: 34 34 5
Width: 443
Flags: W
LayerCount: 2
Fore
SplineSet
376 399 m 1,0,-1
 257 399 l 1,1,-1
 257 649 l 1,2,-1
 376 649 l 1,3,-1
 376 399 l 1,0,-1
185 399 m 1,4,-1
 67 399 l 1,5,-1
 67 649 l 1,6,-1
 185 649 l 1,7,-1
 185 399 l 1,4,-1
EndSplineSet
EndChar

StartChar: numbersign
Encoding: 35 35 6
Width: 580
Flags: W
LayerCount: 2
Fore
SplineSet
520 193 m 1,0,-1
 382 193 l 1,1,-1
 343 0 l 1,2,-1
 257 0 l 1,3,-1
 296 193 l 1,4,-1
 232 193 l 1,5,-1
 193 0 l 1,6,-1
 107 0 l 1,7,-1
 146 193 l 1,8,-1
 60 193 l 1,9,-1
 60 272 l 1,10,-1
 162 272 l 1,11,-1
 184 376 l 1,12,-1
 60 376 l 1,13,-1
 60 456 l 1,14,-1
 200 456 l 1,15,-1
 237 639 l 1,16,-1
 323 639 l 1,17,-1
 286 456 l 1,18,-1
 350 456 l 1,19,-1
 387 639 l 1,20,-1
 473 639 l 1,21,-1
 436 456 l 1,22,-1
 520 456 l 1,23,-1
 520 376 l 1,24,-1
 419 376 l 1,25,-1
 398 272 l 1,26,-1
 520 272 l 1,27,-1
 520 193 l 1,0,-1
334 376 m 1,28,-1
 269 376 l 1,29,-1
 248 272 l 1,30,-1
 312 272 l 1,31,-1
 334 376 l 1,28,-1
EndSplineSet
EndChar

StartChar: dollar
Encoding: 36 36 7
Width: 606
Flags: W
LayerCount: 2
Fore
SplineSet
573 215 m 2,0,-1
 573 185 l 2,1,2
 573 92 573 92 515 48 c 128,-1,3
 457 4 457 4 354 -6 c 1,4,-1
 354 -140 l 1,5,-1
 260 -140 l 1,6,-1
 260 -10 l 1,7,8
 180 -9 180 -9 46 8 c 1,9,-1
 46 123 l 1,10,11
 63 120 63 120 99.5 114 c 128,-1,12
 136 108 136 108 154.5 105.5 c 128,-1,13
 173 103 173 103 202.5 100 c 128,-1,14
 232 97 232 97 260 97 c 1,15,-1
 260 263 l 1,16,-1
 241 263 l 2,17,18
 33 263 33 263 33 433 c 2,19,-1
 33 467 l 2,20,21
 33 543 33 543 86.5 583 c 128,-1,22
 140 623 140 623 260 630 c 1,23,-1
 260 702 l 1,24,-1
 354 702 l 1,25,-1
 354 632 l 1,26,27
 452 628 452 628 541 619 c 1,28,-1
 541 512 l 1,29,30
 417 527 417 527 354 529 c 1,31,-1
 354 381 l 1,32,-1
 367 381 l 2,33,34
 480 381 480 381 526.5 339 c 128,-1,35
 573 297 573 297 573 215 c 2,0,-1
260 381 m 1,36,-1
 260 528 l 1,37,38
 216 525 216 525 199.5 515 c 128,-1,39
 183 505 183 505 183 481 c 2,40,-1
 183 425 l 2,41,42
 183 383 183 383 260 381 c 1,36,-1
422 153 m 2,43,-1
 422 209 l 2,44,45
 422 232 422 232 408.5 246 c 128,-1,46
 395 260 395 260 354 263 c 1,47,-1
 354 102 l 1,48,49
 422 112 422 112 422 153 c 2,43,-1
EndSplineSet
Substitution2: "<3,3> Small Caps in Latin lookup 11 subtable" dollar.smcp
EndChar

StartChar: percent
Encoding: 37 37 8
Width: 855
Flags: W
LayerCount: 2
Fore
SplineSet
818 224 m 2,0,-1
 818 105 l 2,1,2
 818 34 818 34 777 12 c 128,-1,3
 736 -10 736 -10 652 -10 c 0,4,5
 567 -10 567 -10 526 12 c 128,-1,6
 485 34 485 34 485 105 c 2,7,-1
 485 224 l 2,8,9
 485 258 485 258 495.5 282.5 c 128,-1,10
 506 307 506 307 521 320 c 128,-1,11
 536 333 536 333 560 340.5 c 128,-1,12
 584 348 584 348 604 350 c 128,-1,13
 624 352 624 352 652 352 c 128,-1,14
 680 352 680 352 700 350 c 128,-1,15
 720 348 720 348 744 340.5 c 128,-1,16
 768 333 768 333 782.5 320 c 128,-1,17
 797 307 797 307 807.5 282.5 c 128,-1,18
 818 258 818 258 818 224 c 2,0,-1
636 659 m 1,19,-1
 312 -10 l 1,20,-1
 225 -10 l 1,21,-1
 549 659 l 1,22,-1
 636 659 l 1,19,-1
370 513 m 2,23,-1
 370 394 l 2,24,25
 370 323 370 323 329 301 c 128,-1,26
 288 279 288 279 204 279 c 0,27,28
 119 279 119 279 78 301 c 128,-1,29
 37 323 37 323 37 394 c 2,30,-1
 37 513 l 2,31,32
 37 547 37 547 47.5 571.5 c 128,-1,33
 58 596 58 596 73 609 c 128,-1,34
 88 622 88 622 112 629.5 c 128,-1,35
 136 637 136 637 156 639 c 128,-1,36
 176 641 176 641 204 641 c 128,-1,37
 232 641 232 641 252 639 c 128,-1,38
 272 637 272 637 296 629.5 c 128,-1,39
 320 622 320 622 334.5 609 c 128,-1,40
 349 596 349 596 359.5 571.5 c 128,-1,41
 370 547 370 547 370 513 c 2,23,-1
707 95 m 2,42,-1
 707 242 l 2,43,44
 707 276 707 276 652 276 c 0,45,46
 596 276 596 276 596 242 c 2,47,-1
 596 95 l 2,48,49
 596 66 596 66 652 66 c 0,50,51
 707 66 707 66 707 95 c 2,42,-1
259 384 m 2,52,-1
 259 531 l 2,53,54
 259 565 259 565 204 565 c 0,55,56
 148 565 148 565 148 531 c 2,57,-1
 148 384 l 2,58,59
 148 366 148 366 162 360.5 c 128,-1,60
 176 355 176 355 204 355 c 0,61,62
 259 355 259 355 259 384 c 2,52,-1
EndSplineSet
Substitution2: "<3,3> Small Caps in Latin lookup 11 subtable" percent.smcp
EndChar

StartChar: ampersand
Encoding: 38 38 9
Width: 656
Flags: W
LayerCount: 2
Fore
SplineSet
656 0 m 1,0,-1
 564 0 l 2,1,2
 515 0 515 0 496 21 c 1,3,-1
 489 28 l 1,4,5
 416 -10 416 -10 296 -10 c 0,6,7
 185 -10 185 -10 117.5 21.5 c 128,-1,8
 50 53 50 53 50 122 c 2,9,-1
 50 243 l 2,10,11
 50 322 50 322 180 363 c 1,12,-1
 150 395 l 2,13,14
 119 429 119 429 119 467 c 2,15,-1
 119 546 l 2,16,17
 119 602 119 602 169.5 630.5 c 128,-1,18
 220 659 220 659 311 659 c 0,19,20
 377 659 377 659 477 642 c 1,21,-1
 477 543 l 1,22,23
 385 564 385 564 317 564 c 0,24,25
 260 564 260 564 260 533 c 2,26,-1
 260 494 l 2,27,28
 260 471 260 471 269 461 c 2,29,-1
 479 230 l 1,30,-1
 479 379 l 1,31,-1
 611 379 l 1,32,-1
 611 218 l 2,33,34
 611 162 611 162 575 124 c 1,35,-1
 594 103 l 2,36,37
 602 95 602 95 612 95 c 2,38,-1
 656 95 l 1,39,-1
 656 0 l 1,0,-1
423 99 m 1,40,-1
 233 305 l 1,41,42
 200 293 200 293 200 267 c 2,43,-1
 200 145 l 2,44,45
 200 116 200 116 224 101 c 128,-1,46
 248 86 248 86 314 86 c 0,47,48
 393 86 393 86 423 99 c 1,40,-1
EndSplineSet
Substitution2: "<3,3> Small Caps in Latin lookup 11 subtable" ampersand.smcp
EndChar

StartChar: quotesingle
Encoding: 39 39 10
Width: 256
Flags: W
LayerCount: 2
Fore
SplineSet
187 399 m 1,0,-1
 69 399 l 1,1,-1
 69 649 l 1,2,-1
 187 649 l 1,3,-1
 187 399 l 1,0,-1
EndSplineSet
EndChar

StartChar: parenleft
Encoding: 40 40 11
Width: 348
Flags: W
LayerCount: 2
Fore
SplineSet
338 -127 m 1,0,-1
 201 -127 l 1,1,2
 70 56 70 56 70 276 c 0,3,4
 70 390 70 390 102 486.5 c 128,-1,5
 134 583 134 583 201 679 c 1,6,-1
 337 679 l 1,7,8
 213 474 213 474 213 276 c 0,9,10
 213 71 213 71 338 -127 c 1,0,-1
EndSplineSet
Substitution2: "<3,3> Small Caps in Latin lookup 11 subtable" parenleft.smcp
Substitution2: "'rtla' Right to Left Alternates lookup 0 subtable" parenright
EndChar

StartChar: parenright
Encoding: 41 41 12
Width: 348
Flags: W
LayerCount: 2
Fore
SplineSet
268 276 m 0,0,1
 268 56 268 56 137 -127 c 1,2,-1
 0 -127 l 1,3,4
 125 71 125 71 125 276 c 0,5,6
 125 474 125 474 1 679 c 1,7,-1
 137 679 l 1,8,9
 204 583 204 583 236 486.5 c 128,-1,10
 268 390 268 390 268 276 c 0,0,1
EndSplineSet
Substitution2: "<3,3> Small Caps in Latin lookup 11 subtable" parenright.smcp
Substitution2: "'rtla' Right to Left Alternates lookup 0 subtable" parenleft
EndChar

StartChar: asterisk
Encoding: 42 42 13
Width: 446
Flags: W
LayerCount: 2
Fore
SplineSet
401 481 m 1,0,-1
 292 457 l 1,1,-1
 367 371 l 1,2,-1
 278 312 l 1,3,-1
 223 407 l 1,4,-1
 167 312 l 1,5,-1
 79 372 l 1,6,-1
 156 457 l 1,7,-1
 44 481 l 1,8,-1
 78 581 l 1,9,-1
 183 537 l 1,10,-1
 172 649 l 1,11,-1
 278 649 l 1,12,-1
 268 538 l 1,13,-1
 369 581 l 1,14,-1
 401 481 l 1,0,-1
EndSplineSet
Substitution2: "<3,3> Small Caps in Latin lookup 11 subtable" asterisk.smcp
EndChar

StartChar: plus
Encoding: 43 43 14
Width: 580
Flags: W
LayerCount: 2
Fore
SplineSet
340 544 m 1,0,-1
 340 365 l 1,1,-1
 510 365 l 1,2,-1
 510 264 l 1,3,-1
 340 264 l 1,4,-1
 340 84 l 1,5,-1
 239 84 l 1,6,-1
 239 264 l 1,7,-1
 70 264 l 1,8,-1
 70 365 l 1,9,-1
 239 365 l 1,10,-1
 239 544 l 1,11,-1
 340 544 l 1,0,-1
EndSplineSet
EndChar

StartChar: comma
Encoding: 44 44 15
Width: 256
Flags: W
LayerCount: 2
Fore
SplineSet
217 138 m 1,0,-1
 123 -112 l 1,1,-1
 19 -112 l 1,2,-1
 65 138 l 1,3,-1
 217 138 l 1,0,-1
EndSplineSet
EndChar

StartChar: hyphen
Encoding: 45 45 16
Width: 388
Flags: W
LayerCount: 2
Fore
SplineSet
348 230 m 1,0,-1
 40 230 l 1,1,-1
 40 342 l 1,2,-1
 348 342 l 1,3,-1
 348 230 l 1,0,-1
EndSplineSet
EndChar

StartChar: period
Encoding: 46 46 17
Width: 256
Flags: W
LayerCount: 2
Fore
SplineSet
206 0 m 1,0,-1
 50 0 l 1,1,-1
 50 138 l 1,2,-1
 206 138 l 1,3,-1
 206 0 l 1,0,-1
EndSplineSet
EndChar

StartChar: slash
Encoding: 47 47 18
Width: 431
Flags: W
LayerCount: 2
Fore
SplineSet
421 659 m 1,0,-1
 97 -10 l 1,1,-1
 10 -10 l 1,2,-1
 334 659 l 1,3,-1
 421 659 l 1,0,-1
EndSplineSet
Substitution2: "<3,3> Small Caps in Latin lookup 11 subtable" slash.smcp
Substitution2: "<11,2> Diagonal Fractions lookup 4 subtable" fraction
EndChar

StartChar: zero
Encoding: 48 48 19
Width: 580
Flags: W
LayerCount: 2
Fore
SplineSet
51 169 m 2,0,-1
 51 480 l 2,1,2
 51 528 51 528 65.5 562.5 c 128,-1,3
 80 597 80 597 100.5 615.5 c 128,-1,4
 121 634 121 634 155.5 644 c 128,-1,5
 190 654 190 654 219 656.5 c 128,-1,6
 248 659 248 659 289 659 c 0,7,8
 329 659 329 659 357.5 656.5 c 128,-1,9
 386 654 386 654 421 643.5 c 128,-1,10
 456 633 456 633 477.5 615 c 128,-1,11
 499 597 499 597 514 562.5 c 128,-1,12
 529 528 529 528 529 480 c 2,13,-1
 529 169 l 2,14,15
 529 121 529 121 514 86.5 c 128,-1,16
 499 52 499 52 477.5 34 c 128,-1,17
 456 16 456 16 421 5.5 c 128,-1,18
 386 -5 386 -5 357.5 -7.5 c 128,-1,19
 329 -10 329 -10 289 -10 c 0,20,21
 248 -10 248 -10 219 -7.5 c 128,-1,22
 190 -5 190 -5 155.5 5 c 128,-1,23
 121 15 121 15 100.5 33.5 c 128,-1,24
 80 52 80 52 65.5 86.5 c 128,-1,25
 51 121 51 121 51 169 c 2,0,-1
199 490 m 2,26,-1
 199 159 l 2,27,28
 199 112 199 112 214 98 c 128,-1,29
 229 84 229 84 291 84 c 0,30,31
 352 84 352 84 366.5 98 c 128,-1,32
 381 112 381 112 381 159 c 2,33,-1
 381 490 l 2,34,35
 381 537 381 537 366.5 551 c 128,-1,36
 352 565 352 565 291 565 c 0,37,38
 229 565 229 565 214 551 c 128,-1,39
 199 537 199 537 199 490 c 2,26,-1
EndSplineSet
Substitution2: "<3,3> Small Caps in Latin lookup 11 subtable" zero.tscf
Substitution2: "<21,0> Lower Case Numbers lookup 9 subtable" zero.tosf
Substitution2: "<11,2> Diagonal Fractions lookup 6 subtable" zerosuperior
Substitution2: "<10,2> Inferiors lookup 3 subtable" zero.sinf
Substitution2: "<10,1> Superiors lookup 2 subtable" zero.sups
EndChar

StartChar: one
Encoding: 49 49 20
Width: 580
Flags: W
LayerCount: 2
Fore
SplineSet
408 0 m 1,0,-1
 262 0 l 1,1,-1
 262 496 l 1,2,-1
 85 398 l 1,3,-1
 85 521 l 1,4,-1
 290 649 l 1,5,-1
 408 649 l 1,6,-1
 408 0 l 1,0,-1
EndSplineSet
Substitution2: "<3,3> Small Caps in Latin lookup 11 subtable" one.tscf
Substitution2: "<21,0> Lower Case Numbers lookup 9 subtable" one.tosf
Substitution2: "<11,2> Diagonal Fractions lookup 6 subtable" onesuperior
Substitution2: "<10,2> Inferiors lookup 3 subtable" one.sinf
Substitution2: "<10,1> Superiors lookup 2 subtable" one.sups
EndChar

StartChar: two
Encoding: 50 50 21
Width: 580
Flags: W
LayerCount: 2
Fore
SplineSet
514 0 m 1,0,-1
 58 0 l 1,1,-1
 58 148 l 2,2,3
 58 204 58 204 89.5 243.5 c 128,-1,4
 121 283 121 283 165.5 302.5 c 128,-1,5
 210 322 210 322 254.5 337 c 128,-1,6
 299 352 299 352 330.5 371 c 128,-1,7
 362 390 362 390 362 418 c 2,8,-1
 362 501 l 2,9,10
 362 531 362 531 337 542 c 128,-1,11
 312 553 312 553 253 553 c 0,12,13
 186 553 186 553 71 528 c 1,14,-1
 71 638 l 1,15,16
 172 659 172 659 280 659 c 0,17,18
 395 659 395 659 454 624 c 128,-1,19
 513 589 513 589 513 503 c 2,20,-1
 513 413 l 2,21,22
 513 360 513 360 481 323 c 128,-1,23
 449 286 449 286 403.5 267.5 c 128,-1,24
 358 249 358 249 312 233.5 c 128,-1,25
 266 218 266 218 234 196 c 128,-1,26
 202 174 202 174 202 142 c 2,27,-1
 202 109 l 1,28,-1
 514 109 l 1,29,-1
 514 0 l 1,0,-1
EndSplineSet
Substitution2: "<3,3> Small Caps in Latin lookup 11 subtable" two.tscf
Substitution2: "<21,0> Lower Case Numbers lookup 9 subtable" two.tosf
Substitution2: "<11,2> Diagonal Fractions lookup 6 subtable" twosuperior
Substitution2: "<10,2> Inferiors lookup 3 subtable" two.sinf
Substitution2: "<10,1> Superiors lookup 2 subtable" two.sups
EndChar

StartChar: three
Encoding: 51 51 22
Width: 580
Flags: W
LayerCount: 2
Fore
SplineSet
502 251 m 2,0,-1
 502 145 l 2,1,2
 502 61 502 61 444 25.5 c 128,-1,3
 386 -10 386 -10 265 -10 c 0,4,5
 180 -10 180 -10 47 5 c 1,6,-1
 47 121 l 1,7,8
 57 119 57 119 79 114.5 c 128,-1,9
 101 110 101 110 108.5 108.5 c 128,-1,10
 116 107 116 107 133.5 104 c 128,-1,11
 151 101 151 101 160.5 100 c 128,-1,12
 170 99 170 99 185 97.5 c 128,-1,13
 200 96 200 96 214.5 95.5 c 128,-1,14
 229 95 229 95 246 95 c 0,15,16
 304 95 304 95 326.5 109 c 128,-1,17
 349 123 349 123 349 162 c 2,18,-1
 349 237 l 2,19,20
 349 284 349 284 248 284 c 2,21,-1
 130 284 l 1,22,-1
 130 384 l 1,23,-1
 248 384 l 2,24,25
 326 384 326 384 326 441 c 2,26,-1
 326 504 l 2,27,28
 326 535 326 535 307.5 546.5 c 128,-1,29
 289 558 289 558 229 558 c 0,30,31
 171 558 171 558 53 546 c 1,32,-1
 53 650 l 1,33,34
 190 659 190 659 245 659 c 0,35,36
 363 659 363 659 419.5 632 c 128,-1,37
 476 605 476 605 476 532 c 2,38,-1
 476 425 l 2,39,40
 476 394 476 394 457.5 374.5 c 128,-1,41
 439 355 439 355 414 348 c 1,42,43
 502 316 502 316 502 251 c 2,0,-1
EndSplineSet
Substitution2: "<3,3> Small Caps in Latin lookup 11 subtable" three.tscf
Substitution2: "<21,0> Lower Case Numbers lookup 9 subtable" three.tosf
Substitution2: "<11,2> Diagonal Fractions lookup 6 subtable" threesuperior
Substitution2: "<10,2> Inferiors lookup 3 subtable" three.sinf
Substitution2: "<10,1> Superiors lookup 2 subtable" three.sups
EndChar

StartChar: four
Encoding: 52 52 23
Width: 580
Flags: W
LayerCount: 2
Fore
SplineSet
528 131 m 1,0,-1
 458 131 l 1,1,-1
 458 0 l 1,2,-1
 326 0 l 1,3,-1
 326 131 l 1,4,-1
 26 131 l 1,5,-1
 26 246 l 1,6,-1
 293 649 l 1,7,-1
 458 649 l 1,8,-1
 458 236 l 1,9,-1
 528 236 l 1,10,-1
 528 131 l 1,0,-1
326 236 m 1,11,-1
 326 511 l 1,12,-1
 151 236 l 1,13,-1
 326 236 l 1,11,-1
EndSplineSet
Substitution2: "<3,3> Small Caps in Latin lookup 11 subtable" four.tscf
Substitution2: "<21,0> Lower Case Numbers lookup 9 subtable" four.tosf
Substitution2: "<11,2> Diagonal Fractions lookup 6 subtable" foursuperior
Substitution2: "<10,2> Inferiors lookup 3 subtable" four.sinf
Substitution2: "<10,1> Superiors lookup 2 subtable" four.sups
EndChar

StartChar: five
Encoding: 53 53 24
Width: 580
Flags: W
LayerCount: 2
Fore
SplineSet
503 280 m 2,0,-1
 503 144 l 2,1,2
 503 103 503 103 487.5 73 c 128,-1,3
 472 43 472 43 450 27.5 c 128,-1,4
 428 12 428 12 393.5 3 c 128,-1,5
 359 -6 359 -6 332 -8 c 128,-1,6
 305 -10 305 -10 268 -10 c 0,7,8
 193 -10 193 -10 61 1 c 1,9,-1
 61 122 l 1,10,11
 182 99 182 99 248 99 c 0,12,13
 302 99 302 99 327.5 111 c 128,-1,14
 353 123 353 123 353 151 c 2,15,-1
 353 248 l 2,16,17
 353 275 353 275 335 286.5 c 128,-1,18
 317 298 317 298 276 298 c 2,19,-1
 76 298 l 1,20,-1
 76 649 l 1,21,-1
 486 649 l 1,22,-1
 486 537 l 1,23,-1
 222 537 l 1,24,-1
 222 405 l 1,25,-1
 324 405 l 2,26,27
 352 405 352 405 379.5 400 c 128,-1,28
 407 395 407 395 436.5 382.5 c 128,-1,29
 466 370 466 370 484.5 343.5 c 128,-1,30
 503 317 503 317 503 280 c 2,0,-1
EndSplineSet
Substitution2: "<3,3> Small Caps in Latin lookup 11 subtable" five.tscf
Substitution2: "<21,0> Lower Case Numbers lookup 9 subtable" five.tosf
Substitution2: "<11,2> Diagonal Fractions lookup 6 subtable" fivesuperior
Substitution2: "<10,2> Inferiors lookup 3 subtable" five.sinf
Substitution2: "<10,1> Superiors lookup 2 subtable" five.sups
EndChar

StartChar: six
Encoding: 54 54 25
Width: 580
Flags: W
LayerCount: 2
Fore
SplineSet
525 257 m 2,0,-1
 525 169 l 2,1,2
 525 121 525 121 510.5 87 c 128,-1,3
 496 53 496 53 475 34.5 c 128,-1,4
 454 16 454 16 420.5 5.5 c 128,-1,5
 387 -5 387 -5 358 -7.5 c 128,-1,6
 329 -10 329 -10 289 -10 c 0,7,8
 248 -10 248 -10 219 -7.5 c 128,-1,9
 190 -5 190 -5 156.5 5.5 c 128,-1,10
 123 16 123 16 103 34.5 c 128,-1,11
 83 53 83 53 69 87 c 128,-1,12
 55 121 55 121 55 169 c 2,13,-1
 55 471 l 2,14,15
 55 522 55 522 72.5 558.5 c 128,-1,16
 90 595 90 595 114 614 c 128,-1,17
 138 633 138 633 176.5 643.5 c 128,-1,18
 215 654 215 654 244.5 656.5 c 128,-1,19
 274 659 274 659 314 659 c 0,20,21
 350 659 350 659 494 649 c 1,22,-1
 494 542 l 1,23,24
 354 558 354 558 301 558 c 0,25,26
 233 558 233 558 216.5 546 c 128,-1,27
 200 534 200 534 200 482 c 2,28,-1
 200 405 l 1,29,-1
 307 405 l 2,30,31
 355 405 355 405 381 403.5 c 128,-1,32
 407 402 407 402 439 394 c 128,-1,33
 471 386 471 386 487 371 c 128,-1,34
 503 356 503 356 514 327.5 c 128,-1,35
 525 299 525 299 525 257 c 2,0,-1
380 162 m 2,36,-1
 380 256 l 2,37,38
 380 290 380 290 365 299.5 c 128,-1,39
 350 309 350 309 290 309 c 2,40,-1
 200 309 l 1,41,-1
 200 161 l 2,42,43
 200 113 200 113 214.5 100 c 128,-1,44
 229 87 229 87 291 87 c 128,-1,45
 353 87 353 87 366.5 99.5 c 128,-1,46
 380 112 380 112 380 162 c 2,36,-1
EndSplineSet
Substitution2: "<3,3> Small Caps in Latin lookup 11 subtable" six.tscf
Substitution2: "<21,0> Lower Case Numbers lookup 9 subtable" six.tosf
Substitution2: "<11,2> Diagonal Fractions lookup 6 subtable" sixsuperior
Substitution2: "<10,2> Inferiors lookup 3 subtable" six.sinf
Substitution2: "<10,1> Superiors lookup 2 subtable" six.sups
EndChar

StartChar: seven
Encoding: 55 55 26
Width: 580
Flags: W
LayerCount: 2
Fore
SplineSet
516 549 m 1,0,-1
 267 0 l 1,1,-1
 105 0 l 1,2,-1
 355 535 l 1,3,-1
 40 535 l 1,4,-1
 40 649 l 1,5,-1
 516 649 l 1,6,-1
 516 549 l 1,0,-1
EndSplineSet
Substitution2: "<3,3> Small Caps in Latin lookup 11 subtable" seven.tscf
Substitution2: "<21,0> Lower Case Numbers lookup 9 subtable" seven.tosf
Substitution2: "<11,2> Diagonal Fractions lookup 6 subtable" sevensuperior
Substitution2: "<10,2> Inferiors lookup 3 subtable" seven.sinf
Substitution2: "<10,1> Superiors lookup 2 subtable" seven.sups
EndChar

StartChar: eight
Encoding: 56 56 27
Width: 580
Flags: W
LayerCount: 2
Fore
SplineSet
290 -10 m 128,-1,1
 165 -10 165 -10 103.5 21 c 128,-1,2
 42 52 42 52 42 133 c 2,3,-1
 42 245 l 2,4,5
 42 278 42 278 74.5 305.5 c 128,-1,6
 107 333 107 333 150 343 c 1,7,-1
 150 347 l 1,8,9
 117 351 117 351 90.5 374.5 c 128,-1,10
 64 398 64 398 64 430 c 2,11,-1
 64 523 l 2,12,13
 64 591 64 591 113.5 625 c 128,-1,14
 163 659 163 659 290 659 c 128,-1,15
 417 659 417 659 466.5 625 c 128,-1,16
 516 591 516 591 516 523 c 2,17,-1
 516 430 l 2,18,19
 516 398 516 398 489.5 374.5 c 128,-1,20
 463 351 463 351 430 347 c 1,21,-1
 430 343 l 1,22,23
 473 333 473 333 505.5 305.5 c 128,-1,24
 538 278 538 278 538 245 c 2,25,-1
 538 133 l 2,26,27
 538 52 538 52 476.5 21 c 128,-1,0
 415 -10 415 -10 290 -10 c 128,-1,1
291 289 m 128,-1,29
 232 289 232 289 213.5 276 c 128,-1,30
 195 263 195 263 195 233 c 2,31,-1
 195 145 l 2,32,33
 195 108 195 108 211 96.5 c 128,-1,34
 227 85 227 85 290 85 c 128,-1,35
 353 85 353 85 369 96.5 c 128,-1,36
 385 108 385 108 385 145 c 2,37,-1
 385 233 l 2,38,39
 385 263 385 263 367.5 276 c 128,-1,28
 350 289 350 289 291 289 c 128,-1,29
290 382 m 128,-1,41
 336 382 336 382 352.5 395 c 128,-1,42
 369 408 369 408 369 435 c 2,43,-1
 369 510 l 2,44,45
 369 538 369 538 352.5 551 c 128,-1,46
 336 564 336 564 290 564 c 128,-1,47
 244 564 244 564 227.5 551 c 128,-1,48
 211 538 211 538 211 510 c 2,49,-1
 211 435 l 2,50,51
 211 408 211 408 227.5 395 c 128,-1,40
 244 382 244 382 290 382 c 128,-1,41
EndSplineSet
Substitution2: "<3,3> Small Caps in Latin lookup 11 subtable" eight.tscf
Substitution2: "<21,0> Lower Case Numbers lookup 9 subtable" eight.tosf
Substitution2: "<11,2> Diagonal Fractions lookup 6 subtable" eightsuperior
Substitution2: "<10,2> Inferiors lookup 3 subtable" eight.sinf
Substitution2: "<10,1> Superiors lookup 2 subtable" eight.sups
EndChar

StartChar: nine
Encoding: 57 57 28
Width: 580
Flags: W
LayerCount: 2
Fore
SplineSet
526 480 m 2,0,-1
 526 178 l 2,1,2
 526 75 526 75 464.5 32.5 c 128,-1,3
 403 -10 403 -10 271 -10 c 0,4,5
 190 -10 190 -10 86 0 c 1,6,-1
 86 104 l 1,7,8
 209 90 209 90 269 90 c 0,9,10
 344 90 344 90 362.5 107.5 c 128,-1,11
 381 125 381 125 381 183 c 2,12,-1
 381 244 l 1,13,-1
 273 244 l 2,14,15
 225 244 225 244 199 245.5 c 128,-1,16
 173 247 173 247 141 255 c 128,-1,17
 109 263 109 263 93 278 c 128,-1,18
 77 293 77 293 66 321.5 c 128,-1,19
 55 350 55 350 55 392 c 2,20,-1
 55 480 l 2,21,22
 55 528 55 528 69.5 562 c 128,-1,23
 84 596 84 596 105 614.5 c 128,-1,24
 126 633 126 633 159.5 643.5 c 128,-1,25
 193 654 193 654 222 656.5 c 128,-1,26
 251 659 251 659 291 659 c 0,27,28
 332 659 332 659 361 656.5 c 128,-1,29
 390 654 390 654 423.5 643.5 c 128,-1,30
 457 633 457 633 477.5 614.5 c 128,-1,31
 498 596 498 596 512 562 c 128,-1,32
 526 528 526 528 526 480 c 2,0,-1
381 341 m 1,33,-1
 381 493 l 2,34,35
 381 540 381 540 367 550.5 c 128,-1,36
 353 561 353 561 289 561 c 0,37,38
 230 561 230 561 215 550 c 128,-1,39
 200 539 200 539 200 493 c 2,40,-1
 200 394 l 2,41,42
 200 360 200 360 215 350.5 c 128,-1,43
 230 341 230 341 290 341 c 2,44,-1
 381 341 l 1,33,-1
EndSplineSet
Substitution2: "<3,3> Small Caps in Latin lookup 11 subtable" nine.tscf
Substitution2: "<21,0> Lower Case Numbers lookup 9 subtable" nine.tosf
Substitution2: "<11,2> Diagonal Fractions lookup 6 subtable" ninesuperior
Substitution2: "<10,2> Inferiors lookup 3 subtable" nine.sinf
Substitution2: "<10,1> Superiors lookup 2 subtable" nine.sups
EndChar

StartChar: colon
Encoding: 58 58 29
Width: 256
Flags: W
LayerCount: 2
Fore
SplineSet
206 346 m 1,0,-1
 50 346 l 1,1,-1
 50 484 l 1,2,-1
 206 484 l 1,3,-1
 206 346 l 1,0,-1
206 0 m 1,4,-1
 50 0 l 1,5,-1
 50 138 l 1,6,-1
 206 138 l 1,7,-1
 206 0 l 1,4,-1
EndSplineSet
EndChar

StartChar: semicolon
Encoding: 59 59 30
Width: 256
Flags: W
LayerCount: 2
Fore
SplineSet
206 346 m 1,0,-1
 50 346 l 1,1,-1
 50 484 l 1,2,-1
 206 484 l 1,3,-1
 206 346 l 1,0,-1
217 138 m 1,4,-1
 123 -112 l 1,5,-1
 19 -112 l 1,6,-1
 65 138 l 1,7,-1
 217 138 l 1,4,-1
EndSplineSet
EndChar

StartChar: less
Encoding: 60 60 31
Width: 580
Flags: W
LayerCount: 2
Fore
SplineSet
510 106 m 1,0,-1
 70 259 l 1,1,-1
 70 371 l 1,2,-1
 510 524 l 1,3,-1
 510 413 l 1,4,-1
 184 315 l 1,5,-1
 510 217 l 1,6,-1
 510 106 l 1,0,-1
EndSplineSet
Substitution2: "'rtla' Right to Left Alternates lookup 0 subtable" greater
EndChar

StartChar: equal
Encoding: 61 61 32
Width: 580
Flags: W
LayerCount: 2
Fore
SplineSet
510 364 m 1,0,-1
 70 364 l 1,1,-1
 70 465 l 1,2,-1
 510 465 l 1,3,-1
 510 364 l 1,0,-1
510 164 m 1,4,-1
 70 164 l 1,5,-1
 70 265 l 1,6,-1
 510 265 l 1,7,-1
 510 164 l 1,4,-1
EndSplineSet
EndChar

StartChar: greater
Encoding: 62 62 33
Width: 580
Flags: W
LayerCount: 2
Fore
SplineSet
510 259 m 1,0,-1
 70 106 l 1,1,-1
 70 217 l 1,2,-1
 396 315 l 1,3,-1
 70 413 l 1,4,-1
 70 524 l 1,5,-1
 510 371 l 1,6,-1
 510 259 l 1,0,-1
EndSplineSet
Substitution2: "'rtla' Right to Left Alternates lookup 0 subtable" less
EndChar

StartChar: question
Encoding: 63 63 34
Width: 529
Flags: W
LayerCount: 2
Fore
SplineSet
489 523 m 2,0,-1
 489 427 l 2,1,2
 489 398 489 398 471.5 373.5 c 128,-1,3
 454 349 454 349 428.5 332 c 128,-1,4
 403 315 403 315 377.5 299.5 c 128,-1,5
 352 284 352 284 334.5 267 c 128,-1,6
 317 250 317 250 317 233 c 2,7,-1
 317 188 l 1,8,-1
 181 188 l 1,9,-1
 181 246 l 2,10,11
 181 284 181 284 197 312.5 c 128,-1,12
 213 341 213 341 236 357.5 c 128,-1,13
 259 374 259 374 282 388 c 128,-1,14
 305 402 305 402 321 420.5 c 128,-1,15
 337 439 337 439 337 463 c 2,16,-1
 337 510 l 2,17,18
 337 537 337 537 318 547.5 c 128,-1,19
 299 558 299 558 239 558 c 0,20,21
 193 558 193 558 40 534 c 1,22,-1
 40 643 l 1,23,24
 168 659 168 659 258 659 c 0,25,26
 305 659 305 659 337.5 656.5 c 128,-1,27
 370 654 370 654 400.5 645.5 c 128,-1,28
 431 637 431 637 449 622.5 c 128,-1,29
 467 608 467 608 478 583 c 128,-1,30
 489 558 489 558 489 523 c 2,0,-1
327 0 m 1,31,-1
 171 0 l 1,32,-1
 171 138 l 1,33,-1
 327 138 l 1,34,-1
 327 0 l 1,31,-1
EndSplineSet
Substitution2: "<3,3> Small Caps in Latin lookup 11 subtable" question.smcp
EndChar

StartChar: at
Encoding: 64 64 35
Width: 787
Flags: W
LayerCount: 2
Fore
SplineSet
733 474 m 2,0,-1
 733 231 l 2,1,2
 733 148 733 148 604 148 c 2,3,-1
 573 148 l 2,4,5
 537 148 537 148 505.5 158 c 128,-1,6
 474 168 474 168 469 183 c 1,7,8
 453 146 453 146 375 146 c 0,9,10
 289 146 289 146 257.5 169.5 c 128,-1,11
 226 193 226 193 226 268 c 2,12,-1
 226 381 l 2,13,14
 226 454 226 454 261 478 c 128,-1,15
 296 502 296 502 395 502 c 128,-1,16
 494 502 494 502 524 478 c 128,-1,17
 554 454 554 454 554 381 c 2,18,-1
 554 238 l 2,19,20
 554 224 554 224 563 219 c 128,-1,21
 572 214 572 214 593 214 c 128,-1,22
 614 214 614 214 622 218.5 c 128,-1,23
 630 223 630 223 630 238 c 2,24,-1
 630 471 l 2,25,26
 630 581 630 581 389 581 c 0,27,28
 356 581 356 581 330.5 579.5 c 128,-1,29
 305 578 305 578 271.5 571.5 c 128,-1,30
 238 565 238 565 216.5 554 c 128,-1,31
 195 543 195 543 179.5 521.5 c 128,-1,32
 164 500 164 500 164 471 c 2,33,-1
 164 174 l 2,34,35
 164 66 164 66 390 66 c 0,36,37
 456 66 456 66 630 90 c 1,38,-1
 630 13 l 1,39,40
 458 -10 458 -10 388 -10 c 0,41,42
 56 -10 56 -10 56 166 c 2,43,-1
 56 473 l 2,44,45
 56 512 56 512 72.5 543 c 128,-1,46
 89 574 89 574 117.5 593.5 c 128,-1,47
 146 613 146 613 179.5 626.5 c 128,-1,48
 213 640 213 640 252.5 647 c 128,-1,49
 292 654 292 654 324 656.5 c 128,-1,50
 356 659 356 659 388 659 c 0,51,52
 442 659 442 659 493 652 c 128,-1,53
 544 645 544 645 602.5 627.5 c 128,-1,54
 661 610 661 610 697 570.5 c 128,-1,55
 733 531 733 531 733 474 c 2,0,-1
451 271 m 2,56,-1
 451 375 l 2,57,58
 451 417 451 417 441.5 427.5 c 128,-1,59
 432 438 432 438 392 438 c 0,60,61
 354 438 354 438 344 427 c 128,-1,62
 334 416 334 416 334 375 c 2,63,-1
 334 261 l 2,64,65
 334 227 334 227 341.5 220.5 c 128,-1,66
 349 214 349 214 386 214 c 2,67,-1
 397 214 l 2,68,69
 433 214 433 214 442 222.5 c 128,-1,70
 451 231 451 231 451 271 c 2,56,-1
EndSplineSet
Substitution2: "<3,3> Small Caps in Latin lookup 11 subtable" at.smcp
EndChar

StartChar: A
Encoding: 65 65 36
Width: 668
Flags: W
LayerCount: 2
Fore
SplineSet
666 0 m 1,0,-1
 508 0 l 1,1,-1
 450 171 l 1,2,-1
 213 171 l 1,3,-1
 156 0 l 1,4,-1
 2 0 l 1,5,-1
 242 649 l 1,6,-1
 432 649 l 1,7,-1
 666 0 l 1,0,-1
416 275 m 1,8,-1
 334 519 l 1,9,-1
 330 519 l 1,10,-1
 248 275 l 1,11,-1
 416 275 l 1,8,-1
EndSplineSet
EndChar

StartChar: B
Encoding: 66 66 37
Width: 635
Flags: W
LayerCount: 2
Fore
SplineSet
598 245 m 2,0,-1
 598 145 l 2,1,2
 598 64 598 64 533 32 c 128,-1,3
 468 0 468 0 340 0 c 2,4,-1
 70 0 l 1,5,-1
 70 649 l 1,6,-1
 333 649 l 2,7,8
 471 649 471 649 520 618 c 128,-1,9
 569 587 569 587 569 510 c 2,10,-1
 569 430 l 2,11,12
 569 402 569 402 547 378 c 128,-1,13
 525 354 525 354 497 346 c 1,14,-1
 497 341 l 1,15,16
 533 337 533 337 565.5 309 c 128,-1,17
 598 281 598 281 598 245 c 2,0,-1
419 450 m 2,18,-1
 419 482 l 2,19,20
 419 514 419 514 404 526 c 128,-1,21
 389 538 389 538 330 538 c 2,22,-1
 226 538 l 1,23,-1
 226 385 l 1,24,-1
 333 385 l 2,25,26
 388 385 388 385 403.5 399 c 128,-1,27
 419 413 419 413 419 450 c 2,18,-1
442 166 m 2,28,-1
 442 218 l 2,29,30
 442 254 442 254 423.5 269 c 128,-1,31
 405 284 405 284 358 284 c 2,32,-1
 226 284 l 1,33,-1
 226 111 l 1,34,-1
 337 111 l 2,35,36
 394 111 394 111 418 124 c 128,-1,37
 442 137 442 137 442 166 c 2,28,-1
EndSplineSet
EndChar

StartChar: C
Encoding: 67 67 38
Width: 597
Flags: W
LayerCount: 2
Fore
SplineSet
567 12 m 1,0,1
 457 -10 457 -10 357 -10 c 0,2,3
 317 -10 317 -10 281.5 -6.5 c 128,-1,4
 246 -3 246 -3 202.5 8.5 c 128,-1,5
 159 20 159 20 128.5 39.5 c 128,-1,6
 98 59 98 59 77 94.5 c 128,-1,7
 56 130 56 130 56 178 c 2,8,-1
 56 463 l 2,9,10
 56 659 56 659 357 659 c 0,11,12
 431 659 431 659 563 637 c 1,13,-1
 563 520 l 1,14,15
 444 548 444 548 359 548 c 0,16,17
 325 548 325 548 303.5 546 c 128,-1,18
 282 544 282 544 258.5 536 c 128,-1,19
 235 528 235 528 223.5 510.5 c 128,-1,20
 212 493 212 493 212 465 c 2,21,-1
 212 189 l 2,22,23
 212 101 212 101 373 101 c 0,24,25
 444 101 444 101 567 130 c 1,26,-1
 567 12 l 1,0,1
EndSplineSet
EndChar

StartChar: D
Encoding: 68 68 39
Width: 710
Flags: W
LayerCount: 2
Fore
SplineSet
654 452 m 2,0,-1
 654 188 l 2,1,2
 654 78 654 78 586 39 c 128,-1,3
 518 0 518 0 347 0 c 2,4,-1
 70 0 l 1,5,-1
 70 649 l 1,6,-1
 346 649 l 2,7,8
 511 649 511 649 582.5 608 c 128,-1,9
 654 567 654 567 654 452 c 2,0,-1
498 188 m 2,10,-1
 498 455 l 2,11,12
 498 502 498 502 460 520 c 128,-1,13
 422 538 422 538 345 538 c 2,14,-1
 226 538 l 1,15,-1
 226 111 l 1,16,-1
 340 111 l 2,17,18
 430 111 430 111 464 124.5 c 128,-1,19
 498 138 498 138 498 188 c 2,10,-1
EndSplineSet
EndChar

StartChar: E
Encoding: 69 69 40
Width: 610
Flags: W
LayerCount: 2
Fore
SplineSet
575 0 m 1,0,-1
 70 0 l 1,1,-1
 70 649 l 1,2,-1
 565 649 l 1,3,-1
 565 538 l 1,4,-1
 226 538 l 1,5,-1
 226 389 l 1,6,-1
 532 389 l 1,7,-1
 532 278 l 1,8,-1
 226 278 l 1,9,-1
 226 111 l 1,10,-1
 575 111 l 1,11,-1
 575 0 l 1,0,-1
EndSplineSet
EndChar

StartChar: F
Encoding: 70 70 41
Width: 610
Flags: W
LayerCount: 2
Fore
SplineSet
575 538 m 1,0,-1
 226 538 l 1,1,-1
 226 379 l 1,2,-1
 542 379 l 1,3,-1
 542 268 l 1,4,-1
 226 268 l 1,5,-1
 226 0 l 1,6,-1
 70 0 l 1,7,-1
 70 649 l 1,8,-1
 575 649 l 1,9,-1
 575 538 l 1,0,-1
EndSplineSet
EndChar

StartChar: G
Encoding: 71 71 42
Width: 705
Flags: W
LayerCount: 2
Fore
SplineSet
649 32 m 1,0,1
 599 14 599 14 521.5 2 c 128,-1,2
 444 -10 444 -10 379 -10 c 0,3,4
 325 -10 325 -10 281.5 -5.5 c 128,-1,5
 238 -1 238 -1 194.5 11.5 c 128,-1,6
 151 24 151 24 121.5 44 c 128,-1,7
 92 64 92 64 74 98 c 128,-1,8
 56 132 56 132 56 178 c 2,9,-1
 56 448 l 2,10,11
 56 499 56 499 77 538 c 128,-1,12
 98 577 98 577 130 599 c 128,-1,13
 162 621 162 621 207 635.5 c 128,-1,14
 252 650 252 650 293.5 654.5 c 128,-1,15
 335 659 335 659 381 659 c 0,16,17
 519 659 519 659 645 638 c 1,18,-1
 645 520 l 1,19,20
 526 548 526 548 381 548 c 0,21,22
 212 548 212 548 212 450 c 2,23,-1
 212 189 l 2,24,25
 212 139 212 139 259.5 120 c 128,-1,26
 307 101 307 101 395 101 c 0,27,28
 444 101 444 101 500 116 c 1,29,-1
 500 267 l 1,30,-1
 394 267 l 1,31,-1
 394 369 l 1,32,-1
 649 369 l 1,33,-1
 649 32 l 1,0,1
EndSplineSet
EndChar

StartChar: H
Encoding: 72 72 43
Width: 728
Flags: W
LayerCount: 2
Fore
SplineSet
658 0 m 1,0,-1
 502 0 l 1,1,-1
 502 278 l 1,2,-1
 226 278 l 1,3,-1
 226 0 l 1,4,-1
 70 0 l 1,5,-1
 70 649 l 1,6,-1
 226 649 l 1,7,-1
 226 389 l 1,8,-1
 502 389 l 1,9,-1
 502 649 l 1,10,-1
 658 649 l 1,11,-1
 658 0 l 1,0,-1
EndSplineSet
EndChar

StartChar: I
Encoding: 73 73 44
Width: 296
Flags: W
LayerCount: 2
Fore
SplineSet
226 0 m 1,0,-1
 70 0 l 1,1,-1
 70 649 l 1,2,-1
 226 649 l 1,3,-1
 226 0 l 1,0,-1
EndSplineSet
EndChar

StartChar: J
Encoding: 74 74 45
Width: 445
Flags: W
LayerCount: 2
Fore
SplineSet
377 649 m 1,0,-1
 377 177 l 2,1,2
 377 72 377 72 320 31 c 128,-1,3
 263 -10 263 -10 154 -10 c 0,4,5
 89 -10 89 -10 19 0 c 1,6,-1
 19 114 l 1,7,8
 93 101 93 101 142 101 c 0,9,10
 221 101 221 101 221 172 c 2,11,-1
 221 649 l 1,12,-1
 377 649 l 1,0,-1
EndSplineSet
EndChar

StartChar: K
Encoding: 75 75 46
Width: 682
Flags: W
LayerCount: 2
Fore
SplineSet
683 0 m 1,0,-1
 493 0 l 1,1,-1
 230 344 l 1,2,-1
 473 649 l 1,3,-1
 656 649 l 1,4,-1
 410 347 l 1,5,-1
 683 0 l 1,0,-1
226 0 m 1,6,-1
 70 0 l 1,7,-1
 70 649 l 1,8,-1
 226 649 l 1,9,-1
 226 0 l 1,6,-1
EndSplineSet
EndChar

StartChar: L
Encoding: 76 76 47
Width: 580
Flags: W
LayerCount: 2
Fore
SplineSet
545 0 m 1,0,-1
 70 0 l 1,1,-1
 70 649 l 1,2,-1
 226 649 l 1,3,-1
 226 111 l 1,4,-1
 545 111 l 1,5,-1
 545 0 l 1,0,-1
EndSplineSet
EndChar

StartChar: M
Encoding: 77 77 48
Width: 889
Flags: W
LayerCount: 2
Fore
SplineSet
819 0 m 1,0,-1
 678 0 l 1,1,-1
 678 480 l 1,2,-1
 675 480 l 1,3,-1
 511 0 l 1,4,-1
 386 0 l 1,5,-1
 217 480 l 1,6,-1
 213 480 l 1,7,-1
 213 0 l 1,8,-1
 70 0 l 1,9,-1
 70 649 l 1,10,-1
 292 649 l 1,11,-1
 452 185 l 1,12,-1
 610 649 l 1,13,-1
 819 649 l 1,14,-1
 819 0 l 1,0,-1
EndSplineSet
EndChar

StartChar: N
Encoding: 78 78 49
Width: 751
Flags: W
LayerCount: 2
Fore
SplineSet
681 0 m 1,0,-1
 523 0 l 1,1,-1
 209 450 l 1,2,-1
 209 0 l 1,3,-1
 70 0 l 1,4,-1
 70 649 l 1,5,-1
 228 649 l 1,6,-1
 542 206 l 1,7,-1
 542 649 l 1,8,-1
 681 649 l 1,9,-1
 681 0 l 1,0,-1
EndSplineSet
EndChar

StartChar: O
Encoding: 79 79 50
Width: 728
Flags: W
LayerCount: 2
Fore
SplineSet
672 462 m 2,0,-1
 672 178 l 2,1,2
 672 123 672 123 643 84 c 128,-1,3
 614 45 614 45 565 25.5 c 128,-1,4
 516 6 516 6 467 -2 c 128,-1,5
 418 -10 418 -10 363 -10 c 0,6,7
 311 -10 311 -10 265.5 -3.5 c 128,-1,8
 220 3 220 3 168.5 21 c 128,-1,9
 117 39 117 39 86.5 79 c 128,-1,10
 56 119 56 119 56 178 c 2,11,-1
 56 462 l 2,12,13
 56 512 56 512 78.5 550 c 128,-1,14
 101 588 101 588 132.5 608 c 128,-1,15
 164 628 164 628 209 640.5 c 128,-1,16
 254 653 254 653 289 656 c 128,-1,17
 324 659 324 659 363 659 c 0,18,19
 403 659 403 659 438.5 656 c 128,-1,20
 474 653 474 653 519 640.5 c 128,-1,21
 564 628 564 628 596 608 c 128,-1,22
 628 588 628 588 650 550.5 c 128,-1,23
 672 513 672 513 672 462 c 2,0,-1
516 178 m 2,24,-1
 516 463 l 2,25,26
 516 510 516 510 477.5 529 c 128,-1,27
 439 548 439 548 364 548 c 0,28,29
 288 548 288 548 250 529.5 c 128,-1,30
 212 511 212 511 212 463 c 2,31,-1
 212 178 l 2,32,33
 212 153 212 153 225 136.5 c 128,-1,34
 238 120 238 120 262.5 113 c 128,-1,35
 287 106 287 106 309.5 103.5 c 128,-1,36
 332 101 332 101 365 101 c 128,-1,37
 398 101 398 101 420.5 103.5 c 128,-1,38
 443 106 443 106 467 113 c 128,-1,39
 491 120 491 120 503.5 136.5 c 128,-1,40
 516 153 516 153 516 178 c 2,24,-1
EndSplineSet
EndChar

StartChar: P
Encoding: 80 80 51
Width: 627
Flags: W
LayerCount: 2
Fore
SplineSet
587 500 m 2,0,-1
 587 377 l 2,1,2
 587 281 587 281 523 246 c 128,-1,3
 459 211 459 211 312 211 c 2,4,-1
 226 211 l 1,5,-1
 226 0 l 1,6,-1
 70 0 l 1,7,-1
 70 649 l 1,8,-1
 330 649 l 2,9,10
 468 649 468 649 527.5 618.5 c 128,-1,11
 587 588 587 588 587 500 c 2,0,-1
436 382 m 2,12,-1
 436 486 l 2,13,14
 436 517 436 517 412 527.5 c 128,-1,15
 388 538 388 538 323 538 c 2,16,-1
 226 538 l 1,17,-1
 226 318 l 1,18,-1
 325 318 l 2,19,20
 386 318 386 318 411 332.5 c 128,-1,21
 436 347 436 347 436 382 c 2,12,-1
EndSplineSet
EndChar

StartChar: Q
Encoding: 81 81 52
Width: 740
Flags: W
LayerCount: 2
Fore
SplineSet
672 462 m 2,0,-1
 672 285 l 2,1,2
 672 138 672 138 590 112 c 1,3,-1
 732 112 l 1,4,-1
 732 0 l 1,5,-1
 519 0 l 2,6,7
 502 0 502 0 451 -5 c 128,-1,8
 400 -10 400 -10 363 -10 c 0,9,10
 311 -10 311 -10 265.5 -3.5 c 128,-1,11
 220 3 220 3 168.5 21 c 128,-1,12
 117 39 117 39 86.5 79 c 128,-1,13
 56 119 56 119 56 178 c 2,14,-1
 56 462 l 2,15,16
 56 512 56 512 78.5 550 c 128,-1,17
 101 588 101 588 132.5 608 c 128,-1,18
 164 628 164 628 209 640.5 c 128,-1,19
 254 653 254 653 289 656 c 128,-1,20
 324 659 324 659 363 659 c 0,21,22
 403 659 403 659 438.5 656 c 128,-1,23
 474 653 474 653 519 640.5 c 128,-1,24
 564 628 564 628 596 608 c 128,-1,25
 628 588 628 588 650 550.5 c 128,-1,26
 672 513 672 513 672 462 c 2,0,-1
516 178 m 2,27,-1
 516 463 l 2,28,29
 516 510 516 510 477.5 529 c 128,-1,30
 439 548 439 548 364 548 c 0,31,32
 288 548 288 548 250 529.5 c 128,-1,33
 212 511 212 511 212 463 c 2,34,-1
 212 178 l 2,35,36
 212 153 212 153 225 136.5 c 128,-1,37
 238 120 238 120 262.5 113 c 128,-1,38
 287 106 287 106 309.5 103.5 c 128,-1,39
 332 101 332 101 365 101 c 128,-1,40
 398 101 398 101 420.5 103.5 c 128,-1,41
 443 106 443 106 467 113 c 128,-1,42
 491 120 491 120 503.5 136.5 c 128,-1,43
 516 153 516 153 516 178 c 2,27,-1
EndSplineSet
EndChar

StartChar: R
Encoding: 82 82 53
Width: 668
Flags: W
LayerCount: 2
Fore
SplineSet
648 0 m 1,0,-1
 468 0 l 1,1,-1
 298 255 l 1,2,-1
 226 255 l 1,3,-1
 226 0 l 1,4,-1
 70 0 l 1,5,-1
 70 649 l 1,6,-1
 362 649 l 2,7,8
 490 649 490 649 549 618 c 128,-1,9
 608 587 608 587 608 512 c 2,10,-1
 608 398 l 2,11,12
 608 339 608 339 565.5 307 c 128,-1,13
 523 275 523 275 460 267 c 1,14,-1
 648 0 l 1,0,-1
455 429 m 2,15,-1
 455 475 l 2,16,17
 455 511 455 511 433.5 524.5 c 128,-1,18
 412 538 412 538 360 538 c 2,19,-1
 226 538 l 1,20,-1
 226 358 l 1,21,-1
 360 358 l 2,22,23
 415 358 415 358 435 372.5 c 128,-1,24
 455 387 455 387 455 429 c 2,15,-1
EndSplineSet
EndChar

StartChar: S
Encoding: 83 83 54
Width: 606
Flags: W
LayerCount: 2
Fore
SplineSet
568 228 m 2,0,-1
 568 185 l 2,1,2
 568 127 568 127 547 87.5 c 128,-1,3
 526 48 526 48 485 27.5 c 128,-1,4
 444 7 444 7 395.5 -1.5 c 128,-1,5
 347 -10 347 -10 280 -10 c 0,6,7
 187 -10 187 -10 50 8 c 1,8,-1
 50 127 l 1,9,10
 216 101 216 101 282 101 c 0,11,12
 412 101 412 101 412 168 c 2,13,-1
 412 210 l 2,14,15
 412 239 412 239 395 257.5 c 128,-1,16
 378 276 378 276 327 276 c 2,17,-1
 251 276 l 2,18,19
 37 276 37 276 37 446 c 2,20,-1
 37 494 l 2,21,22
 37 578 37 578 107.5 618.5 c 128,-1,23
 178 659 178 659 333 659 c 0,24,25
 408 659 408 659 536 646 c 1,26,-1
 536 530 l 1,27,28
 384 548 384 548 328 548 c 0,29,30
 251 548 251 548 222 535 c 128,-1,31
 193 522 193 522 193 491 c 2,32,-1
 193 445 l 2,33,34
 193 394 193 394 279 394 c 2,35,-1
 357 394 l 2,36,37
 471 394 471 394 519.5 352 c 128,-1,38
 568 310 568 310 568 228 c 2,0,-1
EndSplineSet
EndChar

StartChar: T
Encoding: 84 84 55
Width: 595
Flags: W
LayerCount: 2
Fore
SplineSet
575 538 m 1,0,-1
 376 538 l 1,1,-1
 376 0 l 1,2,-1
 220 0 l 1,3,-1
 220 538 l 1,4,-1
 20 538 l 1,5,-1
 20 649 l 1,6,-1
 575 649 l 1,7,-1
 575 538 l 1,0,-1
EndSplineSet
EndChar

StartChar: U
Encoding: 85 85 56
Width: 699
Flags: W
LayerCount: 2
Fore
SplineSet
631 649 m 1,0,-1
 631 178 l 2,1,2
 631 -10 631 -10 349 -10 c 0,3,4
 68 -10 68 -10 68 178 c 2,5,-1
 68 649 l 1,6,-1
 224 649 l 1,7,-1
 224 178 l 2,8,9
 224 134 224 134 253 117.5 c 128,-1,10
 282 101 282 101 351 101 c 0,11,12
 419 101 419 101 447 117.5 c 128,-1,13
 475 134 475 134 475 178 c 2,14,-1
 475 649 l 1,15,-1
 631 649 l 1,0,-1
EndSplineSet
EndChar

StartChar: V
Encoding: 86 86 57
Width: 664
Flags: W
LayerCount: 2
Fore
SplineSet
664 649 m 1,0,-1
 424 0 l 1,1,-1
 233 0 l 1,2,-1
 0 649 l 1,3,-1
 158 649 l 1,4,-1
 332 130 l 1,5,-1
 336 130 l 1,6,-1
 510 649 l 1,7,-1
 664 649 l 1,0,-1
EndSplineSet
EndChar

StartChar: W
Encoding: 87 87 58
Width: 985
Flags: W
LayerCount: 2
Fore
SplineSet
977 649 m 1,0,-1
 769 0 l 1,1,-1
 615 0 l 1,2,-1
 491 471 l 1,3,-1
 363 0 l 1,4,-1
 209 0 l 1,5,-1
 8 649 l 1,6,-1
 170 649 l 1,7,-1
 296 175 l 1,8,-1
 422 649 l 1,9,-1
 567 649 l 1,10,-1
 703 175 l 1,11,-1
 819 649 l 1,12,-1
 977 649 l 1,0,-1
EndSplineSet
EndChar

StartChar: X
Encoding: 88 88 59
Width: 677
Flags: W
LayerCount: 2
Fore
SplineSet
668 0 m 1,0,-1
 487 0 l 1,1,-1
 339 230 l 1,2,-1
 190 0 l 1,3,-1
 10 0 l 1,4,-1
 249 331 l 1,5,-1
 20 649 l 1,6,-1
 200 649 l 1,7,-1
 339 433 l 1,8,-1
 477 649 l 1,9,-1
 657 649 l 1,10,-1
 428 331 l 1,11,-1
 668 0 l 1,0,-1
EndSplineSet
EndChar

StartChar: Y
Encoding: 89 89 60
Width: 644
Flags: W
LayerCount: 2
Fore
SplineSet
636 649 m 1,0,-1
 399 262 l 1,1,-1
 399 0 l 1,2,-1
 243 0 l 1,3,-1
 243 260 l 1,4,-1
 8 649 l 1,5,-1
 185 649 l 1,6,-1
 322 395 l 1,7,-1
 458 649 l 1,8,-1
 636 649 l 1,0,-1
EndSplineSet
EndChar

StartChar: Z
Encoding: 90 90 61
Width: 612
Flags: W
LayerCount: 2
Fore
SplineSet
576 0 m 1,0,-1
 40 0 l 1,1,-1
 40 95 l 1,2,-1
 378 538 l 1,3,-1
 50 538 l 1,4,-1
 50 649 l 1,5,-1
 570 649 l 1,6,-1
 570 555 l 1,7,-1
 232 112 l 1,8,-1
 576 112 l 1,9,-1
 576 0 l 1,0,-1
EndSplineSet
EndChar

StartChar: bracketleft
Encoding: 91 91 62
Width: 372
Flags: W
LayerCount: 2
Fore
SplineSet
362 -190 m 1,0,-1
 100 -190 l 1,1,-1
 100 736 l 1,2,-1
 362 736 l 1,3,-1
 362 649 l 1,4,-1
 243 649 l 1,5,-1
 243 -103 l 1,6,-1
 362 -103 l 1,7,-1
 362 -190 l 1,0,-1
EndSplineSet
Substitution2: "<3,3> Small Caps in Latin lookup 11 subtable" bracketleft.smcp
Substitution2: "'rtla' Right to Left Alternates lookup 0 subtable" bracketright
EndChar

StartChar: backslash
Encoding: 92 92 63
Width: 431
Flags: W
LayerCount: 2
Fore
SplineSet
421 -10 m 1,0,-1
 334 -10 l 1,1,-1
 10 659 l 1,2,-1
 97 659 l 1,3,-1
 421 -10 l 1,0,-1
EndSplineSet
Substitution2: "<3,3> Small Caps in Latin lookup 11 subtable" backslash.smcp
EndChar

StartChar: bracketright
Encoding: 93 93 64
Width: 372
Flags: W
LayerCount: 2
Fore
SplineSet
272 -190 m 1,0,-1
 10 -190 l 1,1,-1
 10 -103 l 1,2,-1
 129 -103 l 1,3,-1
 129 649 l 1,4,-1
 10 649 l 1,5,-1
 10 736 l 1,6,-1
 272 736 l 1,7,-1
 272 -190 l 1,0,-1
EndSplineSet
Substitution2: "<3,3> Small Caps in Latin lookup 11 subtable" bracketright.smcp
Substitution2: "'rtla' Right to Left Alternates lookup 0 subtable" bracketleft
EndChar

StartChar: asciicircum
Encoding: 94 94 65
Width: 341
Flags: W
LayerCount: 2
Fore
SplineSet
321 453 m 1,0,-1
 223 453 l 1,1,-1
 170 640 l 1,2,-1
 118 453 l 1,3,-1
 20 453 l 1,4,-1
 76 680 l 1,5,-1
 263 680 l 1,6,-1
 321 453 l 1,0,-1
EndSplineSet
EndChar

StartChar: underscore
Encoding: 95 95 66
Width: 580
Flags: W
LayerCount: 2
Fore
SplineSet
509 -161 m 1,0,-1
 71 -161 l 1,1,-1
 71 -60 l 1,2,-1
 509 -60 l 1,3,-1
 509 -161 l 1,0,-1
EndSplineSet
EndChar

StartChar: grave
Encoding: 96 96 67
Width: 400
Flags: W
LayerCount: 2
Fore
SplineSet
324 553 m 1,0,-1
 200 553 l 1,1,-1
 75 680 l 1,2,-1
 234 680 l 1,3,-1
 324 553 l 1,0,-1
EndSplineSet
EndChar

StartChar: a
Encoding: 97 97 68
Width: 564
Flags: W
LayerCount: 2
Fore
SplineSet
500 0 m 1,0,-1
 357 0 l 1,1,-1
 357 44 l 1,2,3
 341 15 341 15 311 2.5 c 128,-1,4
 281 -10 281 -10 201 -10 c 0,5,6
 103 -10 103 -10 71 20 c 128,-1,7
 39 50 39 50 39 145 c 0,8,9
 39 231 39 231 72 264.5 c 128,-1,10
 105 298 105 298 190 298 c 2,11,-1
 354 298 l 1,12,-1
 354 331 l 2,13,14
 354 375 354 375 333.5 389.5 c 128,-1,15
 313 404 313 404 247 404 c 0,16,17
 185 404 185 404 77 392 c 1,18,-1
 77 484 l 1,19,20
 160 494 160 494 262 494 c 0,21,22
 396 494 396 494 448 461.5 c 128,-1,23
 500 429 500 429 500 333 c 2,24,-1
 500 0 l 1,0,-1
354 124 m 2,25,-1
 354 218 l 1,26,-1
 254 218 l 2,27,28
 206 218 206 218 194 207 c 128,-1,29
 182 196 182 196 182 148 c 0,30,31
 182 101 182 101 194.5 91 c 128,-1,32
 207 81 207 81 258 81 c 0,33,34
 283 81 283 81 295 81.5 c 128,-1,35
 307 82 307 82 321 84 c 128,-1,36
 335 86 335 86 340.5 90.5 c 128,-1,37
 346 95 346 95 350 103 c 128,-1,38
 354 111 354 111 354 124 c 2,25,-1
EndSplineSet
Substitution2: "<3,3> Small Caps in Latin lookup 11 subtable" a.smcp
EndChar

StartChar: b
Encoding: 98 98 69
Width: 610
Flags: W
LayerCount: 2
Fore
SplineSet
560 331 m 2,0,-1
 560 172 l 2,1,2
 560 73 560 73 500.5 31.5 c 128,-1,3
 441 -10 441 -10 309 -10 c 0,4,5
 170 -10 170 -10 117 33.5 c 128,-1,6
 64 77 64 77 64 172 c 2,7,-1
 64 700 l 1,8,-1
 210 700 l 1,9,-1
 210 436 l 1,10,11
 223 469 223 469 258.5 481.5 c 128,-1,12
 294 494 294 494 367 494 c 0,13,14
 429 494 429 494 468 484 c 128,-1,15
 507 474 507 474 527 451.5 c 128,-1,16
 547 429 547 429 553.5 402 c 128,-1,17
 560 375 560 375 560 331 c 2,0,-1
414 153 m 2,18,-1
 414 332 l 2,19,20
 414 379 414 379 396.5 391.5 c 128,-1,21
 379 404 379 404 310 404 c 0,22,23
 248 404 248 404 229 388 c 128,-1,24
 210 372 210 372 210 332 c 2,25,-1
 210 153 l 2,26,27
 210 110 210 110 228.5 95.5 c 128,-1,28
 247 81 247 81 311 81 c 128,-1,29
 375 81 375 81 394.5 95.5 c 128,-1,30
 414 110 414 110 414 153 c 2,18,-1
EndSplineSet
Substitution2: "<3,3> Small Caps in Latin lookup 11 subtable" b.smcp
EndChar

StartChar: c
Encoding: 99 99 70
Width: 482
Flags: W
LayerCount: 2
Fore
SplineSet
464 7 m 1,0,1
 376 -10 376 -10 300 -10 c 0,2,3
 263 -10 263 -10 241 -9 c 128,-1,4
 219 -8 219 -8 185.5 -3.5 c 128,-1,5
 152 1 152 1 131.5 12 c 128,-1,6
 111 23 111 23 90.5 40.5 c 128,-1,7
 70 58 70 58 60 87.5 c 128,-1,8
 50 117 50 117 50 157 c 2,9,-1
 50 318 l 2,10,11
 50 354 50 354 58.5 381.5 c 128,-1,12
 67 409 67 409 79.5 427.5 c 128,-1,13
 92 446 92 446 114.5 459 c 128,-1,14
 137 472 137 472 156 478.5 c 128,-1,15
 175 485 175 485 205.5 489 c 128,-1,16
 236 493 236 493 256.5 493.5 c 128,-1,17
 277 494 277 494 310 494 c 0,18,19
 365 494 365 494 457 476 c 1,20,-1
 457 380 l 1,21,22
 353 404 353 404 299 404 c 0,23,24
 198 404 198 404 198 336 c 2,25,-1
 198 158 l 2,26,27
 198 81 198 81 309 81 c 0,28,29
 361 81 361 81 464 103 c 1,30,-1
 464 7 l 1,0,1
EndSplineSet
Substitution2: "<3,3> Small Caps in Latin lookup 11 subtable" c.smcp
EndChar

StartChar: d
Encoding: 100 100 71
Width: 608
Flags: W
LayerCount: 2
Fore
SplineSet
544 0 m 1,0,-1
 403 0 l 1,1,-1
 403 55 l 1,2,3
 386 28 386 28 372 15.5 c 128,-1,4
 358 3 358 3 330 -3.5 c 128,-1,5
 302 -10 302 -10 250 -10 c 0,6,7
 126 -10 126 -10 88 21 c 128,-1,8
 50 52 50 52 50 159 c 2,9,-1
 50 348 l 2,10,11
 50 430 50 430 96.5 462 c 128,-1,12
 143 494 143 494 243 494 c 0,13,14
 315 494 315 494 344 480.5 c 128,-1,15
 373 467 373 467 398 430 c 1,16,-1
 398 700 l 1,17,-1
 544 700 l 1,18,-1
 544 0 l 1,0,-1
398 145 m 2,19,-1
 398 340 l 2,20,21
 398 376 398 376 378.5 390 c 128,-1,22
 359 404 359 404 295 404 c 0,23,24
 228 404 228 404 212 391 c 128,-1,25
 196 378 196 378 196 335 c 2,26,-1
 196 150 l 2,27,28
 196 110 196 110 212 95.5 c 128,-1,29
 228 81 228 81 287 81 c 0,30,31
 358 81 358 81 378 93.5 c 128,-1,32
 398 106 398 106 398 145 c 2,19,-1
EndSplineSet
Substitution2: "<3,3> Small Caps in Latin lookup 11 subtable" d.smcp
EndChar

StartChar: e
Encoding: 101 101 72
Width: 559
Flags: W
LayerCount: 2
Fore
SplineSet
511 203 m 1,0,-1
 197 203 l 1,1,-1
 197 159 l 2,2,3
 197 118 197 118 226 99.5 c 128,-1,4
 255 81 255 81 335 81 c 0,5,6
 407 81 407 81 497 102 c 1,7,-1
 497 9 l 1,8,9
 405 -10 405 -10 307 -10 c 0,10,11
 50 -10 50 -10 50 147 c 2,12,-1
 50 321 l 2,13,14
 50 414 50 414 110 454 c 128,-1,15
 170 494 170 494 289 494 c 0,16,17
 401 494 401 494 456 456 c 128,-1,18
 511 418 511 418 511 321 c 2,19,-1
 511 203 l 1,0,-1
372 286 m 1,20,-1
 372 356 l 2,21,22
 372 379 372 379 353.5 391.5 c 128,-1,23
 335 404 335 404 287 404 c 0,24,25
 234 404 234 404 215.5 391.5 c 128,-1,26
 197 379 197 379 197 356 c 2,27,-1
 197 286 l 1,28,-1
 372 286 l 1,20,-1
EndSplineSet
Substitution2: "<3,3> Small Caps in Latin lookup 11 subtable" e.smcp
EndChar

StartChar: f
Encoding: 102 102 73
Width: 388
Flags: W
LayerCount: 2
Fore
SplineSet
398 612 m 1,0,1
 338 620 338 620 312 620 c 0,2,3
 276 620 276 620 261.5 608.5 c 128,-1,4
 247 597 247 597 247 565 c 2,5,-1
 247 484 l 1,6,-1
 380 484 l 1,7,-1
 380 394 l 1,8,-1
 247 394 l 1,9,-1
 247 0 l 1,10,-1
 101 0 l 1,11,-1
 101 394 l 1,12,-1
 10 394 l 1,13,-1
 10 484 l 1,14,-1
 101 484 l 1,15,-1
 101 557 l 2,16,17
 101 646 101 646 146 678 c 128,-1,18
 191 710 191 710 289 710 c 0,19,20
 331 710 331 710 398 702 c 1,21,-1
 398 612 l 1,0,1
EndSplineSet
Substitution2: "<3,3> Small Caps in Latin lookup 11 subtable" f.smcp
EndChar

StartChar: g
Encoding: 103 103 74
Width: 608
Flags: W
LayerCount: 2
Fore
SplineSet
544 484 m 1,0,-1
 544 -26 l 2,1,2
 544 -132 544 -132 471.5 -176 c 128,-1,3
 399 -220 399 -220 260 -220 c 0,4,5
 146 -220 146 -220 85 -213 c 1,6,-1
 85 -115 l 1,7,8
 183 -128 183 -128 260 -128 c 0,9,10
 333 -128 333 -128 365.5 -104.5 c 128,-1,11
 398 -81 398 -81 398 -24 c 2,12,-1
 398 54 l 1,13,14
 373 17 373 17 344 3.5 c 128,-1,15
 315 -10 315 -10 243 -10 c 0,16,17
 139 -10 139 -10 94.5 21 c 128,-1,18
 50 52 50 52 50 136 c 2,19,-1
 50 325 l 2,20,21
 50 423 50 423 91 458.5 c 128,-1,22
 132 494 132 494 250 494 c 0,23,24
 302 494 302 494 330 487.5 c 128,-1,25
 358 481 358 481 372 468.5 c 128,-1,26
 386 456 386 456 403 429 c 1,27,-1
 403 484 l 1,28,-1
 544 484 l 1,0,-1
398 145 m 2,29,-1
 398 340 l 2,30,31
 398 379 398 379 378 391.5 c 128,-1,32
 358 404 358 404 287 404 c 0,33,34
 228 404 228 404 212 389.5 c 128,-1,35
 196 375 196 375 196 335 c 2,36,-1
 196 150 l 2,37,38
 196 107 196 107 212 94 c 128,-1,39
 228 81 228 81 295 81 c 0,40,41
 359 81 359 81 378.5 95 c 128,-1,42
 398 109 398 109 398 145 c 2,29,-1
EndSplineSet
Substitution2: "<3,3> Small Caps in Latin lookup 11 subtable" g.smcp
EndChar

StartChar: h
Encoding: 104 104 75
Width: 595
Flags: W
LayerCount: 2
Fore
SplineSet
531 0 m 1,0,-1
 385 0 l 1,1,-1
 385 338 l 2,2,3
 385 378 385 378 371.5 391 c 128,-1,4
 358 404 358 404 307 404 c 0,5,6
 244 404 244 404 227 391.5 c 128,-1,7
 210 379 210 379 210 338 c 2,8,-1
 210 0 l 1,9,-1
 64 0 l 1,10,-1
 64 700 l 1,11,-1
 210 700 l 1,12,-1
 210 425 l 1,13,14
 224 494 224 494 363 494 c 0,15,16
 459 494 459 494 495 459.5 c 128,-1,17
 531 425 531 425 531 355 c 2,18,-1
 531 0 l 1,0,-1
EndSplineSet
Substitution2: "<3,3> Small Caps in Latin lookup 11 subtable" h.smcp
EndChar

StartChar: i
Encoding: 105 105 76
Width: 282
Flags: W
LayerCount: 2
Fore
SplineSet
214 541 m 1,0,-1
 68 541 l 1,1,-1
 68 659 l 1,2,-1
 214 659 l 1,3,-1
 214 541 l 1,0,-1
214 0 m 1,4,-1
 68 0 l 1,5,-1
 68 484 l 1,6,-1
 214 484 l 1,7,-1
 214 0 l 1,4,-1
EndSplineSet
Substitution2: "<3,3> Small Caps in Latin lookup 11 subtable" i.smcp
EndChar

StartChar: j
Encoding: 106 106 77
Width: 274
Flags: W
LayerCount: 2
Fore
SplineSet
210 484 m 1,0,-1
 210 -73 l 2,1,2
 210 -159 210 -159 158.5 -189.5 c 128,-1,3
 107 -220 107 -220 9 -220 c 0,4,5
 -4 -220 -4 -220 -38 -218 c 1,6,-1
 -38 -123 l 1,7,8
 -32 -124 -32 -124 -20 -124 c 0,9,10
 34 -124 34 -124 49 -110 c 128,-1,11
 64 -96 64 -96 64 -40 c 2,12,-1
 64 484 l 1,13,-1
 210 484 l 1,0,-1
210 541 m 1,14,-1
 64 541 l 1,15,-1
 64 659 l 1,16,-1
 210 659 l 1,17,-1
 210 541 l 1,14,-1
EndSplineSet
Substitution2: "<3,3> Small Caps in Latin lookup 11 subtable" j.smcp
EndChar

StartChar: k
Encoding: 107 107 78
Width: 540
Flags: W
LayerCount: 2
Fore
SplineSet
556 0 m 1,0,-1
 391 0 l 1,1,-1
 216 272 l 1,2,-1
 375 484 l 1,3,-1
 542 484 l 1,4,-1
 374 273 l 1,5,-1
 556 0 l 1,0,-1
210 0 m 1,6,-1
 64 0 l 1,7,-1
 64 700 l 1,8,-1
 210 700 l 1,9,-1
 210 0 l 1,6,-1
EndSplineSet
Substitution2: "<3,3> Small Caps in Latin lookup 11 subtable" k.smcp
EndChar

StartChar: l
Encoding: 108 108 79
Width: 282
Flags: W
LayerCount: 2
Fore
SplineSet
214 0 m 1,0,-1
 68 0 l 1,1,-1
 68 700 l 1,2,-1
 214 700 l 1,3,-1
 214 0 l 1,0,-1
EndSplineSet
Substitution2: "<3,3> Small Caps in Latin lookup 11 subtable" l.smcp
EndChar

StartChar: m
Encoding: 109 109 80
Width: 876
Flags: W
LayerCount: 2
Fore
SplineSet
812 0 m 1,0,-1
 666 0 l 1,1,-1
 666 335 l 2,2,3
 666 379 666 379 655.5 391.5 c 128,-1,4
 645 404 645 404 598 404 c 0,5,6
 538 404 538 404 524.5 391.5 c 128,-1,7
 511 379 511 379 511 335 c 2,8,-1
 511 0 l 1,9,-1
 365 0 l 1,10,-1
 365 335 l 2,11,12
 365 379 365 379 354.5 391.5 c 128,-1,13
 344 404 344 404 297 404 c 0,14,15
 237 404 237 404 223.5 391.5 c 128,-1,16
 210 379 210 379 210 335 c 2,17,-1
 210 0 l 1,18,-1
 64 0 l 1,19,-1
 64 484 l 1,20,-1
 210 484 l 1,21,-1
 210 425 l 1,22,23
 224 494 224 494 353 494 c 0,24,25
 422 494 422 494 456.5 476 c 128,-1,26
 491 458 491 458 503 422 c 1,27,28
 515 459 515 459 548.5 476.5 c 128,-1,29
 582 494 582 494 654 494 c 0,30,31
 749 494 749 494 780.5 460.5 c 128,-1,32
 812 427 812 427 812 355 c 2,33,-1
 812 0 l 1,0,-1
EndSplineSet
Substitution2: "<3,3> Small Caps in Latin lookup 11 subtable" m.smcp
EndChar

StartChar: n
Encoding: 110 110 81
Width: 595
Flags: W
LayerCount: 2
Fore
SplineSet
531 0 m 1,0,-1
 385 0 l 1,1,-1
 385 336 l 2,2,3
 385 376 385 376 371.5 390 c 128,-1,4
 358 404 358 404 307 404 c 0,5,6
 244 404 244 404 227 390.5 c 128,-1,7
 210 377 210 377 210 336 c 2,8,-1
 210 0 l 1,9,-1
 64 0 l 1,10,-1
 64 484 l 1,11,-1
 208 484 l 1,12,-1
 208 425 l 1,13,14
 225 494 225 494 363 494 c 0,15,16
 459 494 459 494 495 459.5 c 128,-1,17
 531 425 531 425 531 355 c 2,18,-1
 531 0 l 1,0,-1
EndSplineSet
Substitution2: "<3,3> Small Caps in Latin lookup 11 subtable" n.smcp
EndChar

StartChar: o
Encoding: 111 111 82
Width: 592
Flags: W
LayerCount: 2
Fore
SplineSet
542 309 m 2,0,-1
 542 166 l 2,1,2
 542 119 542 119 527 85.5 c 128,-1,3
 512 52 512 52 490 33.5 c 128,-1,4
 468 15 468 15 432.5 5 c 128,-1,5
 397 -5 397 -5 367.5 -7.5 c 128,-1,6
 338 -10 338 -10 296 -10 c 128,-1,7
 254 -10 254 -10 224.5 -7.5 c 128,-1,8
 195 -5 195 -5 159.5 5 c 128,-1,9
 124 15 124 15 102 33.5 c 128,-1,10
 80 52 80 52 65 85.5 c 128,-1,11
 50 119 50 119 50 166 c 2,12,-1
 50 309 l 2,13,14
 50 359 50 359 65.5 394.5 c 128,-1,15
 81 430 81 430 103.5 449 c 128,-1,16
 126 468 126 468 162 478.5 c 128,-1,17
 198 489 198 489 226.5 491.5 c 128,-1,18
 255 494 255 494 296 494 c 128,-1,19
 337 494 337 494 365.5 491.5 c 128,-1,20
 394 489 394 489 430 478.5 c 128,-1,21
 466 468 466 468 488.5 449 c 128,-1,22
 511 430 511 430 526.5 394.5 c 128,-1,23
 542 359 542 359 542 309 c 2,0,-1
396 149 m 2,24,-1
 396 332 l 2,25,26
 396 371 396 371 376 387.5 c 128,-1,27
 356 404 356 404 296 404 c 128,-1,28
 236 404 236 404 216 387.5 c 128,-1,29
 196 371 196 371 196 332 c 2,30,-1
 196 149 l 2,31,32
 196 111 196 111 215.5 96 c 128,-1,33
 235 81 235 81 296 81 c 128,-1,34
 357 81 357 81 376.5 96 c 128,-1,35
 396 111 396 111 396 149 c 2,24,-1
EndSplineSet
Substitution2: "<3,3> Small Caps in Latin lookup 11 subtable" o.smcp
EndChar

StartChar: p
Encoding: 112 112 83
Width: 609
Flags: W
LayerCount: 2
Fore
SplineSet
559 331 m 2,0,-1
 559 172 l 2,1,2
 559 64 559 64 511 27 c 128,-1,3
 463 -10 463 -10 355 -10 c 0,4,5
 287 -10 287 -10 253.5 1 c 128,-1,6
 220 12 220 12 210 49 c 1,7,-1
 210 -208 l 1,8,-1
 64 -208 l 1,9,-1
 64 484 l 1,10,-1
 202 484 l 1,11,-1
 202 436 l 1,12,13
 215 468 215 468 253.5 481 c 128,-1,14
 292 494 292 494 366 494 c 0,15,16
 428 494 428 494 467 484 c 128,-1,17
 506 474 506 474 526 451.5 c 128,-1,18
 546 429 546 429 552.5 402 c 128,-1,19
 559 375 559 375 559 331 c 2,0,-1
413 153 m 2,20,-1
 413 332 l 2,21,22
 413 379 413 379 395.5 391.5 c 128,-1,23
 378 404 378 404 309 404 c 0,24,25
 247 404 247 404 228.5 388 c 128,-1,26
 210 372 210 372 210 332 c 2,27,-1
 210 153 l 2,28,29
 210 110 210 110 228 95.5 c 128,-1,30
 246 81 246 81 310 81 c 128,-1,31
 374 81 374 81 393.5 95.5 c 128,-1,32
 413 110 413 110 413 153 c 2,20,-1
EndSplineSet
Substitution2: "<3,3> Small Caps in Latin lookup 11 subtable" p.smcp
EndChar

StartChar: q
Encoding: 113 113 84
Width: 608
Flags: W
LayerCount: 2
Fore
SplineSet
544 -208 m 1,0,-1
 398 -208 l 1,1,-1
 398 55 l 1,2,3
 374 15 374 15 349 2.5 c 128,-1,4
 324 -10 324 -10 250 -10 c 0,5,6
 126 -10 126 -10 88 21 c 128,-1,7
 50 52 50 52 50 159 c 2,8,-1
 50 328 l 2,9,10
 50 428 50 428 98.5 461 c 128,-1,11
 147 494 147 494 297 494 c 0,12,13
 356 494 356 494 397.5 490 c 128,-1,14
 439 486 439 486 466.5 474.5 c 128,-1,15
 494 463 494 463 509.5 451 c 128,-1,16
 525 439 525 439 532.5 414.5 c 128,-1,17
 540 390 540 390 542 369 c 128,-1,18
 544 348 544 348 544 310 c 2,19,-1
 544 -208 l 1,0,-1
398 145 m 2,20,-1
 398 337 l 2,21,22
 398 373 398 373 378.5 388.5 c 128,-1,23
 359 404 359 404 295 404 c 0,24,25
 228 404 228 404 212 392 c 128,-1,26
 196 380 196 380 196 337 c 2,27,-1
 196 150 l 2,28,29
 196 110 196 110 212 95.5 c 128,-1,30
 228 81 228 81 287 81 c 0,31,32
 358 81 358 81 378 93.5 c 128,-1,33
 398 106 398 106 398 145 c 2,20,-1
EndSplineSet
Substitution2: "<3,3> Small Caps in Latin lookup 11 subtable" q.smcp
EndChar

StartChar: r
Encoding: 114 114 85
Width: 397
Flags: W
LayerCount: 2
Fore
SplineSet
381 373 m 1,0,-1
 331 373 l 2,1,2
 271 373 271 373 240.5 354.5 c 128,-1,3
 210 336 210 336 210 291 c 2,4,-1
 210 0 l 1,5,-1
 64 0 l 1,6,-1
 64 484 l 1,7,-1
 203 484 l 1,8,-1
 203 399 l 1,9,10
 204 435 204 435 244.5 464.5 c 128,-1,11
 285 494 285 494 329 494 c 2,12,-1
 381 494 l 1,13,-1
 381 373 l 1,0,-1
EndSplineSet
Substitution2: "<3,3> Small Caps in Latin lookup 11 subtable" r.smcp
EndChar

StartChar: s
Encoding: 115 115 86
Width: 525
Flags: W
LayerCount: 2
Fore
SplineSet
481 189 m 2,0,-1
 481 128 l 2,1,2
 481 92 481 92 467.5 66 c 128,-1,3
 454 40 454 40 433.5 25.5 c 128,-1,4
 413 11 413 11 380 3 c 128,-1,5
 347 -5 347 -5 316.5 -7.5 c 128,-1,6
 286 -10 286 -10 245 -10 c 0,7,8
 166 -10 166 -10 54 5 c 1,9,-1
 54 102 l 1,10,11
 193 81 193 81 247 81 c 0,12,13
 290 81 290 81 313.5 89.5 c 128,-1,14
 337 98 337 98 337 123 c 2,15,-1
 337 153 l 2,16,17
 337 176 337 176 324 187.5 c 128,-1,18
 311 199 311 199 268 199 c 2,19,-1
 205 199 l 2,20,21
 129 199 129 199 86.5 229.5 c 128,-1,22
 44 260 44 260 44 319 c 2,23,-1
 44 378 l 2,24,25
 44 444 44 444 107 469 c 128,-1,26
 170 494 170 494 285 494 c 0,27,28
 333 494 333 494 457 485 c 1,29,-1
 457 392 l 1,30,31
 301 404 301 404 281 404 c 0,32,33
 220 404 220 404 204 395.5 c 128,-1,34
 188 387 188 387 188 363 c 2,35,-1
 188 337 l 2,36,37
 188 325 188 325 200.5 315 c 128,-1,38
 213 305 213 305 239 305 c 2,39,-1
 303 305 l 2,40,41
 481 305 481 305 481 189 c 2,0,-1
EndSplineSet
Substitution2: "<3,3> Small Caps in Latin lookup 11 subtable" s.smcp
EndChar

StartChar: t
Encoding: 116 116 87
Width: 407
Flags: W
LayerCount: 2
Fore
SplineSet
387 -5 m 1,0,1
 345 -10 345 -10 306 -10 c 0,2,3
 272 -10 272 -10 246.5 -7.5 c 128,-1,4
 221 -5 221 -5 193.5 4.5 c 128,-1,5
 166 14 166 14 148.5 29.5 c 128,-1,6
 131 45 131 45 119.5 73.5 c 128,-1,7
 108 102 108 102 108 141 c 2,8,-1
 108 394 l 1,9,-1
 10 394 l 1,10,-1
 10 484 l 1,11,-1
 108 484 l 1,12,-1
 108 624 l 1,13,-1
 254 624 l 1,14,-1
 254 484 l 1,15,-1
 387 484 l 1,16,-1
 387 394 l 1,17,-1
 254 394 l 1,18,-1
 254 166 l 2,19,20
 254 116 254 116 269 98.5 c 128,-1,21
 284 81 284 81 335 81 c 0,22,23
 352 81 352 81 387 86 c 1,24,-1
 387 -5 l 1,0,1
EndSplineSet
Substitution2: "<3,3> Small Caps in Latin lookup 11 subtable" t.smcp
EndChar

StartChar: u
Encoding: 117 117 88
Width: 595
Flags: W
LayerCount: 2
Fore
SplineSet
531 0 m 1,0,-1
 387 0 l 1,1,-1
 387 59 l 1,2,3
 370 -10 370 -10 232 -10 c 0,4,5
 136 -10 136 -10 100 24.5 c 128,-1,6
 64 59 64 59 64 129 c 2,7,-1
 64 484 l 1,8,-1
 210 484 l 1,9,-1
 210 149 l 2,10,11
 210 109 210 109 223.5 95 c 128,-1,12
 237 81 237 81 288 81 c 0,13,14
 351 81 351 81 368 94.5 c 128,-1,15
 385 108 385 108 385 149 c 2,16,-1
 385 484 l 1,17,-1
 531 484 l 1,18,-1
 531 0 l 1,0,-1
EndSplineSet
Substitution2: "<3,3> Small Caps in Latin lookup 11 subtable" u.smcp
EndChar

StartChar: v
Encoding: 118 118 89
Width: 510
Flags: W
LayerCount: 2
Fore
SplineSet
510 484 m 1,0,-1
 332 0 l 1,1,-1
 184 0 l 1,2,-1
 0 484 l 1,3,-1
 155 484 l 1,4,-1
 261 149 l 1,5,-1
 363 484 l 1,6,-1
 510 484 l 1,0,-1
EndSplineSet
Substitution2: "<3,3> Small Caps in Latin lookup 11 subtable" v.smcp
EndChar

StartChar: w
Encoding: 119 119 90
Width: 822
Flags: W
LayerCount: 2
Fore
SplineSet
814 484 m 1,0,-1
 656 0 l 1,1,-1
 508 0 l 1,2,-1
 412 327 l 1,3,-1
 318 0 l 1,4,-1
 170 0 l 1,5,-1
 8 484 l 1,6,-1
 157 484 l 1,7,-1
 247 133 l 1,8,-1
 343 484 l 1,9,-1
 486 484 l 1,10,-1
 586 133 l 1,11,-1
 672 484 l 1,12,-1
 814 484 l 1,0,-1
EndSplineSet
Substitution2: "<3,3> Small Caps in Latin lookup 11 subtable" w.smcp
EndChar

StartChar: x
Encoding: 120 120 91
Width: 568
Flags: W
LayerCount: 2
Fore
SplineSet
559 0 m 1,0,-1
 390 0 l 1,1,-1
 284 152 l 1,2,-1
 179 0 l 1,3,-1
 10 0 l 1,4,-1
 200 248 l 1,5,-1
 20 484 l 1,6,-1
 189 484 l 1,7,-1
 284 345 l 1,8,-1
 380 484 l 1,9,-1
 549 484 l 1,10,-1
 368 248 l 1,11,-1
 559 0 l 1,0,-1
EndSplineSet
Substitution2: "<3,3> Small Caps in Latin lookup 11 subtable" x.smcp
EndChar

StartChar: y
Encoding: 121 121 92
Width: 534
Flags: W
LayerCount: 2
Fore
SplineSet
526 484 m 1,0,-1
 261 -208 l 1,1,-1
 113 -208 l 1,2,-1
 201 4 l 1,3,-1
 8 484 l 1,4,-1
 167 484 l 1,5,-1
 276 142 l 1,6,-1
 375 484 l 1,7,-1
 526 484 l 1,0,-1
EndSplineSet
Substitution2: "<3,3> Small Caps in Latin lookup 11 subtable" y.smcp
EndChar

StartChar: z
Encoding: 122 122 93
Width: 512
Flags: W
LayerCount: 2
Fore
SplineSet
476 0 m 1,0,-1
 40 0 l 1,1,-1
 40 78 l 1,2,-1
 284 389 l 1,3,-1
 50 389 l 1,4,-1
 50 484 l 1,5,-1
 470 484 l 1,6,-1
 470 406 l 1,7,-1
 226 95 l 1,8,-1
 476 95 l 1,9,-1
 476 0 l 1,0,-1
EndSplineSet
Substitution2: "<3,3> Small Caps in Latin lookup 11 subtable" z.smcp
EndChar

StartChar: braceleft
Encoding: 123 123 94
Width: 384
Flags: W
LayerCount: 2
Fore
SplineSet
364 -190 m 1,0,-1
 261 -190 l 2,1,2
 229 -190 229 -190 204 -184 c 128,-1,3
 179 -178 179 -178 153.5 -161 c 128,-1,4
 128 -144 128 -144 114 -108 c 128,-1,5
 100 -72 100 -72 100 -18 c 2,6,-1
 100 172 l 2,7,8
 100 228 100 228 90 240.5 c 128,-1,9
 80 253 80 253 31 253 c 2,10,-1
 8 253 l 1,11,-1
 8 345 l 1,12,-1
 31 345 l 2,13,14
 80 345 80 345 90 357.5 c 128,-1,15
 100 370 100 370 100 426 c 2,16,-1
 100 564 l 2,17,18
 100 618 100 618 114 654 c 128,-1,19
 128 690 128 690 153.5 707 c 128,-1,20
 179 724 179 724 204 730 c 128,-1,21
 229 736 229 736 261 736 c 2,22,-1
 364 736 l 1,23,-1
 364 649 l 1,24,-1
 304 649 l 2,25,26
 279 649 279 649 261 632 c 128,-1,27
 243 615 243 615 243 584 c 2,28,-1
 243 441 l 2,29,30
 243 380 243 380 226.5 348.5 c 128,-1,31
 210 317 210 317 164 301 c 1,32,-1
 164 297 l 1,33,34
 210 282 210 282 226.5 250.5 c 128,-1,35
 243 219 243 219 243 157 c 2,36,-1
 243 -38 l 2,37,38
 243 -69 243 -69 261 -86 c 128,-1,39
 279 -103 279 -103 304 -103 c 2,40,-1
 364 -103 l 1,41,-1
 364 -190 l 1,0,-1
EndSplineSet
Substitution2: "<3,3> Small Caps in Latin lookup 11 subtable" braceleft.smcp
Substitution2: "'rtla' Right to Left Alternates lookup 0 subtable" braceright
EndChar

StartChar: bar
Encoding: 124 124 95
Width: 265
Flags: W
LayerCount: 2
Fore
SplineSet
161 -10 m 1,0,-1
 104 -10 l 1,1,-1
 104 659 l 1,2,-1
 161 659 l 1,3,-1
 161 -10 l 1,0,-1
EndSplineSet
EndChar

StartChar: braceright
Encoding: 125 125 96
Width: 384
Flags: W
LayerCount: 2
Fore
SplineSet
376 253 m 1,0,-1
 353 253 l 2,1,2
 304 253 304 253 294 240.5 c 128,-1,3
 284 228 284 228 284 172 c 2,4,-1
 284 -18 l 2,5,6
 284 -72 284 -72 270 -108 c 128,-1,7
 256 -144 256 -144 230.5 -161 c 128,-1,8
 205 -178 205 -178 180 -184 c 128,-1,9
 155 -190 155 -190 123 -190 c 2,10,-1
 20 -190 l 1,11,-1
 20 -103 l 1,12,-1
 80 -103 l 2,13,14
 105 -103 105 -103 123 -86 c 128,-1,15
 141 -69 141 -69 141 -38 c 2,16,-1
 141 157 l 2,17,18
 141 219 141 219 157.5 250.5 c 128,-1,19
 174 282 174 282 220 297 c 1,20,-1
 220 301 l 1,21,22
 174 317 174 317 157.5 348.5 c 128,-1,23
 141 380 141 380 141 441 c 2,24,-1
 141 584 l 2,25,26
 141 615 141 615 123 632 c 128,-1,27
 105 649 105 649 80 649 c 2,28,-1
 20 649 l 1,29,-1
 20 736 l 1,30,-1
 123 736 l 2,31,32
 155 736 155 736 180 730 c 128,-1,33
 205 724 205 724 230.5 707 c 128,-1,34
 256 690 256 690 270 654 c 128,-1,35
 284 618 284 618 284 564 c 2,36,-1
 284 426 l 2,37,38
 284 370 284 370 294 357.5 c 128,-1,39
 304 345 304 345 353 345 c 2,40,-1
 376 345 l 1,41,-1
 376 253 l 1,0,-1
EndSplineSet
Substitution2: "<3,3> Small Caps in Latin lookup 11 subtable" braceright.smcp
Substitution2: "'rtla' Right to Left Alternates lookup 0 subtable" braceleft
EndChar

StartChar: asciitilde
Encoding: 126 126 97
Width: 580
Flags: W
LayerCount: 2
Fore
SplineSet
190 371 m 0,0,1
 228 371 228 371 298.5 341.5 c 128,-1,2
 369 312 369 312 393 312 c 0,3,4
 474 312 474 312 512 374 c 1,5,-1
 512 273 l 1,6,7
 476 227 476 227 389 227 c 0,8,9
 357 227 357 227 286.5 256.5 c 128,-1,10
 216 286 216 286 186 286 c 0,11,12
 144 286 144 286 116.5 271.5 c 128,-1,13
 89 257 89 257 68 225 c 1,14,-1
 68 326 l 1,15,16
 105 371 105 371 190 371 c 0,0,1
EndSplineSet
EndChar

StartChar: exclamdown
Encoding: 161 161 98
Width: 295
Flags: W
LayerCount: 2
Fore
SplineSet
192 296 m 1,0,-1
 235 -165 l 1,1,-1
 60 -165 l 1,2,-1
 103 296 l 1,3,-1
 192 296 l 1,0,-1
70 484 m 1,4,-1
 226 484 l 1,5,-1
 226 346 l 1,6,-1
 70 346 l 1,7,-1
 70 484 l 1,4,-1
EndSplineSet
Substitution2: "<3,3> Small Caps in Latin lookup 11 subtable" exclamdown.smcp
EndChar

StartChar: cent
Encoding: 162 162 99
Width: 464
Flags: W
LayerCount: 2
Fore
SplineSet
446 90 m 1,0,1
 388 80 388 80 326 75 c 1,2,-1
 326 -10 l 1,3,-1
 244 -10 l 1,4,-1
 244 73 l 1,5,6
 207 74 207 74 180.5 77 c 128,-1,7
 154 80 154 80 124 90 c 128,-1,8
 94 100 94 100 75.5 117 c 128,-1,9
 57 134 57 134 44.5 165.5 c 128,-1,10
 32 197 32 197 32 240 c 2,11,-1
 32 401 l 2,12,13
 32 456 32 456 48.5 492 c 128,-1,14
 65 528 65 528 98 545.5 c 128,-1,15
 131 563 131 563 164 569.5 c 128,-1,16
 197 576 197 576 244 577 c 1,17,-1
 244 659 l 1,18,-1
 326 659 l 1,19,-1
 326 575 l 1,20,21
 369 572 369 572 439 559 c 1,22,-1
 439 462 l 1,23,24
 335 486 335 486 272 486 c 0,25,26
 213 486 213 486 196.5 476.5 c 128,-1,27
 180 467 180 467 180 426 c 2,28,-1
 180 218 l 2,29,30
 180 183 180 183 199.5 174.5 c 128,-1,31
 219 166 219 166 282 166 c 0,32,33
 343 166 343 166 446 188 c 1,34,-1
 446 90 l 1,0,1
EndSplineSet
Substitution2: "<3,3> Small Caps in Latin lookup 11 subtable" cent.smcp
EndChar

StartChar: sterling
Encoding: 163 163 100
Width: 580
Flags: W
LayerCount: 2
Fore
SplineSet
538 0 m 1,0,-1
 42 0 l 1,1,-1
 42 111 l 1,2,-1
 143 111 l 1,3,-1
 143 283 l 1,4,-1
 42 283 l 1,5,-1
 42 385 l 1,6,-1
 143 385 l 1,7,-1
 143 460 l 2,8,9
 143 522 143 522 158 562 c 128,-1,10
 173 602 173 602 204.5 623 c 128,-1,11
 236 644 236 644 274.5 651.5 c 128,-1,12
 313 659 313 659 371 659 c 0,13,14
 423 659 423 659 490 651 c 1,15,-1
 490 550 l 1,16,17
 432 559 432 559 395 559 c 0,18,19
 322 559 322 559 305.5 546 c 128,-1,20
 289 533 289 533 289 475 c 2,21,-1
 289 385 l 1,22,-1
 460 385 l 1,23,-1
 460 283 l 1,24,-1
 289 283 l 1,25,-1
 289 111 l 1,26,-1
 538 111 l 1,27,-1
 538 0 l 1,0,-1
EndSplineSet
Substitution2: "<3,3> Small Caps in Latin lookup 11 subtable" sterling.smcp
EndChar

StartChar: currency
Encoding: 164 164 101
Width: 520
Flags: W
LayerCount: 2
Fore
SplineSet
509 339 m 128,-1,1
 509 253 509 253 447 176 c 1,2,-1
 501 122 l 1,3,-1
 475 96 l 1,4,-1
 421 150 l 1,5,6
 343 89 343 89 258 89 c 0,7,8
 176 89 176 89 100 148 c 1,9,-1
 46 94 l 1,10,-1
 20 120 l 1,11,-1
 74 174 l 1,12,13
 12 251 12 251 12 337 c 128,-1,14
 12 423 12 423 74 500 c 1,15,-1
 20 554 l 1,16,-1
 46 580 l 1,17,-1
 100 526 l 1,18,19
 176 585 176 585 258 585 c 0,20,21
 348 585 348 585 421 528 c 1,22,-1
 475 582 l 1,23,-1
 501 556 l 1,24,-1
 447 502 l 1,25,0
 509 425 509 425 509 339 c 128,-1,1
469 339 m 0,26,27
 469 423 469 423 408.5 484 c 128,-1,28
 348 545 348 545 263 545 c 0,29,30
 175 545 175 545 113.5 485.5 c 128,-1,31
 52 426 52 426 52 337 c 0,32,33
 52 250 52 250 113.5 189.5 c 128,-1,34
 175 129 175 129 262 129 c 0,35,36
 348 129 348 129 408.5 191 c 128,-1,37
 469 253 469 253 469 339 c 0,26,27
EndSplineSet
EndChar

StartChar: yen
Encoding: 165 165 102
Width: 647
Flags: W
LayerCount: 2
Fore
SplineSet
638 649 m 1,0,-1
 461 364 l 1,1,-1
 593 364 l 1,2,-1
 593 263 l 1,3,-1
 400 263 l 1,4,-1
 400 196 l 1,5,-1
 593 196 l 1,6,-1
 593 95 l 1,7,-1
 400 95 l 1,8,-1
 400 0 l 1,9,-1
 247 0 l 1,10,-1
 247 95 l 1,11,-1
 55 95 l 1,12,-1
 55 196 l 1,13,-1
 247 196 l 1,14,-1
 247 263 l 1,15,-1
 55 263 l 1,16,-1
 55 364 l 1,17,-1
 185 364 l 1,18,-1
 10 649 l 1,19,-1
 187 649 l 1,20,-1
 324 395 l 1,21,-1
 460 649 l 1,22,-1
 638 649 l 1,0,-1
EndSplineSet
Substitution2: "<3,3> Small Caps in Latin lookup 11 subtable" yen.smcp
EndChar

StartChar: brokenbar
Encoding: 166 166 103
Width: 265
Flags: W
LayerCount: 2
Fore
SplineSet
160 298 m 1,0,-1
 105 298 l 1,1,-1
 105 649 l 1,2,-1
 160 649 l 1,3,-1
 160 298 l 1,0,-1
160 -190 m 1,4,-1
 105 -190 l 1,5,-1
 105 161 l 1,6,-1
 160 161 l 1,7,-1
 160 -190 l 1,4,-1
EndSplineSet
EndChar

StartChar: section
Encoding: 167 167 104
Width: 580
Flags: W
LayerCount: 2
Fore
SplineSet
542 316 m 2,0,-1
 542 269 l 2,1,2
 542 233 542 233 521 201.5 c 128,-1,3
 500 170 500 170 475 161 c 1,4,5
 496 155 496 155 509 134.5 c 128,-1,6
 522 114 522 114 522 92 c 2,7,-1
 522 30 l 2,8,9
 522 -17 522 -17 501 -48 c 128,-1,10
 480 -79 480 -79 440.5 -92.5 c 128,-1,11
 401 -106 401 -106 363 -110.5 c 128,-1,12
 325 -115 325 -115 272 -115 c 0,13,14
 190 -115 190 -115 68 -101 c 1,15,-1
 68 8 l 1,16,17
 190 -13 190 -13 274 -13 c 0,18,19
 298 -13 298 -13 312.5 -12 c 128,-1,20
 327 -11 327 -11 344 -7.5 c 128,-1,21
 361 -4 361 -4 369 4.5 c 128,-1,22
 377 13 377 13 377 26 c 2,23,-1
 377 74 l 2,24,25
 377 81 377 81 375.5 86 c 128,-1,26
 374 91 374 91 369 97.5 c 128,-1,27
 364 104 364 104 350.5 107.5 c 128,-1,28
 337 111 337 111 316 111 c 2,29,-1
 229 111 l 2,30,31
 141 111 141 111 89.5 142.5 c 128,-1,32
 38 174 38 174 38 237 c 2,33,-1
 38 317 l 2,34,35
 38 342 38 342 58 366.5 c 128,-1,36
 78 391 78 391 104 400 c 1,37,38
 85 410 85 410 71.5 430.5 c 128,-1,39
 58 451 58 451 58 471 c 2,40,-1
 58 537 l 2,41,42
 58 604 58 604 123.5 631.5 c 128,-1,43
 189 659 189 659 312 659 c 0,44,45
 335 659 335 659 497 650 c 1,46,-1
 497 548 l 1,47,48
 337 560 337 560 308 560 c 0,49,50
 260 560 260 560 235 554 c 128,-1,51
 210 548 210 548 206.5 543 c 128,-1,52
 203 538 203 538 203 529 c 2,53,-1
 203 478 l 2,54,55
 203 449 203 449 265 449 c 2,56,-1
 360 449 l 2,57,58
 448 449 448 449 495 415.5 c 128,-1,59
 542 382 542 382 542 316 c 2,0,-1
397 245 m 2,60,-1
 397 317 l 2,61,62
 397 345 397 345 326 345 c 2,63,-1
 217 345 l 2,64,65
 183 345 183 345 183 319 c 2,66,-1
 183 235 l 2,67,68
 183 216 183 216 238 216 c 2,69,-1
 342 216 l 2,70,71
 377 216 377 216 387 222.5 c 128,-1,72
 397 229 397 229 397 245 c 2,60,-1
EndSplineSet
EndChar

StartChar: dieresis
Encoding: 168 168 105
Width: 400
Flags: W
LayerCount: 2
Fore
SplineSet
358 565 m 1,0,-1
 232 565 l 1,1,-1
 232 683 l 1,2,-1
 358 683 l 1,3,-1
 358 565 l 1,0,-1
168 565 m 1,4,-1
 42 565 l 1,5,-1
 42 683 l 1,6,-1
 168 683 l 1,7,-1
 168 565 l 1,4,-1
EndSplineSet
EndChar

StartChar: copyright
Encoding: 169 169 106
Width: 777
Flags: W
LayerCount: 2
Fore
SplineSet
727 474 m 2,0,-1
 727 166 l 2,1,2
 727 123 727 123 703 90 c 128,-1,3
 679 57 679 57 643 39 c 128,-1,4
 607 21 607 21 559.5 9 c 128,-1,5
 512 -3 512 -3 472 -6.5 c 128,-1,6
 432 -10 432 -10 392 -10 c 0,7,8
 351 -10 351 -10 310.5 -6.5 c 128,-1,9
 270 -3 270 -3 221 8.5 c 128,-1,10
 172 20 172 20 135.5 38.5 c 128,-1,11
 99 57 99 57 74.5 90 c 128,-1,12
 50 123 50 123 50 166 c 2,13,-1
 50 473 l 2,14,15
 50 512 50 512 67 543 c 128,-1,16
 84 574 84 574 114 593.5 c 128,-1,17
 144 613 144 613 178.5 626.5 c 128,-1,18
 213 640 213 640 254 647 c 128,-1,19
 295 654 295 654 327.5 656.5 c 128,-1,20
 360 659 360 659 392 659 c 0,21,22
 433 659 433 659 472.5 655.5 c 128,-1,23
 512 652 512 652 560 640 c 128,-1,24
 608 628 608 628 643.5 609 c 128,-1,25
 679 590 679 590 703 555 c 128,-1,26
 727 520 727 520 727 474 c 2,0,-1
618 174 m 2,27,-1
 618 471 l 2,28,29
 618 581 618 581 393 581 c 0,30,31
 158 581 158 581 158 471 c 2,32,-1
 158 174 l 2,33,34
 158 72 158 72 394 72 c 0,35,36
 425 72 425 72 447 73 c 128,-1,37
 469 74 469 74 504 79.5 c 128,-1,38
 539 85 539 85 561.5 95 c 128,-1,39
 584 105 584 105 601 125.5 c 128,-1,40
 618 146 618 146 618 174 c 2,27,-1
541 291 m 1,41,-1
 541 263 l 2,42,43
 541 206 541 206 510 179 c 128,-1,44
 479 152 479 152 392 152 c 0,45,46
 303 152 303 152 268 177.5 c 128,-1,47
 233 203 233 203 233 273 c 2,48,-1
 233 389 l 2,49,50
 233 450 233 450 270.5 480 c 128,-1,51
 308 510 308 510 392 510 c 128,-1,52
 476 510 476 510 508.5 483.5 c 128,-1,53
 541 457 541 457 541 399 c 2,54,-1
 541 372 l 1,55,-1
 438 372 l 1,56,-1
 438 391 l 2,57,58
 438 419 438 419 430 426.5 c 128,-1,59
 422 434 422 434 389 434 c 0,60,61
 362 434 362 434 351.5 424 c 128,-1,62
 341 414 341 414 341 381 c 2,63,-1
 341 281 l 2,64,65
 341 246 341 246 349.5 237 c 128,-1,66
 358 228 358 228 389 228 c 0,67,68
 422 228 422 228 430 234.5 c 128,-1,69
 438 241 438 241 438 271 c 2,70,-1
 438 291 l 1,71,-1
 541 291 l 1,41,-1
EndSplineSet
EndChar

StartChar: ordfeminine
Encoding: 170 170 107
Width: 327
Flags: W
LayerCount: 2
Fore
SplineSet
288 412 m 1,0,-1
 206 412 l 1,1,-1
 206 434 l 1,2,3
 197 419 197 419 182 413 c 128,-1,4
 167 407 167 407 128 407 c 0,5,6
 78 407 78 407 57.5 422.5 c 128,-1,7
 37 438 37 438 37 484 c 0,8,9
 37 526 37 526 57.5 543.5 c 128,-1,10
 78 561 78 561 122 561 c 2,11,-1
 204 561 l 1,12,-1
 204 592 l 2,13,14
 204 604 204 604 196 608.5 c 128,-1,15
 188 613 188 613 166 613 c 2,16,-1
 56 609 l 1,17,-1
 56 655 l 1,18,19
 140 659 140 659 173 659 c 0,20,21
 235 659 235 659 261.5 641 c 128,-1,22
 288 623 288 623 288 578 c 2,23,-1
 288 412 l 1,0,-1
204 469 m 2,24,-1
 204 521 l 1,25,-1
 154 521 l 2,26,27
 131 521 131 521 124.5 514 c 128,-1,28
 118 507 118 507 118 483 c 128,-1,29
 118 459 118 459 124.5 453.5 c 128,-1,30
 131 448 131 448 157 448 c 0,31,32
 185 448 185 448 194.5 451 c 128,-1,33
 204 454 204 454 204 469 c 2,24,-1
EndSplineSet
Substitution2: "<3,3> Small Caps in Latin lookup 11 subtable" ordfeminine.smcp
EndChar

StartChar: guillemotleft
Encoding: 171 171 108
Width: 526
Flags: W
LayerCount: 2
Fore
SplineSet
266 70 m 1,0,-1
 140 70 l 1,1,-1
 40 262 l 1,2,-1
 140 454 l 1,3,-1
 266 454 l 1,4,-1
 174 262 l 1,5,-1
 266 70 l 1,0,-1
486 70 m 1,6,-1
 360 70 l 1,7,-1
 260 262 l 1,8,-1
 360 454 l 1,9,-1
 486 454 l 1,10,-1
 394 262 l 1,11,-1
 486 70 l 1,6,-1
EndSplineSet
EndChar

StartChar: logicalnot
Encoding: 172 172 109
Width: 580
Flags: W
LayerCount: 2
Fore
SplineSet
70 365 m 1,0,-1
 510 365 l 1,1,-1
 510 84 l 1,2,-1
 409 84 l 1,3,-1
 409 264 l 1,4,-1
 70 264 l 1,5,-1
 70 365 l 1,0,-1
EndSplineSet
EndChar

StartChar: registered
Encoding: 174 174 111
Width: 777
Flags: W
LayerCount: 2
Fore
SplineSet
727 474 m 2,0,-1
 727 166 l 2,1,2
 727 123 727 123 703 90 c 128,-1,3
 679 57 679 57 643 39 c 128,-1,4
 607 21 607 21 559.5 9 c 128,-1,5
 512 -3 512 -3 472 -6.5 c 128,-1,6
 432 -10 432 -10 392 -10 c 0,7,8
 351 -10 351 -10 310.5 -6.5 c 128,-1,9
 270 -3 270 -3 221 8.5 c 128,-1,10
 172 20 172 20 135.5 38.5 c 128,-1,11
 99 57 99 57 74.5 90 c 128,-1,12
 50 123 50 123 50 166 c 2,13,-1
 50 473 l 2,14,15
 50 512 50 512 67 543 c 128,-1,16
 84 574 84 574 114 593.5 c 128,-1,17
 144 613 144 613 178.5 626.5 c 128,-1,18
 213 640 213 640 254 647 c 128,-1,19
 295 654 295 654 327.5 656.5 c 128,-1,20
 360 659 360 659 392 659 c 0,21,22
 433 659 433 659 472.5 655.5 c 128,-1,23
 512 652 512 652 560 640 c 128,-1,24
 608 628 608 628 643.5 609 c 128,-1,25
 679 590 679 590 703 555 c 128,-1,26
 727 520 727 520 727 474 c 2,0,-1
618 174 m 2,27,-1
 618 471 l 2,28,29
 618 581 618 581 393 581 c 0,30,31
 158 581 158 581 158 471 c 2,32,-1
 158 174 l 2,33,34
 158 72 158 72 394 72 c 0,35,36
 425 72 425 72 447 73 c 128,-1,37
 469 74 469 74 504 79.5 c 128,-1,38
 539 85 539 85 561.5 95 c 128,-1,39
 584 105 584 105 601 125.5 c 128,-1,40
 618 146 618 146 618 174 c 2,27,-1
549 140 m 1,41,-1
 443 140 l 1,42,-1
 371 286 l 1,43,-1
 349 286 l 1,44,-1
 349 140 l 1,45,-1
 251 140 l 1,46,-1
 251 509 l 1,47,-1
 398 509 l 2,48,49
 478 509 478 509 506.5 493 c 128,-1,50
 535 477 535 477 535 433 c 2,51,-1
 535 368 l 2,52,53
 535 333 535 333 517.5 317.5 c 128,-1,54
 500 302 500 302 464 293 c 1,55,-1
 549 140 l 1,41,-1
437 383 m 2,56,-1
 437 417 l 2,57,58
 437 438 437 438 429.5 444.5 c 128,-1,59
 422 451 422 451 401 451 c 2,60,-1
 349 451 l 1,61,-1
 349 344 l 1,62,-1
 396 344 l 2,63,64
 423 344 423 344 430 351 c 128,-1,65
 437 358 437 358 437 383 c 2,56,-1
EndSplineSet
EndChar

StartChar: macron
Encoding: 175 175 112
Width: 400
Flags: W
LayerCount: 2
Fore
SplineSet
339 560 m 1,0,-1
 61 560 l 1,1,-1
 61 649 l 1,2,-1
 339 649 l 1,3,-1
 339 560 l 1,0,-1
EndSplineSet
EndChar

StartChar: degree
Encoding: 176 176 113
Width: 454
Flags: W
LayerCount: 2
Fore
SplineSet
414 543 m 2,0,-1
 414 434 l 2,1,2
 414 397 414 397 399.5 373 c 128,-1,3
 385 349 385 349 356.5 338 c 128,-1,4
 328 327 328 327 298.5 323 c 128,-1,5
 269 319 269 319 227 319 c 128,-1,6
 185 319 185 319 155.5 323 c 128,-1,7
 126 327 126 327 97.5 338 c 128,-1,8
 69 349 69 349 54.5 373 c 128,-1,9
 40 397 40 397 40 434 c 2,10,-1
 40 543 l 2,11,12
 40 577 40 577 53 600.5 c 128,-1,13
 66 624 66 624 82.5 635.5 c 128,-1,14
 99 647 99 647 129 653 c 128,-1,15
 159 659 159 659 177 660 c 128,-1,16
 195 661 195 661 227 661 c 128,-1,17
 259 661 259 661 277 660 c 128,-1,18
 295 659 295 659 325 653 c 128,-1,19
 355 647 355 647 371.5 635.5 c 128,-1,20
 388 624 388 624 401 600.5 c 128,-1,21
 414 577 414 577 414 543 c 2,0,-1
303 434 m 2,22,-1
 303 541 l 2,23,24
 303 568 303 568 288 576.5 c 128,-1,25
 273 585 273 585 227 585 c 128,-1,26
 181 585 181 585 166 576.5 c 128,-1,27
 151 568 151 568 151 541 c 2,28,-1
 151 434 l 2,29,30
 151 412 151 412 166.5 403.5 c 128,-1,31
 182 395 182 395 227 395 c 128,-1,32
 272 395 272 395 287.5 403.5 c 128,-1,33
 303 412 303 412 303 434 c 2,22,-1
EndSplineSet
EndChar

StartChar: plusminus
Encoding: 177 177 114
Width: 580
Flags: W
LayerCount: 2
Fore
SplineSet
510 0 m 1,0,-1
 70 0 l 1,1,-1
 70 101 l 1,2,-1
 510 101 l 1,3,-1
 510 0 l 1,0,-1
340 544 m 1,4,-1
 340 365 l 1,5,-1
 510 365 l 1,6,-1
 510 264 l 1,7,-1
 340 264 l 1,8,-1
 340 134 l 1,9,-1
 239 134 l 1,10,-1
 239 264 l 1,11,-1
 70 264 l 1,12,-1
 70 365 l 1,13,-1
 239 365 l 1,14,-1
 239 544 l 1,15,-1
 340 544 l 1,4,-1
EndSplineSet
EndChar

StartChar: twosuperior
Encoding: 178 178 115
Width: 378
Flags: W
LayerCount: 2
Fore
SplineSet
340 273 m 1,0,-1
 27 273 l 1,1,-1
 27 361 l 2,2,3
 27 394 27 394 46.5 418 c 128,-1,4
 66 442 66 442 94 454 c 128,-1,5
 122 466 122 466 150 475 c 128,-1,6
 178 484 178 484 197.5 494 c 128,-1,7
 217 504 217 504 217 518 c 2,8,-1
 217 556 l 2,9,10
 217 577 217 577 162 577 c 0,11,12
 134 577 134 577 35 560 c 1,13,-1
 35 642 l 1,14,15
 115 655 115 655 180 655 c 0,16,17
 259 655 259 655 299 633 c 128,-1,18
 339 611 339 611 339 557 c 2,19,-1
 339 515 l 2,20,21
 339 475 339 475 308.5 449 c 128,-1,22
 278 423 278 423 241.5 414 c 128,-1,23
 205 405 205 405 174.5 391 c 128,-1,24
 144 377 144 377 144 358 c 2,25,-1
 144 353 l 1,26,-1
 340 353 l 1,27,-1
 340 273 l 1,0,-1
EndSplineSet
Substitution2: "<11,2> Diagonal Fractions lookup 7 nested-substitutions 0 subtable" twoinferior
Substitution2: "<10,2> Inferiors lookup 3 subtable" two.sinf
Substitution2: "<10,1> Superiors lookup 2 subtable" two.sups
EndChar

StartChar: threesuperior
Encoding: 179 179 116
Width: 378
Flags: W
LayerCount: 2
Fore
SplineSet
333 419 m 2,0,-1
 333 368 l 2,1,2
 333 314 333 314 293.5 291.5 c 128,-1,3
 254 269 254 269 171 269 c 0,4,5
 107 269 107 269 51 276 c 0,6,7
 47 276 47 276 35.5 277 c 128,-1,8
 24 278 24 278 22 278 c 1,9,-1
 22 366 l 1,10,-1
 52 360 l 2,11,12
 117 347 117 347 159 347 c 0,13,14
 188 347 188 347 199.5 353 c 128,-1,15
 211 359 211 359 211 377 c 2,16,-1
 211 411 l 2,17,18
 211 429 211 429 160 429 c 2,19,-1
 73 429 l 1,20,-1
 73 504 l 1,21,-1
 160 504 l 2,22,23
 196 504 196 504 196 529 c 2,24,-1
 196 557 l 2,25,26
 196 570 196 570 187 575 c 128,-1,27
 178 580 178 580 149 580 c 0,28,29
 104 580 104 580 24 572 c 1,30,-1
 24 650 l 1,31,-1
 66 652 l 1,32,33
 104 655 104 655 158 655 c 0,34,35
 240 655 240 655 278.5 638 c 128,-1,36
 317 621 317 621 317 573 c 2,37,-1
 317 520 l 2,38,39
 317 495 317 495 291 476 c 1,40,41
 333 457 333 457 333 419 c 2,0,-1
EndSplineSet
Substitution2: "<11,2> Diagonal Fractions lookup 7 nested-substitutions 0 subtable" threeinferior
Substitution2: "<10,2> Inferiors lookup 3 subtable" three.sinf
Substitution2: "<10,1> Superiors lookup 2 subtable" three.sups
EndChar

StartChar: acute
Encoding: 180 180 117
Width: 400
Flags: W
LayerCount: 2
Fore
SplineSet
324 680 m 1,0,-1
 199 553 l 1,1,-1
 75 553 l 1,2,-1
 165 680 l 1,3,-1
 324 680 l 1,0,-1
EndSplineSet
EndChar

StartChar: mu
Encoding: 181 181 118
AltUni2: 0003bc.ffffffff.0
Width: 595
Flags: W
LayerCount: 2
Fore
SplineSet
531 0 m 1,0,-1
 387 0 l 1,1,-1
 387 59 l 1,2,3
 370 -10 370 -10 232 -10 c 0,4,5
 224 -10 224 -10 210 -8 c 1,6,-1
 210 -208 l 1,7,-1
 64 -208 l 1,8,-1
 64 484 l 1,9,-1
 210 484 l 1,10,-1
 210 149 l 2,11,12
 210 109 210 109 223.5 95 c 128,-1,13
 237 81 237 81 288 81 c 0,14,15
 351 81 351 81 368 94.5 c 128,-1,16
 385 108 385 108 385 149 c 2,17,-1
 385 484 l 1,18,-1
 531 484 l 1,19,-1
 531 0 l 1,0,-1
EndSplineSet
EndChar

StartChar: paragraph
Encoding: 182 182 119
Width: 459
Flags: W
LayerCount: 2
Fore
SplineSet
419 633 m 1,0,-1
 396 616 l 2,1,2
 375 600 375 600 375 579 c 2,3,-1
 375 0 l 1,4,-1
 322 0 l 1,5,-1
 322 606 l 1,6,-1
 252 606 l 1,7,-1
 252 0 l 1,8,-1
 199 0 l 1,9,-1
 199 352 l 1,10,11
 99 352 99 352 69.5 379.5 c 128,-1,12
 40 407 40 407 40 501 c 0,13,14
 40 587 40 587 62.5 618 c 128,-1,15
 85 649 85 649 147 649 c 2,16,-1
 419 649 l 1,17,-1
 419 633 l 1,0,-1
EndSplineSet
EndChar

StartChar: periodcentered
Encoding: 183 183 120
Width: 256
Flags: W
LayerCount: 2
Fore
SplineSet
197 262 m 1,0,-1
 50 262 l 1,1,-1
 50 400 l 1,2,-1
 197 400 l 1,3,-1
 197 262 l 1,0,-1
EndSplineSet
EndChar

StartChar: cedilla
Encoding: 184 184 121
Width: 251
Flags: W
LayerCount: 2
Fore
SplineSet
102 0 m 1,0,-1
 172 0 l 1,1,-1
 136 -50 l 1,2,3
 177 -53 177 -53 205 -71.5 c 128,-1,4
 233 -90 233 -90 233 -129 c 0,5,6
 233 -174 233 -174 196.5 -197 c 128,-1,7
 160 -220 160 -220 113 -220 c 0,8,9
 56 -220 56 -220 22 -197 c 1,10,-1
 44 -151 l 1,11,12
 74 -169 74 -169 106 -169 c 0,13,14
 153 -169 153 -169 153 -134 c 0,15,16
 153 -96 153 -96 78 -96 c 2,17,-1
 38 -96 l 1,18,19
 40 -92 40 -92 70 -48 c 128,-1,20
 100 -4 100 -4 102 0 c 1,0,-1
EndSplineSet
EndChar

StartChar: onesuperior
Encoding: 185 185 122
Width: 378
Flags: W
LayerCount: 2
Fore
SplineSet
272 273 m 1,0,-1
 153 273 l 1,1,-1
 153 536 l 1,2,-1
 42 479 l 1,3,-1
 42 571 l 1,4,-1
 179 649 l 1,5,-1
 272 649 l 1,6,-1
 272 273 l 1,0,-1
EndSplineSet
Substitution2: "<11,2> Diagonal Fractions lookup 7 nested-substitutions 0 subtable" oneinferior
Substitution2: "<10,2> Inferiors lookup 3 subtable" one.sinf
Substitution2: "<10,1> Superiors lookup 2 subtable" one.sups
EndChar

StartChar: ordmasculine
Encoding: 186 186 123
Width: 347
Flags: W
LayerCount: 2
Fore
SplineSet
308 566 m 2,0,-1
 308 495 l 2,1,2
 308 466 308 466 296 447 c 128,-1,3
 284 428 284 428 262 420 c 128,-1,4
 240 412 240 412 220.5 409.5 c 128,-1,5
 201 407 201 407 174 407 c 128,-1,6
 147 407 147 407 127.5 409.5 c 128,-1,7
 108 412 108 412 86 420 c 128,-1,8
 64 428 64 428 52 447 c 128,-1,9
 40 466 40 466 40 495 c 2,10,-1
 40 566 l 2,11,12
 40 597 40 597 52 617 c 128,-1,13
 64 637 64 637 86.5 645.5 c 128,-1,14
 109 654 109 654 128.5 656.5 c 128,-1,15
 148 659 148 659 174 659 c 128,-1,16
 200 659 200 659 219.5 656.5 c 128,-1,17
 239 654 239 654 261.5 645.5 c 128,-1,18
 284 637 284 637 296 617 c 128,-1,19
 308 597 308 597 308 566 c 2,0,-1
224 483 m 2,20,-1
 224 580 l 2,21,22
 224 600 224 600 214 608 c 128,-1,23
 204 616 204 616 174 616 c 128,-1,24
 144 616 144 616 134 608 c 128,-1,25
 124 600 124 600 124 580 c 2,26,-1
 124 483 l 2,27,28
 124 464 124 464 133.5 457.5 c 128,-1,29
 143 451 143 451 174 451 c 128,-1,30
 205 451 205 451 214.5 457.5 c 128,-1,31
 224 464 224 464 224 483 c 2,20,-1
EndSplineSet
Substitution2: "<3,3> Small Caps in Latin lookup 11 subtable" ordmasculine.smcp
EndChar

StartChar: guillemotright
Encoding: 187 187 124
Width: 526
Flags: W
LayerCount: 2
Fore
SplineSet
266 262 m 1,0,-1
 166 70 l 1,1,-1
 40 70 l 1,2,-1
 132 262 l 1,3,-1
 40 454 l 1,4,-1
 166 454 l 1,5,-1
 266 262 l 1,0,-1
486 262 m 1,6,-1
 386 70 l 1,7,-1
 260 70 l 1,8,-1
 352 262 l 1,9,-1
 260 454 l 1,10,-1
 386 454 l 1,11,-1
 486 262 l 1,6,-1
EndSplineSet
EndChar

StartChar: onequarter
Encoding: 188 188 125
Width: 956
Flags: W
LayerCount: 2
Fore
SplineSet
344 273 m 1,0,-1
 225 273 l 1,1,-1
 225 536 l 1,2,-1
 114 479 l 1,3,-1
 114 571 l 1,4,-1
 251 649 l 1,5,-1
 344 649 l 1,6,-1
 344 273 l 1,0,-1
232 0 m 1,7,-1
 624 649 l 1,8,-1
 725 649 l 1,9,-1
 333 0 l 1,10,-1
 232 0 l 1,7,-1
903 68 m 1,11,-1
 860 68 l 1,12,-1
 860 0 l 1,13,-1
 750 0 l 1,14,-1
 750 68 l 1,15,-1
 562 68 l 1,16,-1
 562 144 l 1,17,-1
 735 376 l 1,18,-1
 860 376 l 1,19,-1
 860 146 l 1,20,-1
 903 146 l 1,21,-1
 903 68 l 1,11,-1
750 146 m 1,22,-1
 750 267 l 1,23,-1
 664 146 l 1,24,-1
 750 146 l 1,22,-1
EndSplineSet
Ligature2: "<11,2> Diagonal Fractions lookup 5 subtable" one.alt fraction four.alt
Ligature2: "<11,2> Diagonal Fractions lookup 5 subtable" one.alt fraction four.sinf
Ligature2: "<11,2> Diagonal Fractions lookup 5 subtable" one.alt fraction four.sups
Ligature2: "<11,2> Diagonal Fractions lookup 5 subtable" one.alt fraction fourinferior
Ligature2: "<11,2> Diagonal Fractions lookup 5 subtable" one.alt fraction foursuperior
Ligature2: "<11,2> Diagonal Fractions lookup 5 subtable" one.alt fraction four
Ligature2: "<11,2> Diagonal Fractions lookup 5 subtable" one.sinf fraction four.alt
Ligature2: "<11,2> Diagonal Fractions lookup 5 subtable" one.sinf fraction four.sinf
Ligature2: "<11,2> Diagonal Fractions lookup 5 subtable" one.sinf fraction four.sups
Ligature2: "<11,2> Diagonal Fractions lookup 5 subtable" one.sinf fraction fourinferior
Ligature2: "<11,2> Diagonal Fractions lookup 5 subtable" one.sinf fraction foursuperior
Ligature2: "<11,2> Diagonal Fractions lookup 5 subtable" one.sinf fraction four
Ligature2: "<11,2> Diagonal Fractions lookup 5 subtable" one.sups fraction four.alt
Ligature2: "<11,2> Diagonal Fractions lookup 5 subtable" one.sups fraction four.sinf
Ligature2: "<11,2> Diagonal Fractions lookup 5 subtable" one.sups fraction four.sups
Ligature2: "<11,2> Diagonal Fractions lookup 5 subtable" one.sups fraction fourinferior
Ligature2: "<11,2> Diagonal Fractions lookup 5 subtable" one.sups fraction foursuperior
Ligature2: "<11,2> Diagonal Fractions lookup 5 subtable" one.sups fraction four
Ligature2: "<11,2> Diagonal Fractions lookup 5 subtable" oneinferior fraction four.alt
Ligature2: "<11,2> Diagonal Fractions lookup 5 subtable" oneinferior fraction four.sinf
Ligature2: "<11,2> Diagonal Fractions lookup 5 subtable" oneinferior fraction four.sups
Ligature2: "<11,2> Diagonal Fractions lookup 5 subtable" oneinferior fraction fourinferior
Ligature2: "<11,2> Diagonal Fractions lookup 5 subtable" oneinferior fraction foursuperior
Ligature2: "<11,2> Diagonal Fractions lookup 5 subtable" oneinferior fraction four
Ligature2: "<11,2> Diagonal Fractions lookup 5 subtable" onesuperior fraction four.alt
Ligature2: "<11,2> Diagonal Fractions lookup 5 subtable" onesuperior fraction four.sinf
Ligature2: "<11,2> Diagonal Fractions lookup 5 subtable" onesuperior fraction four.sups
Ligature2: "<11,2> Diagonal Fractions lookup 5 subtable" onesuperior fraction fourinferior
Ligature2: "<11,2> Diagonal Fractions lookup 5 subtable" onesuperior fraction foursuperior
Ligature2: "<11,2> Diagonal Fractions lookup 5 subtable" onesuperior fraction four
Ligature2: "<11,2> Diagonal Fractions lookup 5 subtable" one fraction four.alt
Ligature2: "<11,2> Diagonal Fractions lookup 5 subtable" one fraction four.sinf
Ligature2: "<11,2> Diagonal Fractions lookup 5 subtable" one fraction four.sups
Ligature2: "<11,2> Diagonal Fractions lookup 5 subtable" one fraction fourinferior
Ligature2: "<11,2> Diagonal Fractions lookup 5 subtable" one fraction foursuperior
Ligature2: "<11,2> Diagonal Fractions lookup 5 subtable" one fraction four
EndChar

StartChar: onehalf
Encoding: 189 189 126
Width: 956
Flags: W
LayerCount: 2
Fore
SplineSet
344 273 m 1,0,-1
 225 273 l 1,1,-1
 225 536 l 1,2,-1
 114 479 l 1,3,-1
 114 571 l 1,4,-1
 251 649 l 1,5,-1
 344 649 l 1,6,-1
 344 273 l 1,0,-1
232 0 m 1,7,-1
 624 649 l 1,8,-1
 725 649 l 1,9,-1
 333 0 l 1,10,-1
 232 0 l 1,7,-1
894 0 m 1,11,-1
 581 0 l 1,12,-1
 581 88 l 2,13,14
 581 121 581 121 600.5 145 c 128,-1,15
 620 169 620 169 648 181 c 128,-1,16
 676 193 676 193 704 202 c 128,-1,17
 732 211 732 211 751.5 221 c 128,-1,18
 771 231 771 231 771 245 c 2,19,-1
 771 283 l 2,20,21
 771 304 771 304 716 304 c 0,22,23
 688 304 688 304 589 287 c 1,24,-1
 589 369 l 1,25,26
 669 382 669 382 734 382 c 0,27,28
 813 382 813 382 853 360 c 128,-1,29
 893 338 893 338 893 284 c 2,30,-1
 893 242 l 2,31,32
 893 202 893 202 862.5 176 c 128,-1,33
 832 150 832 150 795.5 141 c 128,-1,34
 759 132 759 132 728.5 118 c 128,-1,35
 698 104 698 104 698 85 c 2,36,-1
 698 80 l 1,37,-1
 894 80 l 1,38,-1
 894 0 l 1,11,-1
EndSplineSet
Ligature2: "<11,2> Diagonal Fractions lookup 5 subtable" one.alt fraction two.alt
Ligature2: "<11,2> Diagonal Fractions lookup 5 subtable" one.alt fraction two.sinf
Ligature2: "<11,2> Diagonal Fractions lookup 5 subtable" one.alt fraction two.sups
Ligature2: "<11,2> Diagonal Fractions lookup 5 subtable" one.alt fraction twoinferior
Ligature2: "<11,2> Diagonal Fractions lookup 5 subtable" one.alt fraction twosuperior
Ligature2: "<11,2> Diagonal Fractions lookup 5 subtable" one.alt fraction two
Ligature2: "<11,2> Diagonal Fractions lookup 5 subtable" one.sinf fraction two.alt
Ligature2: "<11,2> Diagonal Fractions lookup 5 subtable" one.sinf fraction two.sinf
Ligature2: "<11,2> Diagonal Fractions lookup 5 subtable" one.sinf fraction two.sups
Ligature2: "<11,2> Diagonal Fractions lookup 5 subtable" one.sinf fraction twoinferior
Ligature2: "<11,2> Diagonal Fractions lookup 5 subtable" one.sinf fraction twosuperior
Ligature2: "<11,2> Diagonal Fractions lookup 5 subtable" one.sinf fraction two
Ligature2: "<11,2> Diagonal Fractions lookup 5 subtable" one.sups fraction two.alt
Ligature2: "<11,2> Diagonal Fractions lookup 5 subtable" one.sups fraction two.sinf
Ligature2: "<11,2> Diagonal Fractions lookup 5 subtable" one.sups fraction two.sups
Ligature2: "<11,2> Diagonal Fractions lookup 5 subtable" one.sups fraction twoinferior
Ligature2: "<11,2> Diagonal Fractions lookup 5 subtable" one.sups fraction twosuperior
Ligature2: "<11,2> Diagonal Fractions lookup 5 subtable" one.sups fraction two
Ligature2: "<11,2> Diagonal Fractions lookup 5 subtable" oneinferior fraction two.alt
Ligature2: "<11,2> Diagonal Fractions lookup 5 subtable" oneinferior fraction two.sinf
Ligature2: "<11,2> Diagonal Fractions lookup 5 subtable" oneinferior fraction two.sups
Ligature2: "<11,2> Diagonal Fractions lookup 5 subtable" oneinferior fraction twoinferior
Ligature2: "<11,2> Diagonal Fractions lookup 5 subtable" oneinferior fraction twosuperior
Ligature2: "<11,2> Diagonal Fractions lookup 5 subtable" oneinferior fraction two
Ligature2: "<11,2> Diagonal Fractions lookup 5 subtable" onesuperior fraction two.alt
Ligature2: "<11,2> Diagonal Fractions lookup 5 subtable" onesuperior fraction two.sinf
Ligature2: "<11,2> Diagonal Fractions lookup 5 subtable" onesuperior fraction two.sups
Ligature2: "<11,2> Diagonal Fractions lookup 5 subtable" onesuperior fraction twoinferior
Ligature2: "<11,2> Diagonal Fractions lookup 5 subtable" onesuperior fraction twosuperior
Ligature2: "<11,2> Diagonal Fractions lookup 5 subtable" onesuperior fraction two
Ligature2: "<11,2> Diagonal Fractions lookup 5 subtable" one fraction two.alt
Ligature2: "<11,2> Diagonal Fractions lookup 5 subtable" one fraction two.sinf
Ligature2: "<11,2> Diagonal Fractions lookup 5 subtable" one fraction two.sups
Ligature2: "<11,2> Diagonal Fractions lookup 5 subtable" one fraction twoinferior
Ligature2: "<11,2> Diagonal Fractions lookup 5 subtable" one fraction twosuperior
Ligature2: "<11,2> Diagonal Fractions lookup 5 subtable" one fraction two
EndChar

StartChar: threequarters
Encoding: 190 190 127
Width: 956
Flags: W
LayerCount: 2
Fore
SplineSet
333 419 m 2,0,-1
 333 368 l 2,1,2
 333 314 333 314 293.5 291.5 c 128,-1,3
 254 269 254 269 171 269 c 0,4,5
 107 269 107 269 51 276 c 0,6,7
 47 276 47 276 35.5 277 c 128,-1,8
 24 278 24 278 22 278 c 1,9,-1
 22 366 l 1,10,-1
 52 360 l 2,11,12
 117 347 117 347 159 347 c 0,13,14
 188 347 188 347 199.5 353 c 128,-1,15
 211 359 211 359 211 377 c 2,16,-1
 211 411 l 2,17,18
 211 429 211 429 160 429 c 2,19,-1
 73 429 l 1,20,-1
 73 504 l 1,21,-1
 160 504 l 2,22,23
 196 504 196 504 196 529 c 2,24,-1
 196 557 l 2,25,26
 196 570 196 570 187 575 c 128,-1,27
 178 580 178 580 149 580 c 0,28,29
 104 580 104 580 24 572 c 1,30,-1
 24 650 l 1,31,-1
 66 652 l 1,32,33
 104 655 104 655 158 655 c 0,34,35
 240 655 240 655 278.5 638 c 128,-1,36
 317 621 317 621 317 573 c 2,37,-1
 317 520 l 2,38,39
 317 495 317 495 291 476 c 1,40,41
 333 457 333 457 333 419 c 2,0,-1
903 68 m 1,42,-1
 860 68 l 1,43,-1
 860 0 l 1,44,-1
 750 0 l 1,45,-1
 750 68 l 1,46,-1
 562 68 l 1,47,-1
 562 144 l 1,48,-1
 735 376 l 1,49,-1
 860 376 l 1,50,-1
 860 146 l 1,51,-1
 903 146 l 1,52,-1
 903 68 l 1,42,-1
750 146 m 1,53,-1
 750 267 l 1,54,-1
 664 146 l 1,55,-1
 750 146 l 1,53,-1
232 0 m 1,56,-1
 624 649 l 1,57,-1
 725 649 l 1,58,-1
 333 0 l 1,59,-1
 232 0 l 1,56,-1
EndSplineSet
Ligature2: "<11,2> Diagonal Fractions lookup 5 subtable" three.alt fraction four.alt
Ligature2: "<11,2> Diagonal Fractions lookup 5 subtable" three.alt fraction four.sinf
Ligature2: "<11,2> Diagonal Fractions lookup 5 subtable" three.alt fraction four.sups
Ligature2: "<11,2> Diagonal Fractions lookup 5 subtable" three.alt fraction fourinferior
Ligature2: "<11,2> Diagonal Fractions lookup 5 subtable" three.alt fraction foursuperior
Ligature2: "<11,2> Diagonal Fractions lookup 5 subtable" three.alt fraction four
Ligature2: "<11,2> Diagonal Fractions lookup 5 subtable" three.sinf fraction four.alt
Ligature2: "<11,2> Diagonal Fractions lookup 5 subtable" three.sinf fraction four.sinf
Ligature2: "<11,2> Diagonal Fractions lookup 5 subtable" three.sinf fraction four.sups
Ligature2: "<11,2> Diagonal Fractions lookup 5 subtable" three.sinf fraction fourinferior
Ligature2: "<11,2> Diagonal Fractions lookup 5 subtable" three.sinf fraction foursuperior
Ligature2: "<11,2> Diagonal Fractions lookup 5 subtable" three.sinf fraction four
Ligature2: "<11,2> Diagonal Fractions lookup 5 subtable" three.sups fraction four.alt
Ligature2: "<11,2> Diagonal Fractions lookup 5 subtable" three.sups fraction four.sinf
Ligature2: "<11,2> Diagonal Fractions lookup 5 subtable" three.sups fraction four.sups
Ligature2: "<11,2> Diagonal Fractions lookup 5 subtable" three.sups fraction fourinferior
Ligature2: "<11,2> Diagonal Fractions lookup 5 subtable" three.sups fraction foursuperior
Ligature2: "<11,2> Diagonal Fractions lookup 5 subtable" three.sups fraction four
Ligature2: "<11,2> Diagonal Fractions lookup 5 subtable" threeinferior fraction four.alt
Ligature2: "<11,2> Diagonal Fractions lookup 5 subtable" threeinferior fraction four.sinf
Ligature2: "<11,2> Diagonal Fractions lookup 5 subtable" threeinferior fraction four.sups
Ligature2: "<11,2> Diagonal Fractions lookup 5 subtable" threeinferior fraction fourinferior
Ligature2: "<11,2> Diagonal Fractions lookup 5 subtable" threeinferior fraction foursuperior
Ligature2: "<11,2> Diagonal Fractions lookup 5 subtable" threeinferior fraction four
Ligature2: "<11,2> Diagonal Fractions lookup 5 subtable" threesuperior fraction four.alt
Ligature2: "<11,2> Diagonal Fractions lookup 5 subtable" threesuperior fraction four.sinf
Ligature2: "<11,2> Diagonal Fractions lookup 5 subtable" threesuperior fraction four.sups
Ligature2: "<11,2> Diagonal Fractions lookup 5 subtable" threesuperior fraction fourinferior
Ligature2: "<11,2> Diagonal Fractions lookup 5 subtable" threesuperior fraction foursuperior
Ligature2: "<11,2> Diagonal Fractions lookup 5 subtable" threesuperior fraction four
Ligature2: "<11,2> Diagonal Fractions lookup 5 subtable" three fraction four.alt
Ligature2: "<11,2> Diagonal Fractions lookup 5 subtable" three fraction four.sinf
Ligature2: "<11,2> Diagonal Fractions lookup 5 subtable" three fraction four.sups
Ligature2: "<11,2> Diagonal Fractions lookup 5 subtable" three fraction fourinferior
Ligature2: "<11,2> Diagonal Fractions lookup 5 subtable" three fraction foursuperior
Ligature2: "<11,2> Diagonal Fractions lookup 5 subtable" three fraction four
EndChar

StartChar: questiondown
Encoding: 191 191 128
Width: 529
Flags: W
LayerCount: 2
Fore
SplineSet
40 -39 m 2,0,-1
 40 57 l 2,1,2
 40 86 40 86 57.5 110.5 c 128,-1,3
 75 135 75 135 100.5 152 c 128,-1,4
 126 169 126 169 151.5 184.5 c 128,-1,5
 177 200 177 200 194.5 217 c 128,-1,6
 212 234 212 234 212 251 c 2,7,-1
 212 296 l 1,8,-1
 348 296 l 1,9,-1
 348 238 l 2,10,11
 348 200 348 200 332 171.5 c 128,-1,12
 316 143 316 143 293 126.5 c 128,-1,13
 270 110 270 110 247 96 c 128,-1,14
 224 82 224 82 208 63.5 c 128,-1,15
 192 45 192 45 192 21 c 2,16,-1
 192 -26 l 2,17,18
 192 -53 192 -53 211 -63.5 c 128,-1,19
 230 -74 230 -74 290 -74 c 0,20,21
 336 -74 336 -74 489 -50 c 1,22,-1
 489 -159 l 1,23,24
 361 -175 361 -175 271 -175 c 0,25,26
 224 -175 224 -175 191.5 -172.5 c 128,-1,27
 159 -170 159 -170 128.5 -161.5 c 128,-1,28
 98 -153 98 -153 80 -138.5 c 128,-1,29
 62 -124 62 -124 51 -99 c 128,-1,30
 40 -74 40 -74 40 -39 c 2,0,-1
202 484 m 1,31,-1
 358 484 l 1,32,-1
 358 346 l 1,33,-1
 202 346 l 1,34,-1
 202 484 l 1,31,-1
EndSplineSet
Substitution2: "<3,3> Small Caps in Latin lookup 11 subtable" questiondown.smcp
EndChar

StartChar: Agrave
Encoding: 192 192 129
Width: 668
Flags: W
LayerCount: 2
Fore
SplineSet
666 0 m 1,0,-1
 508 0 l 1,1,-1
 450 171 l 1,2,-1
 213 171 l 1,3,-1
 156 0 l 1,4,-1
 2 0 l 1,5,-1
 242 649 l 1,6,-1
 432 649 l 1,7,-1
 666 0 l 1,0,-1
416 275 m 1,8,-1
 334 519 l 1,9,-1
 330 519 l 1,10,-1
 248 275 l 1,11,-1
 416 275 l 1,8,-1
409 693 m 1,12,-1
 285 693 l 1,13,-1
 160 820 l 1,14,-1
 319 820 l 1,15,-1
 409 693 l 1,12,-1
EndSplineSet
EndChar

StartChar: Aacute
Encoding: 193 193 130
Width: 668
Flags: W
LayerCount: 2
Fore
SplineSet
666 0 m 1,0,-1
 508 0 l 1,1,-1
 450 171 l 1,2,-1
 213 171 l 1,3,-1
 156 0 l 1,4,-1
 2 0 l 1,5,-1
 242 649 l 1,6,-1
 432 649 l 1,7,-1
 666 0 l 1,0,-1
416 275 m 1,8,-1
 334 519 l 1,9,-1
 330 519 l 1,10,-1
 248 275 l 1,11,-1
 416 275 l 1,8,-1
519 830 m 1,12,-1
 394 703 l 1,13,-1
 270 703 l 1,14,-1
 360 830 l 1,15,-1
 519 830 l 1,12,-1
EndSplineSet
EndChar

StartChar: Acircumflex
Encoding: 194 194 131
Width: 668
Flags: W
LayerCount: 2
Fore
SplineSet
666 0 m 1,0,-1
 508 0 l 1,1,-1
 450 171 l 1,2,-1
 213 171 l 1,3,-1
 156 0 l 1,4,-1
 2 0 l 1,5,-1
 242 649 l 1,6,-1
 432 649 l 1,7,-1
 666 0 l 1,0,-1
416 275 m 1,8,-1
 334 519 l 1,9,-1
 330 519 l 1,10,-1
 248 275 l 1,11,-1
 416 275 l 1,8,-1
491 703 m 1,12,-1
 393 703 l 1,13,-1
 340 790 l 1,14,-1
 288 703 l 1,15,-1
 190 703 l 1,16,-1
 246 830 l 1,17,-1
 433 830 l 1,18,-1
 491 703 l 1,12,-1
EndSplineSet
EndChar

StartChar: Atilde
Encoding: 195 195 132
Width: 668
Flags: W
LayerCount: 2
Fore
SplineSet
666 0 m 1,0,-1
 508 0 l 1,1,-1
 450 171 l 1,2,-1
 213 171 l 1,3,-1
 156 0 l 1,4,-1
 2 0 l 1,5,-1
 242 649 l 1,6,-1
 432 649 l 1,7,-1
 666 0 l 1,0,-1
416 275 m 1,8,-1
 334 519 l 1,9,-1
 330 519 l 1,10,-1
 248 275 l 1,11,-1
 416 275 l 1,8,-1
511 830 m 1,12,13
 510 716 510 716 401 716 c 0,14,15
 371 716 371 716 330.5 736.5 c 128,-1,16
 290 757 290 757 289 757 c 0,17,18
 255 757 255 757 253 727 c 1,19,-1
 180 727 l 1,20,21
 181 786 181 786 211 809.5 c 128,-1,22
 241 833 241 833 296 833 c 0,23,24
 324 833 324 833 361.5 814 c 128,-1,25
 399 795 399 795 406 795 c 0,26,27
 439 795 439 795 439 830 c 1,28,-1
 511 830 l 1,12,13
EndSplineSet
EndChar

StartChar: Adieresis
Encoding: 196 196 133
Width: 668
Flags: W
LayerCount: 2
Fore
SplineSet
666 0 m 1,0,-1
 508 0 l 1,1,-1
 450 171 l 1,2,-1
 213 171 l 1,3,-1
 156 0 l 1,4,-1
 2 0 l 1,5,-1
 242 649 l 1,6,-1
 432 649 l 1,7,-1
 666 0 l 1,0,-1
416 275 m 1,8,-1
 334 519 l 1,9,-1
 330 519 l 1,10,-1
 248 275 l 1,11,-1
 416 275 l 1,8,-1
491 715 m 1,12,-1
 365 715 l 1,13,-1
 365 833 l 1,14,-1
 491 833 l 1,15,-1
 491 715 l 1,12,-1
301 715 m 1,16,-1
 175 715 l 1,17,-1
 175 833 l 1,18,-1
 301 833 l 1,19,-1
 301 715 l 1,16,-1
EndSplineSet
EndChar

StartChar: Aring
Encoding: 197 197 134
Width: 652
Flags: W
LayerCount: 2
Fore
SplineSet
667 0 m 1,0,-1
 509 0 l 1,1,-1
 451 171 l 1,2,-1
 214 171 l 1,3,-1
 156 0 l 1,4,-1
 3 0 l 1,5,-1
 214 571 l 1,6,7
 176 594 176 594 176 649 c 2,8,-1
 176 681 l 2,9,10
 176 716 176 716 188.5 738.5 c 128,-1,11
 201 761 201 761 227 770.5 c 128,-1,12
 253 780 253 780 275.5 782.5 c 128,-1,13
 298 785 298 785 335 785 c 128,-1,14
 372 785 372 785 394.5 782.5 c 128,-1,15
 417 780 417 780 443 770.5 c 128,-1,16
 469 761 469 761 481.5 738.5 c 128,-1,17
 494 716 494 716 494 681 c 2,18,-1
 494 649 l 2,19,20
 494 597 494 597 460 574 c 1,21,-1
 667 0 l 1,0,-1
405 642 m 2,22,-1
 405 679 l 2,23,24
 405 708 405 708 393 715.5 c 128,-1,25
 381 723 381 723 335 723 c 128,-1,26
 289 723 289 723 277 715.5 c 128,-1,27
 265 708 265 708 265 679 c 2,28,-1
 265 642 l 2,29,30
 265 618 265 618 279.5 610.5 c 128,-1,31
 294 603 294 603 335 603 c 128,-1,32
 376 603 376 603 390.5 610.5 c 128,-1,33
 405 618 405 618 405 642 c 2,22,-1
417 275 m 1,34,-1
 335 519 l 1,35,-1
 330 519 l 1,36,-1
 248 275 l 1,37,-1
 417 275 l 1,34,-1
EndSplineSet
EndChar

StartChar: AE
Encoding: 198 198 135
Width: 990
Flags: W
LayerCount: 2
Fore
SplineSet
955 0 m 1,0,-1
 470 0 l 1,1,-1
 470 171 l 1,2,-1
 245 171 l 1,3,-1
 166 0 l 1,4,-1
 0 0 l 1,5,-1
 330 649 l 1,6,-1
 945 649 l 1,7,-1
 945 538 l 1,8,-1
 623 538 l 1,9,-1
 623 389 l 1,10,-1
 912 389 l 1,11,-1
 912 278 l 1,12,-1
 623 278 l 1,13,-1
 623 111 l 1,14,-1
 955 111 l 1,15,-1
 955 0 l 1,0,-1
470 275 m 1,16,-1
 470 538 l 1,17,-1
 413 538 l 1,18,-1
 292 275 l 1,19,-1
 470 275 l 1,16,-1
EndSplineSet
EndChar

StartChar: Ccedilla
Encoding: 199 199 136
Width: 597
Flags: W
LayerCount: 2
Fore
SplineSet
567 12 m 1,0,1
 465 -8 465 -8 386 -10 c 1,2,-1
 357 -50 l 1,3,4
 398 -53 398 -53 426 -71.5 c 128,-1,5
 454 -90 454 -90 454 -129 c 0,6,7
 454 -174 454 -174 417.5 -197 c 128,-1,8
 381 -220 381 -220 334 -220 c 0,9,10
 278 -220 278 -220 243 -197 c 1,11,-1
 265 -151 l 1,12,13
 295 -169 295 -169 327 -169 c 0,14,15
 374 -169 374 -169 374 -134 c 0,16,17
 374 -96 374 -96 299 -96 c 2,18,-1
 259 -96 l 1,19,20
 260 -93 260 -93 271 -76.5 c 128,-1,21
 282 -60 282 -60 296.5 -39 c 128,-1,22
 311 -18 311 -18 317 -9 c 1,23,24
 56 5 56 5 56 178 c 2,25,-1
 56 463 l 2,26,27
 56 659 56 659 357 659 c 0,28,29
 431 659 431 659 563 637 c 1,30,-1
 563 520 l 1,31,32
 444 548 444 548 359 548 c 0,33,34
 325 548 325 548 303.5 546 c 128,-1,35
 282 544 282 544 258.5 536 c 128,-1,36
 235 528 235 528 223.5 510.5 c 128,-1,37
 212 493 212 493 212 465 c 2,38,-1
 212 189 l 2,39,40
 212 101 212 101 373 101 c 0,41,42
 444 101 444 101 567 130 c 1,43,-1
 567 12 l 1,0,1
EndSplineSet
EndChar

StartChar: Egrave
Encoding: 200 200 137
Width: 610
Flags: W
LayerCount: 2
Fore
SplineSet
575 0 m 1,0,-1
 70 0 l 1,1,-1
 70 649 l 1,2,-1
 565 649 l 1,3,-1
 565 538 l 1,4,-1
 226 538 l 1,5,-1
 226 389 l 1,6,-1
 532 389 l 1,7,-1
 532 278 l 1,8,-1
 226 278 l 1,9,-1
 226 111 l 1,10,-1
 575 111 l 1,11,-1
 575 0 l 1,0,-1
413 718 m 1,12,-1
 289 718 l 1,13,-1
 164 845 l 1,14,-1
 323 845 l 1,15,-1
 413 718 l 1,12,-1
EndSplineSet
EndChar

StartChar: Eacute
Encoding: 201 201 138
Width: 610
Flags: W
LayerCount: 2
Fore
SplineSet
575 0 m 1,0,-1
 70 0 l 1,1,-1
 70 649 l 1,2,-1
 565 649 l 1,3,-1
 565 538 l 1,4,-1
 226 538 l 1,5,-1
 226 389 l 1,6,-1
 532 389 l 1,7,-1
 532 278 l 1,8,-1
 226 278 l 1,9,-1
 226 111 l 1,10,-1
 575 111 l 1,11,-1
 575 0 l 1,0,-1
472 845 m 1,12,-1
 347 718 l 1,13,-1
 223 718 l 1,14,-1
 313 845 l 1,15,-1
 472 845 l 1,12,-1
EndSplineSet
EndChar

StartChar: Ecircumflex
Encoding: 202 202 139
Width: 610
Flags: W
LayerCount: 2
Fore
SplineSet
575 0 m 1,0,-1
 70 0 l 1,1,-1
 70 649 l 1,2,-1
 565 649 l 1,3,-1
 565 538 l 1,4,-1
 226 538 l 1,5,-1
 226 389 l 1,6,-1
 532 389 l 1,7,-1
 532 278 l 1,8,-1
 226 278 l 1,9,-1
 226 111 l 1,10,-1
 575 111 l 1,11,-1
 575 0 l 1,0,-1
455 718 m 1,12,-1
 357 718 l 1,13,-1
 304 805 l 1,14,-1
 252 718 l 1,15,-1
 154 718 l 1,16,-1
 210 845 l 1,17,-1
 397 845 l 1,18,-1
 455 718 l 1,12,-1
EndSplineSet
EndChar

StartChar: Edieresis
Encoding: 203 203 140
Width: 610
Flags: W
LayerCount: 2
Fore
SplineSet
575 0 m 1,0,-1
 70 0 l 1,1,-1
 70 649 l 1,2,-1
 565 649 l 1,3,-1
 565 538 l 1,4,-1
 226 538 l 1,5,-1
 226 389 l 1,6,-1
 532 389 l 1,7,-1
 532 278 l 1,8,-1
 226 278 l 1,9,-1
 226 111 l 1,10,-1
 575 111 l 1,11,-1
 575 0 l 1,0,-1
463 730 m 1,12,-1
 337 730 l 1,13,-1
 337 848 l 1,14,-1
 463 848 l 1,15,-1
 463 730 l 1,12,-1
273 730 m 1,16,-1
 147 730 l 1,17,-1
 147 848 l 1,18,-1
 273 848 l 1,19,-1
 273 730 l 1,16,-1
EndSplineSet
EndChar

StartChar: Igrave
Encoding: 204 204 141
Width: 296
Flags: W
LayerCount: 2
Fore
SplineSet
226 0 m 1,0,-1
 70 0 l 1,1,-1
 70 649 l 1,2,-1
 226 649 l 1,3,-1
 226 0 l 1,0,-1
273 718 m 1,4,-1
 149 718 l 1,5,-1
 24 845 l 1,6,-1
 183 845 l 1,7,-1
 273 718 l 1,4,-1
EndSplineSet
EndChar

StartChar: Iacute
Encoding: 205 205 142
Width: 296
Flags: W
LayerCount: 2
Fore
SplineSet
226 0 m 1,0,-1
 70 0 l 1,1,-1
 70 649 l 1,2,-1
 226 649 l 1,3,-1
 226 0 l 1,0,-1
273 845 m 1,4,-1
 148 718 l 1,5,-1
 24 718 l 1,6,-1
 114 845 l 1,7,-1
 273 845 l 1,4,-1
EndSplineSet
EndChar

StartChar: Icircumflex
Encoding: 206 206 143
Width: 296
Flags: W
LayerCount: 2
Fore
SplineSet
226 0 m 1,0,-1
 70 0 l 1,1,-1
 70 649 l 1,2,-1
 226 649 l 1,3,-1
 226 0 l 1,0,-1
299 718 m 1,4,-1
 201 718 l 1,5,-1
 148 805 l 1,6,-1
 96 718 l 1,7,-1
 -2 718 l 1,8,-1
 54 845 l 1,9,-1
 241 845 l 1,10,-1
 299 718 l 1,4,-1
EndSplineSet
EndChar

StartChar: Idieresis
Encoding: 207 207 144
Width: 296
Flags: W
LayerCount: 2
Fore
SplineSet
226 0 m 1,0,-1
 70 0 l 1,1,-1
 70 649 l 1,2,-1
 226 649 l 1,3,-1
 226 0 l 1,0,-1
306 730 m 1,4,-1
 180 730 l 1,5,-1
 180 848 l 1,6,-1
 306 848 l 1,7,-1
 306 730 l 1,4,-1
116 730 m 1,8,-1
 -10 730 l 1,9,-1
 -10 848 l 1,10,-1
 116 848 l 1,11,-1
 116 730 l 1,8,-1
EndSplineSet
EndChar

StartChar: Eth
Encoding: 208 208 145
Width: 677
Flags: W
LayerCount: 2
Fore
SplineSet
10 385 m 1,0,-1
 348 385 l 1,1,-1
 348 284 l 1,2,-1
 10 284 l 1,3,-1
 10 385 l 1,0,-1
654 452 m 2,4,-1
 654 188 l 2,5,6
 654 78 654 78 586 39 c 128,-1,7
 518 0 518 0 347 0 c 2,8,-1
 70 0 l 1,9,-1
 70 649 l 1,10,-1
 346 649 l 2,11,12
 511 649 511 649 582.5 608 c 128,-1,13
 654 567 654 567 654 452 c 2,4,-1
498 188 m 2,14,-1
 498 455 l 2,15,16
 498 502 498 502 460 520 c 128,-1,17
 422 538 422 538 345 538 c 2,18,-1
 226 538 l 1,19,-1
 226 111 l 1,20,-1
 340 111 l 2,21,22
 430 111 430 111 464 124.5 c 128,-1,23
 498 138 498 138 498 188 c 2,14,-1
EndSplineSet
EndChar

StartChar: Ntilde
Encoding: 209 209 146
Width: 751
Flags: W
LayerCount: 2
Fore
SplineSet
681 0 m 1,0,-1
 523 0 l 1,1,-1
 209 450 l 1,2,-1
 209 0 l 1,3,-1
 70 0 l 1,4,-1
 70 649 l 1,5,-1
 228 649 l 1,6,-1
 542 206 l 1,7,-1
 542 649 l 1,8,-1
 681 649 l 1,9,-1
 681 0 l 1,0,-1
438 824 m 0,10,11
 466 824 466 824 479 857 c 1,12,-1
 520 833 l 1,13,14
 513 809 513 809 489 780 c 128,-1,15
 465 751 465 751 429 751 c 0,16,17
 404 751 404 751 364 767.5 c 128,-1,18
 324 784 324 784 313 784 c 0,19,20
 284 784 284 784 271 751 c 1,21,-1
 231 775 l 1,22,23
 237 798 237 798 261.5 826 c 128,-1,24
 286 854 286 854 322 854 c 0,25,26
 345 854 345 854 383.5 839 c 128,-1,27
 422 824 422 824 438 824 c 0,10,11
EndSplineSet
EndChar

StartChar: Ograve
Encoding: 210 210 147
Width: 728
Flags: W
LayerCount: 2
Fore
SplineSet
672 462 m 2,0,-1
 672 178 l 2,1,2
 672 123 672 123 643 84 c 128,-1,3
 614 45 614 45 565 25.5 c 128,-1,4
 516 6 516 6 467 -2 c 128,-1,5
 418 -10 418 -10 363 -10 c 0,6,7
 311 -10 311 -10 265.5 -3.5 c 128,-1,8
 220 3 220 3 168.5 21 c 128,-1,9
 117 39 117 39 86.5 79 c 128,-1,10
 56 119 56 119 56 178 c 2,11,-1
 56 462 l 2,12,13
 56 512 56 512 78.5 550 c 128,-1,14
 101 588 101 588 132.5 608 c 128,-1,15
 164 628 164 628 209 640.5 c 128,-1,16
 254 653 254 653 289 656 c 128,-1,17
 324 659 324 659 363 659 c 0,18,19
 403 659 403 659 438.5 656 c 128,-1,20
 474 653 474 653 519 640.5 c 128,-1,21
 564 628 564 628 596 608 c 128,-1,22
 628 588 628 588 650 550.5 c 128,-1,23
 672 513 672 513 672 462 c 2,0,-1
516 178 m 2,24,-1
 516 463 l 2,25,26
 516 510 516 510 477.5 529 c 128,-1,27
 439 548 439 548 364 548 c 0,28,29
 288 548 288 548 250 529.5 c 128,-1,30
 212 511 212 511 212 463 c 2,31,-1
 212 178 l 2,32,33
 212 153 212 153 225 136.5 c 128,-1,34
 238 120 238 120 262.5 113 c 128,-1,35
 287 106 287 106 309.5 103.5 c 128,-1,36
 332 101 332 101 365 101 c 128,-1,37
 398 101 398 101 420.5 103.5 c 128,-1,38
 443 106 443 106 467 113 c 128,-1,39
 491 120 491 120 503.5 136.5 c 128,-1,40
 516 153 516 153 516 178 c 2,24,-1
434 718 m 1,41,-1
 310 718 l 1,42,-1
 185 845 l 1,43,-1
 344 845 l 1,44,-1
 434 718 l 1,41,-1
EndSplineSet
EndChar

StartChar: Oacute
Encoding: 211 211 148
Width: 728
Flags: W
LayerCount: 2
Fore
SplineSet
672 462 m 2,0,-1
 672 178 l 2,1,2
 672 123 672 123 643 84 c 128,-1,3
 614 45 614 45 565 25.5 c 128,-1,4
 516 6 516 6 467 -2 c 128,-1,5
 418 -10 418 -10 363 -10 c 0,6,7
 311 -10 311 -10 265.5 -3.5 c 128,-1,8
 220 3 220 3 168.5 21 c 128,-1,9
 117 39 117 39 86.5 79 c 128,-1,10
 56 119 56 119 56 178 c 2,11,-1
 56 462 l 2,12,13
 56 512 56 512 78.5 550 c 128,-1,14
 101 588 101 588 132.5 608 c 128,-1,15
 164 628 164 628 209 640.5 c 128,-1,16
 254 653 254 653 289 656 c 128,-1,17
 324 659 324 659 363 659 c 0,18,19
 403 659 403 659 438.5 656 c 128,-1,20
 474 653 474 653 519 640.5 c 128,-1,21
 564 628 564 628 596 608 c 128,-1,22
 628 588 628 588 650 550.5 c 128,-1,23
 672 513 672 513 672 462 c 2,0,-1
516 178 m 2,24,-1
 516 463 l 2,25,26
 516 510 516 510 477.5 529 c 128,-1,27
 439 548 439 548 364 548 c 0,28,29
 288 548 288 548 250 529.5 c 128,-1,30
 212 511 212 511 212 463 c 2,31,-1
 212 178 l 2,32,33
 212 153 212 153 225 136.5 c 128,-1,34
 238 120 238 120 262.5 113 c 128,-1,35
 287 106 287 106 309.5 103.5 c 128,-1,36
 332 101 332 101 365 101 c 128,-1,37
 398 101 398 101 420.5 103.5 c 128,-1,38
 443 106 443 106 467 113 c 128,-1,39
 491 120 491 120 503.5 136.5 c 128,-1,40
 516 153 516 153 516 178 c 2,24,-1
520 845 m 1,41,-1
 395 718 l 1,42,-1
 271 718 l 1,43,-1
 361 845 l 1,44,-1
 520 845 l 1,41,-1
EndSplineSet
EndChar

StartChar: Ocircumflex
Encoding: 212 212 149
Width: 728
Flags: W
LayerCount: 2
Fore
SplineSet
672 462 m 2,0,-1
 672 178 l 2,1,2
 672 123 672 123 643 84 c 128,-1,3
 614 45 614 45 565 25.5 c 128,-1,4
 516 6 516 6 467 -2 c 128,-1,5
 418 -10 418 -10 363 -10 c 0,6,7
 311 -10 311 -10 265.5 -3.5 c 128,-1,8
 220 3 220 3 168.5 21 c 128,-1,9
 117 39 117 39 86.5 79 c 128,-1,10
 56 119 56 119 56 178 c 2,11,-1
 56 462 l 2,12,13
 56 512 56 512 78.5 550 c 128,-1,14
 101 588 101 588 132.5 608 c 128,-1,15
 164 628 164 628 209 640.5 c 128,-1,16
 254 653 254 653 289 656 c 128,-1,17
 324 659 324 659 363 659 c 0,18,19
 403 659 403 659 438.5 656 c 128,-1,20
 474 653 474 653 519 640.5 c 128,-1,21
 564 628 564 628 596 608 c 128,-1,22
 628 588 628 588 650 550.5 c 128,-1,23
 672 513 672 513 672 462 c 2,0,-1
516 178 m 2,24,-1
 516 463 l 2,25,26
 516 510 516 510 477.5 529 c 128,-1,27
 439 548 439 548 364 548 c 0,28,29
 288 548 288 548 250 529.5 c 128,-1,30
 212 511 212 511 212 463 c 2,31,-1
 212 178 l 2,32,33
 212 153 212 153 225 136.5 c 128,-1,34
 238 120 238 120 262.5 113 c 128,-1,35
 287 106 287 106 309.5 103.5 c 128,-1,36
 332 101 332 101 365 101 c 128,-1,37
 398 101 398 101 420.5 103.5 c 128,-1,38
 443 106 443 106 467 113 c 128,-1,39
 491 120 491 120 503.5 136.5 c 128,-1,40
 516 153 516 153 516 178 c 2,24,-1
514 718 m 1,41,-1
 416 718 l 1,42,-1
 363 805 l 1,43,-1
 311 718 l 1,44,-1
 213 718 l 1,45,-1
 269 845 l 1,46,-1
 456 845 l 1,47,-1
 514 718 l 1,41,-1
EndSplineSet
EndChar

StartChar: Otilde
Encoding: 213 213 150
Width: 728
Flags: W
LayerCount: 2
Fore
SplineSet
672 462 m 2,0,-1
 672 178 l 2,1,2
 672 123 672 123 643 84 c 128,-1,3
 614 45 614 45 565 25.5 c 128,-1,4
 516 6 516 6 467 -2 c 128,-1,5
 418 -10 418 -10 363 -10 c 0,6,7
 311 -10 311 -10 265.5 -3.5 c 128,-1,8
 220 3 220 3 168.5 21 c 128,-1,9
 117 39 117 39 86.5 79 c 128,-1,10
 56 119 56 119 56 178 c 2,11,-1
 56 462 l 2,12,13
 56 512 56 512 78.5 550 c 128,-1,14
 101 588 101 588 132.5 608 c 128,-1,15
 164 628 164 628 209 640.5 c 128,-1,16
 254 653 254 653 289 656 c 128,-1,17
 324 659 324 659 363 659 c 0,18,19
 403 659 403 659 438.5 656 c 128,-1,20
 474 653 474 653 519 640.5 c 128,-1,21
 564 628 564 628 596 608 c 128,-1,22
 628 588 628 588 650 550.5 c 128,-1,23
 672 513 672 513 672 462 c 2,0,-1
516 178 m 2,24,-1
 516 463 l 2,25,26
 516 510 516 510 477.5 529 c 128,-1,27
 439 548 439 548 364 548 c 0,28,29
 288 548 288 548 250 529.5 c 128,-1,30
 212 511 212 511 212 463 c 2,31,-1
 212 178 l 2,32,33
 212 153 212 153 225 136.5 c 128,-1,34
 238 120 238 120 262.5 113 c 128,-1,35
 287 106 287 106 309.5 103.5 c 128,-1,36
 332 101 332 101 365 101 c 128,-1,37
 398 101 398 101 420.5 103.5 c 128,-1,38
 443 106 443 106 467 113 c 128,-1,39
 491 120 491 120 503.5 136.5 c 128,-1,40
 516 153 516 153 516 178 c 2,24,-1
426 824 m 0,41,42
 454 824 454 824 467 857 c 1,43,-1
 508 833 l 1,44,45
 501 809 501 809 477 780 c 128,-1,46
 453 751 453 751 417 751 c 0,47,48
 392 751 392 751 352 767.5 c 128,-1,49
 312 784 312 784 301 784 c 0,50,51
 272 784 272 784 259 751 c 1,52,-1
 219 775 l 1,53,54
 225 798 225 798 249.5 826 c 128,-1,55
 274 854 274 854 310 854 c 0,56,57
 333 854 333 854 371.5 839 c 128,-1,58
 410 824 410 824 426 824 c 0,41,42
EndSplineSet
EndChar

StartChar: Odieresis
Encoding: 214 214 151
Width: 728
Flags: W
LayerCount: 2
Fore
SplineSet
672 462 m 2,0,-1
 672 178 l 2,1,2
 672 123 672 123 643 84 c 128,-1,3
 614 45 614 45 565 25.5 c 128,-1,4
 516 6 516 6 467 -2 c 128,-1,5
 418 -10 418 -10 363 -10 c 0,6,7
 311 -10 311 -10 265.5 -3.5 c 128,-1,8
 220 3 220 3 168.5 21 c 128,-1,9
 117 39 117 39 86.5 79 c 128,-1,10
 56 119 56 119 56 178 c 2,11,-1
 56 462 l 2,12,13
 56 512 56 512 78.5 550 c 128,-1,14
 101 588 101 588 132.5 608 c 128,-1,15
 164 628 164 628 209 640.5 c 128,-1,16
 254 653 254 653 289 656 c 128,-1,17
 324 659 324 659 363 659 c 0,18,19
 403 659 403 659 438.5 656 c 128,-1,20
 474 653 474 653 519 640.5 c 128,-1,21
 564 628 564 628 596 608 c 128,-1,22
 628 588 628 588 650 550.5 c 128,-1,23
 672 513 672 513 672 462 c 2,0,-1
516 178 m 2,24,-1
 516 463 l 2,25,26
 516 510 516 510 477.5 529 c 128,-1,27
 439 548 439 548 364 548 c 0,28,29
 288 548 288 548 250 529.5 c 128,-1,30
 212 511 212 511 212 463 c 2,31,-1
 212 178 l 2,32,33
 212 153 212 153 225 136.5 c 128,-1,34
 238 120 238 120 262.5 113 c 128,-1,35
 287 106 287 106 309.5 103.5 c 128,-1,36
 332 101 332 101 365 101 c 128,-1,37
 398 101 398 101 420.5 103.5 c 128,-1,38
 443 106 443 106 467 113 c 128,-1,39
 491 120 491 120 503.5 136.5 c 128,-1,40
 516 153 516 153 516 178 c 2,24,-1
522 730 m 1,41,-1
 396 730 l 1,42,-1
 396 848 l 1,43,-1
 522 848 l 1,44,-1
 522 730 l 1,41,-1
332 730 m 1,45,-1
 206 730 l 1,46,-1
 206 848 l 1,47,-1
 332 848 l 1,48,-1
 332 730 l 1,45,-1
EndSplineSet
EndChar

StartChar: multiply
Encoding: 215 215 152
Width: 580
Flags: W
LayerCount: 2
Fore
SplineSet
142 533 m 1,0,-1
 289 385 l 1,1,-1
 438 534 l 1,2,-1
 509 462 l 1,3,-1
 361 314 l 1,4,-1
 509 166 l 1,5,-1
 438 94 l 1,6,-1
 289 242 l 1,7,-1
 142 95 l 1,8,-1
 70 166 l 1,9,-1
 218 314 l 1,10,-1
 70 462 l 1,11,-1
 142 533 l 1,0,-1
EndSplineSet
EndChar

StartChar: Oslash
Encoding: 216 216 153
Width: 728
Flags: W
LayerCount: 2
Fore
SplineSet
672 462 m 2,0,-1
 672 178 l 2,1,2
 672 123 672 123 643 84 c 128,-1,3
 614 45 614 45 565 25.5 c 128,-1,4
 516 6 516 6 467 -2 c 128,-1,5
 418 -10 418 -10 363 -10 c 0,6,7
 311 -10 311 -10 265.5 -3.5 c 128,-1,8
 220 3 220 3 168.5 21 c 128,-1,9
 117 39 117 39 86.5 79 c 128,-1,10
 56 119 56 119 56 178 c 2,11,-1
 56 462 l 2,12,13
 56 512 56 512 78.5 550 c 128,-1,14
 101 588 101 588 132.5 608 c 128,-1,15
 164 628 164 628 209 640.5 c 128,-1,16
 254 653 254 653 289 656 c 128,-1,17
 324 659 324 659 363 659 c 0,18,19
 403 659 403 659 438.5 656 c 128,-1,20
 474 653 474 653 519 640.5 c 128,-1,21
 564 628 564 628 596 608 c 128,-1,22
 628 588 628 588 650 550.5 c 128,-1,23
 672 513 672 513 672 462 c 2,0,-1
516 178 m 2,24,-1
 516 463 l 1,25,-1
 256 115 l 1,26,27
 291 101 291 101 365 101 c 0,28,29
 398 101 398 101 420.5 103.5 c 128,-1,30
 443 106 443 106 467 113 c 128,-1,31
 491 120 491 120 503.5 136.5 c 128,-1,32
 516 153 516 153 516 178 c 2,24,-1
212 463 m 2,33,-1
 212 189 l 1,34,-1
 468 533 l 1,35,36
 433 548 433 548 364 548 c 0,37,38
 288 548 288 548 250 529.5 c 128,-1,39
 212 511 212 511 212 463 c 2,33,-1
EndSplineSet
EndChar

StartChar: Ugrave
Encoding: 217 217 154
Width: 699
Flags: W
LayerCount: 2
Fore
SplineSet
631 649 m 1,0,-1
 631 178 l 2,1,2
 631 -10 631 -10 349 -10 c 0,3,4
 68 -10 68 -10 68 178 c 2,5,-1
 68 649 l 1,6,-1
 224 649 l 1,7,-1
 224 178 l 2,8,9
 224 134 224 134 253 117.5 c 128,-1,10
 282 101 282 101 351 101 c 0,11,12
 419 101 419 101 447 117.5 c 128,-1,13
 475 134 475 134 475 178 c 2,14,-1
 475 649 l 1,15,-1
 631 649 l 1,0,-1
423 718 m 1,16,-1
 299 718 l 1,17,-1
 174 845 l 1,18,-1
 333 845 l 1,19,-1
 423 718 l 1,16,-1
EndSplineSet
EndChar

StartChar: Uacute
Encoding: 218 218 155
Width: 699
Flags: W
LayerCount: 2
Fore
SplineSet
631 649 m 1,0,-1
 631 178 l 2,1,2
 631 -10 631 -10 349 -10 c 0,3,4
 68 -10 68 -10 68 178 c 2,5,-1
 68 649 l 1,6,-1
 224 649 l 1,7,-1
 224 178 l 2,8,9
 224 134 224 134 253 117.5 c 128,-1,10
 282 101 282 101 351 101 c 0,11,12
 419 101 419 101 447 117.5 c 128,-1,13
 475 134 475 134 475 178 c 2,14,-1
 475 649 l 1,15,-1
 631 649 l 1,0,-1
519 845 m 1,16,-1
 394 718 l 1,17,-1
 270 718 l 1,18,-1
 360 845 l 1,19,-1
 519 845 l 1,16,-1
EndSplineSet
EndChar

StartChar: Ucircumflex
Encoding: 219 219 156
Width: 699
Flags: W
LayerCount: 2
Fore
SplineSet
631 649 m 1,0,-1
 631 178 l 2,1,2
 631 -10 631 -10 349 -10 c 0,3,4
 68 -10 68 -10 68 178 c 2,5,-1
 68 649 l 1,6,-1
 224 649 l 1,7,-1
 224 178 l 2,8,9
 224 134 224 134 253 117.5 c 128,-1,10
 282 101 282 101 351 101 c 0,11,12
 419 101 419 101 447 117.5 c 128,-1,13
 475 134 475 134 475 178 c 2,14,-1
 475 649 l 1,15,-1
 631 649 l 1,0,-1
500 718 m 1,16,-1
 402 718 l 1,17,-1
 349 805 l 1,18,-1
 297 718 l 1,19,-1
 199 718 l 1,20,-1
 255 845 l 1,21,-1
 442 845 l 1,22,-1
 500 718 l 1,16,-1
EndSplineSet
EndChar

StartChar: Udieresis
Encoding: 220 220 157
Width: 699
Flags: W
LayerCount: 2
Fore
SplineSet
631 649 m 1,0,-1
 631 178 l 2,1,2
 631 -10 631 -10 349 -10 c 0,3,4
 68 -10 68 -10 68 178 c 2,5,-1
 68 649 l 1,6,-1
 224 649 l 1,7,-1
 224 178 l 2,8,9
 224 134 224 134 253 117.5 c 128,-1,10
 282 101 282 101 351 101 c 0,11,12
 419 101 419 101 447 117.5 c 128,-1,13
 475 134 475 134 475 178 c 2,14,-1
 475 649 l 1,15,-1
 631 649 l 1,0,-1
507 730 m 1,16,-1
 381 730 l 1,17,-1
 381 848 l 1,18,-1
 507 848 l 1,19,-1
 507 730 l 1,16,-1
317 730 m 1,20,-1
 191 730 l 1,21,-1
 191 848 l 1,22,-1
 317 848 l 1,23,-1
 317 730 l 1,20,-1
EndSplineSet
EndChar

StartChar: Yacute
Encoding: 221 221 158
Width: 644
Flags: W
LayerCount: 2
Fore
SplineSet
636 649 m 1,0,-1
 399 262 l 1,1,-1
 399 0 l 1,2,-1
 243 0 l 1,3,-1
 243 260 l 1,4,-1
 8 649 l 1,5,-1
 185 649 l 1,6,-1
 322 395 l 1,7,-1
 458 649 l 1,8,-1
 636 649 l 1,0,-1
485 845 m 1,9,-1
 360 718 l 1,10,-1
 236 718 l 1,11,-1
 326 845 l 1,12,-1
 485 845 l 1,9,-1
EndSplineSet
EndChar

StartChar: Thorn
Encoding: 222 222 159
Width: 627
Flags: W
LayerCount: 2
Fore
SplineSet
587 271 m 2,0,1
 587 105 587 105 312 105 c 2,2,-1
 226 105 l 1,3,-1
 226 0 l 1,4,-1
 70 0 l 1,5,-1
 70 649 l 1,6,-1
 226 649 l 1,7,-1
 226 539 l 1,8,-1
 330 539 l 2,9,10
 386 539 386 539 427.5 533.5 c 128,-1,11
 469 528 469 528 507.5 513.5 c 128,-1,12
 546 499 546 499 566.5 469.5 c 128,-1,13
 587 440 587 440 587 395 c 2,14,-1
 587 271 l 2,0,1
436 271 m 2,15,-1
 436 390 l 2,16,17
 436 420 436 420 413 428.5 c 128,-1,18
 390 437 390 437 323 437 c 2,19,-1
 226 437 l 1,20,-1
 226 208 l 1,21,-1
 325 208 l 2,22,23
 436 208 436 208 436 271 c 2,15,-1
EndSplineSet
EndChar

StartChar: germandbls
Encoding: 223 223 160
Width: 639
Flags: W
LayerCount: 2
Fore
SplineSet
589 265 m 2,0,-1
 589 145 l 2,1,2
 589 64 589 64 524 32 c 128,-1,3
 459 0 459 0 331 0 c 2,4,-1
 277 0 l 1,5,-1
 277 111 l 1,6,-1
 331 111 l 2,7,8
 395 111 395 111 418.5 122 c 128,-1,9
 442 133 442 133 442 167 c 2,10,-1
 442 245 l 2,11,12
 442 283 442 283 424.5 293.5 c 128,-1,13
 407 304 407 304 352 304 c 2,14,-1
 277 304 l 1,15,-1
 277 402 l 1,16,-1
 327 402 l 2,17,18
 379 402 379 402 399 414.5 c 128,-1,19
 419 427 419 427 419 460 c 2,20,-1
 419 555 l 2,21,22
 419 585 419 585 400 597 c 128,-1,23
 381 609 381 609 324 609 c 0,24,25
 252 609 252 609 231 599.5 c 128,-1,26
 210 590 210 590 210 555 c 2,27,-1
 210 0 l 1,28,-1
 64 0 l 1,29,-1
 64 569 l 2,30,31
 64 622 64 622 81.5 650 c 128,-1,32
 99 678 99 678 156.5 694 c 128,-1,33
 214 710 214 710 324 710 c 0,34,35
 454 710 454 710 507 674.5 c 128,-1,36
 560 639 560 639 560 569 c 2,37,-1
 560 450 l 2,38,39
 560 422 560 422 538.5 398 c 128,-1,40
 517 374 517 374 489 366 c 1,41,-1
 488 361 l 1,42,43
 524 357 524 357 556.5 329 c 128,-1,44
 589 301 589 301 589 265 c 2,0,-1
EndSplineSet
Substitution2: "<3,3> Small Caps in Latin lookup 11 subtable" germandbls.smcp
EndChar

StartChar: agrave
Encoding: 224 224 161
Width: 564
Flags: W
LayerCount: 2
Fore
SplineSet
500 0 m 1,0,-1
 357 0 l 1,1,-1
 357 44 l 1,2,3
 341 15 341 15 311 2.5 c 128,-1,4
 281 -10 281 -10 201 -10 c 0,5,6
 103 -10 103 -10 71 20 c 128,-1,7
 39 50 39 50 39 145 c 0,8,9
 39 231 39 231 72 264.5 c 128,-1,10
 105 298 105 298 190 298 c 2,11,-1
 354 298 l 1,12,-1
 354 331 l 2,13,14
 354 375 354 375 333.5 389.5 c 128,-1,15
 313 404 313 404 247 404 c 0,16,17
 185 404 185 404 77 392 c 1,18,-1
 77 484 l 1,19,20
 160 494 160 494 262 494 c 0,21,22
 396 494 396 494 448 461.5 c 128,-1,23
 500 429 500 429 500 333 c 2,24,-1
 500 0 l 1,0,-1
354 124 m 2,25,-1
 354 218 l 1,26,-1
 254 218 l 2,27,28
 206 218 206 218 194 207 c 128,-1,29
 182 196 182 196 182 148 c 0,30,31
 182 101 182 101 194.5 91 c 128,-1,32
 207 81 207 81 258 81 c 0,33,34
 283 81 283 81 295 81.5 c 128,-1,35
 307 82 307 82 321 84 c 128,-1,36
 335 86 335 86 340.5 90.5 c 128,-1,37
 346 95 346 95 350 103 c 128,-1,38
 354 111 354 111 354 124 c 2,25,-1
368 553 m 1,39,-1
 244 553 l 1,40,-1
 119 680 l 1,41,-1
 278 680 l 1,42,-1
 368 553 l 1,39,-1
EndSplineSet
Substitution2: "<3,3> Small Caps in Latin lookup 11 subtable" agrave.smcp
EndChar

StartChar: aacute
Encoding: 225 225 162
Width: 564
Flags: W
LayerCount: 2
Fore
SplineSet
500 0 m 1,0,-1
 357 0 l 1,1,-1
 357 44 l 1,2,3
 341 15 341 15 311 2.5 c 128,-1,4
 281 -10 281 -10 201 -10 c 0,5,6
 103 -10 103 -10 71 20 c 128,-1,7
 39 50 39 50 39 145 c 0,8,9
 39 231 39 231 72 264.5 c 128,-1,10
 105 298 105 298 190 298 c 2,11,-1
 354 298 l 1,12,-1
 354 331 l 2,13,14
 354 375 354 375 333.5 389.5 c 128,-1,15
 313 404 313 404 247 404 c 0,16,17
 185 404 185 404 77 392 c 1,18,-1
 77 484 l 1,19,20
 160 494 160 494 262 494 c 0,21,22
 396 494 396 494 448 461.5 c 128,-1,23
 500 429 500 429 500 333 c 2,24,-1
 500 0 l 1,0,-1
354 124 m 2,25,-1
 354 218 l 1,26,-1
 254 218 l 2,27,28
 206 218 206 218 194 207 c 128,-1,29
 182 196 182 196 182 148 c 0,30,31
 182 101 182 101 194.5 91 c 128,-1,32
 207 81 207 81 258 81 c 0,33,34
 283 81 283 81 295 81.5 c 128,-1,35
 307 82 307 82 321 84 c 128,-1,36
 335 86 335 86 340.5 90.5 c 128,-1,37
 346 95 346 95 350 103 c 128,-1,38
 354 111 354 111 354 124 c 2,25,-1
427 680 m 1,39,-1
 302 553 l 1,40,-1
 178 553 l 1,41,-1
 268 680 l 1,42,-1
 427 680 l 1,39,-1
EndSplineSet
Substitution2: "<3,3> Small Caps in Latin lookup 11 subtable" aacute.smcp
EndChar

StartChar: acircumflex
Encoding: 226 226 163
Width: 564
Flags: W
LayerCount: 2
Fore
SplineSet
500 0 m 1,0,-1
 357 0 l 1,1,-1
 357 44 l 1,2,3
 341 15 341 15 311 2.5 c 128,-1,4
 281 -10 281 -10 201 -10 c 0,5,6
 103 -10 103 -10 71 20 c 128,-1,7
 39 50 39 50 39 145 c 0,8,9
 39 231 39 231 72 264.5 c 128,-1,10
 105 298 105 298 190 298 c 2,11,-1
 354 298 l 1,12,-1
 354 331 l 2,13,14
 354 375 354 375 333.5 389.5 c 128,-1,15
 313 404 313 404 247 404 c 0,16,17
 185 404 185 404 77 392 c 1,18,-1
 77 484 l 1,19,20
 160 494 160 494 262 494 c 0,21,22
 396 494 396 494 448 461.5 c 128,-1,23
 500 429 500 429 500 333 c 2,24,-1
 500 0 l 1,0,-1
354 124 m 2,25,-1
 354 218 l 1,26,-1
 254 218 l 2,27,28
 206 218 206 218 194 207 c 128,-1,29
 182 196 182 196 182 148 c 0,30,31
 182 101 182 101 194.5 91 c 128,-1,32
 207 81 207 81 258 81 c 0,33,34
 283 81 283 81 295 81.5 c 128,-1,35
 307 82 307 82 321 84 c 128,-1,36
 335 86 335 86 340.5 90.5 c 128,-1,37
 346 95 346 95 350 103 c 128,-1,38
 354 111 354 111 354 124 c 2,25,-1
432 553 m 1,39,-1
 334 553 l 1,40,-1
 281 640 l 1,41,-1
 229 553 l 1,42,-1
 131 553 l 1,43,-1
 187 680 l 1,44,-1
 374 680 l 1,45,-1
 432 553 l 1,39,-1
EndSplineSet
Substitution2: "<3,3> Small Caps in Latin lookup 11 subtable" acircumflex.smcp
EndChar

StartChar: atilde
Encoding: 227 227 164
Width: 564
Flags: W
LayerCount: 2
Fore
SplineSet
500 0 m 1,0,-1
 357 0 l 1,1,-1
 357 44 l 1,2,3
 341 15 341 15 311 2.5 c 128,-1,4
 281 -10 281 -10 201 -10 c 0,5,6
 103 -10 103 -10 71 20 c 128,-1,7
 39 50 39 50 39 145 c 0,8,9
 39 231 39 231 72 264.5 c 128,-1,10
 105 298 105 298 190 298 c 2,11,-1
 354 298 l 1,12,-1
 354 331 l 2,13,14
 354 375 354 375 333.5 389.5 c 128,-1,15
 313 404 313 404 247 404 c 0,16,17
 185 404 185 404 77 392 c 1,18,-1
 77 484 l 1,19,20
 160 494 160 494 262 494 c 0,21,22
 396 494 396 494 448 461.5 c 128,-1,23
 500 429 500 429 500 333 c 2,24,-1
 500 0 l 1,0,-1
354 124 m 2,25,-1
 354 218 l 1,26,-1
 254 218 l 2,27,28
 206 218 206 218 194 207 c 128,-1,29
 182 196 182 196 182 148 c 0,30,31
 182 101 182 101 194.5 91 c 128,-1,32
 207 81 207 81 258 81 c 0,33,34
 283 81 283 81 295 81.5 c 128,-1,35
 307 82 307 82 321 84 c 128,-1,36
 335 86 335 86 340.5 90.5 c 128,-1,37
 346 95 346 95 350 103 c 128,-1,38
 354 111 354 111 354 124 c 2,25,-1
344 659 m 0,39,40
 372 659 372 659 385 692 c 1,41,-1
 426 668 l 1,42,43
 419 644 419 644 395 615 c 128,-1,44
 371 586 371 586 335 586 c 0,45,46
 310 586 310 586 270 602.5 c 128,-1,47
 230 619 230 619 219 619 c 0,48,49
 190 619 190 619 177 586 c 1,50,-1
 137 610 l 1,51,52
 143 633 143 633 167.5 661 c 128,-1,53
 192 689 192 689 228 689 c 0,54,55
 251 689 251 689 289.5 674 c 128,-1,56
 328 659 328 659 344 659 c 0,39,40
EndSplineSet
Substitution2: "<3,3> Small Caps in Latin lookup 11 subtable" atilde.smcp
EndChar

StartChar: adieresis
Encoding: 228 228 165
Width: 564
Flags: W
LayerCount: 2
Fore
SplineSet
500 0 m 1,0,-1
 357 0 l 1,1,-1
 357 44 l 1,2,3
 341 15 341 15 311 2.5 c 128,-1,4
 281 -10 281 -10 201 -10 c 0,5,6
 103 -10 103 -10 71 20 c 128,-1,7
 39 50 39 50 39 145 c 0,8,9
 39 231 39 231 72 264.5 c 128,-1,10
 105 298 105 298 190 298 c 2,11,-1
 354 298 l 1,12,-1
 354 331 l 2,13,14
 354 375 354 375 333.5 389.5 c 128,-1,15
 313 404 313 404 247 404 c 0,16,17
 185 404 185 404 77 392 c 1,18,-1
 77 484 l 1,19,20
 160 494 160 494 262 494 c 0,21,22
 396 494 396 494 448 461.5 c 128,-1,23
 500 429 500 429 500 333 c 2,24,-1
 500 0 l 1,0,-1
354 124 m 2,25,-1
 354 218 l 1,26,-1
 254 218 l 2,27,28
 206 218 206 218 194 207 c 128,-1,29
 182 196 182 196 182 148 c 0,30,31
 182 101 182 101 194.5 91 c 128,-1,32
 207 81 207 81 258 81 c 0,33,34
 283 81 283 81 295 81.5 c 128,-1,35
 307 82 307 82 321 84 c 128,-1,36
 335 86 335 86 340.5 90.5 c 128,-1,37
 346 95 346 95 350 103 c 128,-1,38
 354 111 354 111 354 124 c 2,25,-1
440 565 m 1,39,-1
 314 565 l 1,40,-1
 314 683 l 1,41,-1
 440 683 l 1,42,-1
 440 565 l 1,39,-1
250 565 m 1,43,-1
 124 565 l 1,44,-1
 124 683 l 1,45,-1
 250 683 l 1,46,-1
 250 565 l 1,43,-1
EndSplineSet
Substitution2: "<3,3> Small Caps in Latin lookup 11 subtable" adieresis.smcp
EndChar

StartChar: aring
Encoding: 229 229 166
Width: 564
Flags: W
LayerCount: 2
Fore
SplineSet
500 0 m 1,0,-1
 357 0 l 1,1,-1
 357 44 l 1,2,3
 341 15 341 15 311 2.5 c 128,-1,4
 281 -10 281 -10 201 -10 c 0,5,6
 103 -10 103 -10 71 20 c 128,-1,7
 39 50 39 50 39 145 c 0,8,9
 39 231 39 231 72 264.5 c 128,-1,10
 105 298 105 298 190 298 c 2,11,-1
 354 298 l 1,12,-1
 354 331 l 2,13,14
 354 375 354 375 333.5 389.5 c 128,-1,15
 313 404 313 404 247 404 c 0,16,17
 185 404 185 404 77 392 c 1,18,-1
 77 484 l 1,19,20
 160 494 160 494 262 494 c 0,21,22
 396 494 396 494 448 461.5 c 128,-1,23
 500 429 500 429 500 333 c 2,24,-1
 500 0 l 1,0,-1
354 124 m 2,25,-1
 354 218 l 1,26,-1
 254 218 l 2,27,28
 206 218 206 218 194 207 c 128,-1,29
 182 196 182 196 182 148 c 0,30,31
 182 101 182 101 194.5 91 c 128,-1,32
 207 81 207 81 258 81 c 0,33,34
 283 81 283 81 295 81.5 c 128,-1,35
 307 82 307 82 321 84 c 128,-1,36
 335 86 335 86 340.5 90.5 c 128,-1,37
 346 95 346 95 350 103 c 128,-1,38
 354 111 354 111 354 124 c 2,25,-1
431 651 m 2,39,40
 431 618 431 618 420 597 c 128,-1,41
 409 576 409 576 385.5 567 c 128,-1,42
 362 558 362 558 340 555.5 c 128,-1,43
 318 553 318 553 282 553 c 128,-1,44
 246 553 246 553 224 555.5 c 128,-1,45
 202 558 202 558 178.5 567 c 128,-1,46
 155 576 155 576 144 597 c 128,-1,47
 133 618 133 618 133 651 c 2,48,-1
 133 663 l 2,49,50
 133 692 133 692 141.5 712 c 128,-1,51
 150 732 150 732 162 742.5 c 128,-1,52
 174 753 174 753 195.5 759 c 128,-1,53
 217 765 217 765 235 766 c 128,-1,54
 253 767 253 767 282 767 c 128,-1,55
 311 767 311 767 329 766 c 128,-1,56
 347 765 347 765 368.5 759 c 128,-1,57
 390 753 390 753 402 742.5 c 128,-1,58
 414 732 414 732 422.5 712 c 128,-1,59
 431 692 431 692 431 663 c 2,60,-1
 431 651 l 2,39,40
352 644 m 2,61,-1
 352 671 l 2,62,63
 352 700 352 700 340 707.5 c 128,-1,64
 328 715 328 715 282 715 c 128,-1,65
 236 715 236 715 224 707.5 c 128,-1,66
 212 700 212 700 212 671 c 2,67,-1
 212 644 l 2,68,69
 212 620 212 620 226.5 612.5 c 128,-1,70
 241 605 241 605 282 605 c 128,-1,71
 323 605 323 605 337.5 612.5 c 128,-1,72
 352 620 352 620 352 644 c 2,61,-1
EndSplineSet
Substitution2: "<3,3> Small Caps in Latin lookup 11 subtable" aring.smcp
EndChar

StartChar: ae
Encoding: 230 230 167
Width: 845
Flags: W
LayerCount: 2
Fore
SplineSet
797 203 m 1,0,-1
 488 203 l 1,1,-1
 488 159 l 2,2,3
 488 118 488 118 516 99.5 c 128,-1,4
 544 81 544 81 624 81 c 0,5,6
 694 81 694 81 784 102 c 1,7,-1
 784 9 l 1,8,9
 692 -10 692 -10 596 -10 c 0,10,11
 422 -10 422 -10 374 67 c 1,12,13
 351 22 351 22 317.5 6 c 128,-1,14
 284 -10 284 -10 201 -10 c 0,15,16
 103 -10 103 -10 71 20 c 128,-1,17
 39 50 39 50 39 145 c 0,18,19
 39 231 39 231 72 264.5 c 128,-1,20
 105 298 105 298 190 298 c 2,21,-1
 354 298 l 1,22,-1
 354 331 l 2,23,24
 354 375 354 375 333.5 389.5 c 128,-1,25
 313 404 313 404 247 404 c 0,26,27
 185 404 185 404 77 392 c 1,28,-1
 77 484 l 1,29,30
 160 494 160 494 262 494 c 0,31,32
 374 494 374 494 423 463 c 1,33,34
 475 494 475 494 578 494 c 0,35,36
 689 494 689 494 743 456 c 128,-1,37
 797 418 797 418 797 321 c 2,38,-1
 797 203 l 1,0,-1
354 124 m 2,39,-1
 354 218 l 1,40,-1
 254 218 l 2,41,42
 206 218 206 218 194 207 c 128,-1,43
 182 196 182 196 182 148 c 0,44,45
 182 101 182 101 194.5 91 c 128,-1,46
 207 81 207 81 258 81 c 0,47,48
 283 81 283 81 295 81.5 c 128,-1,49
 307 82 307 82 321 84 c 128,-1,50
 335 86 335 86 340.5 90.5 c 128,-1,51
 346 95 346 95 350 103 c 128,-1,52
 354 111 354 111 354 124 c 2,39,-1
659 286 m 1,53,-1
 659 356 l 2,54,55
 659 380 659 380 641.5 392 c 128,-1,56
 624 404 624 404 576 404 c 0,57,58
 523 404 523 404 505.5 392 c 128,-1,59
 488 380 488 380 488 356 c 2,60,-1
 488 286 l 1,61,-1
 659 286 l 1,53,-1
EndSplineSet
Substitution2: "<3,3> Small Caps in Latin lookup 11 subtable" ae.smcp
EndChar

StartChar: ccedilla
Encoding: 231 231 168
Width: 482
Flags: W
LayerCount: 2
Fore
SplineSet
464 7 m 1,0,1
 382 -8 382 -8 320 -9 c 1,2,-1
 291 -50 l 1,3,4
 332 -53 332 -53 360 -71.5 c 128,-1,5
 388 -90 388 -90 388 -129 c 0,6,7
 388 -174 388 -174 351.5 -197 c 128,-1,8
 315 -220 315 -220 268 -220 c 0,9,10
 212 -220 212 -220 177 -197 c 1,11,-1
 199 -151 l 1,12,13
 229 -169 229 -169 261 -169 c 0,14,15
 308 -169 308 -169 308 -134 c 0,16,17
 308 -96 308 -96 233 -96 c 2,18,-1
 193 -96 l 1,19,20
 194 -93 194 -93 204.5 -77.5 c 128,-1,21
 215 -62 215 -62 230.5 -39 c 128,-1,22
 246 -16 246 -16 251 -9 c 1,23,24
 208 -8 208 -8 176.5 -1.5 c 128,-1,25
 145 5 145 5 114 21.5 c 128,-1,26
 83 38 83 38 66.5 72 c 128,-1,27
 50 106 50 106 50 157 c 2,28,-1
 50 318 l 2,29,30
 50 354 50 354 58.5 381.5 c 128,-1,31
 67 409 67 409 79.5 427.5 c 128,-1,32
 92 446 92 446 114.5 459 c 128,-1,33
 137 472 137 472 156 478.5 c 128,-1,34
 175 485 175 485 205.5 489 c 128,-1,35
 236 493 236 493 256.5 493.5 c 128,-1,36
 277 494 277 494 310 494 c 0,37,38
 365 494 365 494 457 476 c 1,39,-1
 457 380 l 1,40,41
 353 404 353 404 299 404 c 0,42,43
 198 404 198 404 198 336 c 2,44,-1
 198 158 l 2,45,46
 198 81 198 81 309 81 c 0,47,48
 361 81 361 81 464 103 c 1,49,-1
 464 7 l 1,0,1
EndSplineSet
Substitution2: "<3,3> Small Caps in Latin lookup 11 subtable" ccedilla.smcp
EndChar

StartChar: egrave
Encoding: 232 232 169
Width: 559
Flags: W
LayerCount: 2
Fore
SplineSet
511 203 m 1,0,-1
 197 203 l 1,1,-1
 197 159 l 2,2,3
 197 118 197 118 226 99.5 c 128,-1,4
 255 81 255 81 335 81 c 0,5,6
 407 81 407 81 497 102 c 1,7,-1
 497 9 l 1,8,9
 405 -10 405 -10 307 -10 c 0,10,11
 50 -10 50 -10 50 147 c 2,12,-1
 50 321 l 2,13,14
 50 414 50 414 110 454 c 128,-1,15
 170 494 170 494 289 494 c 0,16,17
 401 494 401 494 456 456 c 128,-1,18
 511 418 511 418 511 321 c 2,19,-1
 511 203 l 1,0,-1
372 286 m 1,20,-1
 372 356 l 2,21,22
 372 379 372 379 353.5 391.5 c 128,-1,23
 335 404 335 404 287 404 c 0,24,25
 234 404 234 404 215.5 391.5 c 128,-1,26
 197 379 197 379 197 356 c 2,27,-1
 197 286 l 1,28,-1
 372 286 l 1,20,-1
353 553 m 1,29,-1
 229 553 l 1,30,-1
 104 680 l 1,31,-1
 263 680 l 1,32,-1
 353 553 l 1,29,-1
EndSplineSet
Substitution2: "<3,3> Small Caps in Latin lookup 11 subtable" egrave.smcp
EndChar

StartChar: eacute
Encoding: 233 233 170
Width: 559
Flags: W
LayerCount: 2
Fore
SplineSet
511 203 m 1,0,-1
 197 203 l 1,1,-1
 197 159 l 2,2,3
 197 118 197 118 226 99.5 c 128,-1,4
 255 81 255 81 335 81 c 0,5,6
 407 81 407 81 497 102 c 1,7,-1
 497 9 l 1,8,9
 405 -10 405 -10 307 -10 c 0,10,11
 50 -10 50 -10 50 147 c 2,12,-1
 50 321 l 2,13,14
 50 414 50 414 110 454 c 128,-1,15
 170 494 170 494 289 494 c 0,16,17
 401 494 401 494 456 456 c 128,-1,18
 511 418 511 418 511 321 c 2,19,-1
 511 203 l 1,0,-1
372 286 m 1,20,-1
 372 356 l 2,21,22
 372 379 372 379 353.5 391.5 c 128,-1,23
 335 404 335 404 287 404 c 0,24,25
 234 404 234 404 215.5 391.5 c 128,-1,26
 197 379 197 379 197 356 c 2,27,-1
 197 286 l 1,28,-1
 372 286 l 1,20,-1
461 680 m 1,29,-1
 336 553 l 1,30,-1
 212 553 l 1,31,-1
 302 680 l 1,32,-1
 461 680 l 1,29,-1
EndSplineSet
Substitution2: "<3,3> Small Caps in Latin lookup 11 subtable" eacute.smcp
EndChar

StartChar: ecircumflex
Encoding: 234 234 171
Width: 559
Flags: W
LayerCount: 2
Fore
SplineSet
511 203 m 1,0,-1
 197 203 l 1,1,-1
 197 159 l 2,2,3
 197 118 197 118 226 99.5 c 128,-1,4
 255 81 255 81 335 81 c 0,5,6
 407 81 407 81 497 102 c 1,7,-1
 497 9 l 1,8,9
 405 -10 405 -10 307 -10 c 0,10,11
 50 -10 50 -10 50 147 c 2,12,-1
 50 321 l 2,13,14
 50 414 50 414 110 454 c 128,-1,15
 170 494 170 494 289 494 c 0,16,17
 401 494 401 494 456 456 c 128,-1,18
 511 418 511 418 511 321 c 2,19,-1
 511 203 l 1,0,-1
372 286 m 1,20,-1
 372 356 l 2,21,22
 372 379 372 379 353.5 391.5 c 128,-1,23
 335 404 335 404 287 404 c 0,24,25
 234 404 234 404 215.5 391.5 c 128,-1,26
 197 379 197 379 197 356 c 2,27,-1
 197 286 l 1,28,-1
 372 286 l 1,20,-1
438 553 m 1,29,-1
 340 553 l 1,30,-1
 287 640 l 1,31,-1
 235 553 l 1,32,-1
 137 553 l 1,33,-1
 193 680 l 1,34,-1
 380 680 l 1,35,-1
 438 553 l 1,29,-1
EndSplineSet
Substitution2: "<3,3> Small Caps in Latin lookup 11 subtable" ecircumflex.smcp
EndChar

StartChar: edieresis
Encoding: 235 235 172
Width: 559
Flags: W
LayerCount: 2
Fore
SplineSet
511 203 m 1,0,-1
 197 203 l 1,1,-1
 197 159 l 2,2,3
 197 118 197 118 226 99.5 c 128,-1,4
 255 81 255 81 335 81 c 0,5,6
 407 81 407 81 497 102 c 1,7,-1
 497 9 l 1,8,9
 405 -10 405 -10 307 -10 c 0,10,11
 50 -10 50 -10 50 147 c 2,12,-1
 50 321 l 2,13,14
 50 414 50 414 110 454 c 128,-1,15
 170 494 170 494 289 494 c 0,16,17
 401 494 401 494 456 456 c 128,-1,18
 511 418 511 418 511 321 c 2,19,-1
 511 203 l 1,0,-1
372 286 m 1,20,-1
 372 356 l 2,21,22
 372 379 372 379 353.5 391.5 c 128,-1,23
 335 404 335 404 287 404 c 0,24,25
 234 404 234 404 215.5 391.5 c 128,-1,26
 197 379 197 379 197 356 c 2,27,-1
 197 286 l 1,28,-1
 372 286 l 1,20,-1
437 565 m 1,29,-1
 311 565 l 1,30,-1
 311 683 l 1,31,-1
 437 683 l 1,32,-1
 437 565 l 1,29,-1
247 565 m 1,33,-1
 121 565 l 1,34,-1
 121 683 l 1,35,-1
 247 683 l 1,36,-1
 247 565 l 1,33,-1
EndSplineSet
Substitution2: "<3,3> Small Caps in Latin lookup 11 subtable" edieresis.smcp
EndChar

StartChar: igrave
Encoding: 236 236 173
Width: 282
Flags: W
LayerCount: 2
Fore
SplineSet
214 0 m 1,0,-1
 68 0 l 1,1,-1
 68 484 l 1,2,-1
 214 484 l 1,3,-1
 214 0 l 1,0,-1
266 553 m 1,4,-1
 142 553 l 1,5,-1
 17 680 l 1,6,-1
 176 680 l 1,7,-1
 266 553 l 1,4,-1
EndSplineSet
Substitution2: "<3,3> Small Caps in Latin lookup 11 subtable" igrave.smcp
EndChar

StartChar: iacute
Encoding: 237 237 174
Width: 282
Flags: W
LayerCount: 2
Fore
SplineSet
214 0 m 1,0,-1
 68 0 l 1,1,-1
 68 484 l 1,2,-1
 214 484 l 1,3,-1
 214 0 l 1,0,-1
266 680 m 1,4,-1
 141 553 l 1,5,-1
 17 553 l 1,6,-1
 107 680 l 1,7,-1
 266 680 l 1,4,-1
EndSplineSet
Substitution2: "<3,3> Small Caps in Latin lookup 11 subtable" iacute.smcp
EndChar

StartChar: icircumflex
Encoding: 238 238 175
Width: 282
Flags: W
LayerCount: 2
Fore
SplineSet
214 0 m 1,0,-1
 68 0 l 1,1,-1
 68 484 l 1,2,-1
 214 484 l 1,3,-1
 214 0 l 1,0,-1
292 553 m 1,4,-1
 194 553 l 1,5,-1
 141 640 l 1,6,-1
 89 553 l 1,7,-1
 -9 553 l 1,8,-1
 47 680 l 1,9,-1
 234 680 l 1,10,-1
 292 553 l 1,4,-1
EndSplineSet
Substitution2: "<3,3> Small Caps in Latin lookup 11 subtable" icircumflex.smcp
EndChar

StartChar: idieresis
Encoding: 239 239 176
Width: 282
Flags: W
LayerCount: 2
Fore
SplineSet
214 0 m 1,0,-1
 68 0 l 1,1,-1
 68 484 l 1,2,-1
 214 484 l 1,3,-1
 214 0 l 1,0,-1
299 565 m 1,4,-1
 173 565 l 1,5,-1
 173 683 l 1,6,-1
 299 683 l 1,7,-1
 299 565 l 1,4,-1
109 565 m 1,8,-1
 -17 565 l 1,9,-1
 -17 683 l 1,10,-1
 109 683 l 1,11,-1
 109 565 l 1,8,-1
EndSplineSet
Substitution2: "<3,3> Small Caps in Latin lookup 11 subtable" idieresis.smcp
EndChar

StartChar: eth
Encoding: 240 240 177
Width: 592
Flags: W
LayerCount: 2
Fore
SplineSet
219 555 m 1,0,-1
 219 622 l 1,1,-1
 272 638 l 1,2,3
 252 660 252 660 212 700 c 1,4,-1
 354 700 l 1,5,6
 369 686 369 686 383 671 c 1,7,-1
 480 700 l 1,8,-1
 480 633 l 1,9,-1
 430 618 l 1,10,11
 542 478 542 478 542 321 c 2,12,-1
 542 166 l 2,13,14
 542 119 542 119 527 85.5 c 128,-1,15
 512 52 512 52 490 33.5 c 128,-1,16
 468 15 468 15 432.5 5 c 128,-1,17
 397 -5 397 -5 367.5 -7.5 c 128,-1,18
 338 -10 338 -10 296 -10 c 128,-1,19
 254 -10 254 -10 224.5 -7.5 c 128,-1,20
 195 -5 195 -5 159.5 5 c 128,-1,21
 124 15 124 15 102 33.5 c 128,-1,22
 80 52 80 52 65 85.5 c 128,-1,23
 50 119 50 119 50 166 c 2,24,-1
 50 309 l 2,25,26
 50 359 50 359 65.5 394.5 c 128,-1,27
 81 430 81 430 103.5 449 c 128,-1,28
 126 468 126 468 162 478.5 c 128,-1,29
 198 489 198 489 226.5 491.5 c 128,-1,30
 255 494 255 494 296 494 c 0,31,32
 340 494 340 494 376 490 c 1,33,34
 351 538 351 538 316 584 c 1,35,-1
 219 555 l 1,0,-1
396 149 m 2,36,-1
 396 332 l 2,37,38
 396 371 396 371 376 387.5 c 128,-1,39
 356 404 356 404 296 404 c 128,-1,40
 236 404 236 404 216 387.5 c 128,-1,41
 196 371 196 371 196 332 c 2,42,-1
 196 149 l 2,43,44
 196 111 196 111 215.5 96 c 128,-1,45
 235 81 235 81 296 81 c 128,-1,46
 357 81 357 81 376.5 96 c 128,-1,47
 396 111 396 111 396 149 c 2,36,-1
EndSplineSet
Substitution2: "<3,3> Small Caps in Latin lookup 11 subtable" eth.smcp
EndChar

StartChar: ntilde
Encoding: 241 241 178
Width: 595
Flags: W
LayerCount: 2
Fore
SplineSet
531 0 m 1,0,-1
 385 0 l 1,1,-1
 385 336 l 2,2,3
 385 376 385 376 371.5 390 c 128,-1,4
 358 404 358 404 307 404 c 0,5,6
 244 404 244 404 227 390.5 c 128,-1,7
 210 377 210 377 210 336 c 2,8,-1
 210 0 l 1,9,-1
 64 0 l 1,10,-1
 64 484 l 1,11,-1
 208 484 l 1,12,-1
 208 425 l 1,13,14
 225 494 225 494 363 494 c 0,15,16
 459 494 459 494 495 459.5 c 128,-1,17
 531 425 531 425 531 355 c 2,18,-1
 531 0 l 1,0,-1
360 659 m 0,19,20
 388 659 388 659 401 692 c 1,21,-1
 442 668 l 1,22,23
 435 644 435 644 411 615 c 128,-1,24
 387 586 387 586 351 586 c 0,25,26
 326 586 326 586 286 602.5 c 128,-1,27
 246 619 246 619 235 619 c 0,28,29
 206 619 206 619 193 586 c 1,30,-1
 153 610 l 1,31,32
 159 633 159 633 183.5 661 c 128,-1,33
 208 689 208 689 244 689 c 0,34,35
 267 689 267 689 305.5 674 c 128,-1,36
 344 659 344 659 360 659 c 0,19,20
EndSplineSet
Substitution2: "<3,3> Small Caps in Latin lookup 11 subtable" ntilde.smcp
EndChar

StartChar: ograve
Encoding: 242 242 179
Width: 592
Flags: W
LayerCount: 2
Fore
SplineSet
542 309 m 2,0,-1
 542 166 l 2,1,2
 542 119 542 119 527 85.5 c 128,-1,3
 512 52 512 52 490 33.5 c 128,-1,4
 468 15 468 15 432.5 5 c 128,-1,5
 397 -5 397 -5 367.5 -7.5 c 128,-1,6
 338 -10 338 -10 296 -10 c 128,-1,7
 254 -10 254 -10 224.5 -7.5 c 128,-1,8
 195 -5 195 -5 159.5 5 c 128,-1,9
 124 15 124 15 102 33.5 c 128,-1,10
 80 52 80 52 65 85.5 c 128,-1,11
 50 119 50 119 50 166 c 2,12,-1
 50 309 l 2,13,14
 50 359 50 359 65.5 394.5 c 128,-1,15
 81 430 81 430 103.5 449 c 128,-1,16
 126 468 126 468 162 478.5 c 128,-1,17
 198 489 198 489 226.5 491.5 c 128,-1,18
 255 494 255 494 296 494 c 128,-1,19
 337 494 337 494 365.5 491.5 c 128,-1,20
 394 489 394 489 430 478.5 c 128,-1,21
 466 468 466 468 488.5 449 c 128,-1,22
 511 430 511 430 526.5 394.5 c 128,-1,23
 542 359 542 359 542 309 c 2,0,-1
396 149 m 2,24,-1
 396 332 l 2,25,26
 396 371 396 371 376 387.5 c 128,-1,27
 356 404 356 404 296 404 c 128,-1,28
 236 404 236 404 216 387.5 c 128,-1,29
 196 371 196 371 196 332 c 2,30,-1
 196 149 l 2,31,32
 196 111 196 111 215.5 96 c 128,-1,33
 235 81 235 81 296 81 c 128,-1,34
 357 81 357 81 376.5 96 c 128,-1,35
 396 111 396 111 396 149 c 2,24,-1
365 553 m 1,36,-1
 241 553 l 1,37,-1
 116 680 l 1,38,-1
 275 680 l 1,39,-1
 365 553 l 1,36,-1
EndSplineSet
Substitution2: "<3,3> Small Caps in Latin lookup 11 subtable" ograve.smcp
EndChar

StartChar: oacute
Encoding: 243 243 180
Width: 592
Flags: W
LayerCount: 2
Fore
SplineSet
542 309 m 2,0,-1
 542 166 l 2,1,2
 542 119 542 119 527 85.5 c 128,-1,3
 512 52 512 52 490 33.5 c 128,-1,4
 468 15 468 15 432.5 5 c 128,-1,5
 397 -5 397 -5 367.5 -7.5 c 128,-1,6
 338 -10 338 -10 296 -10 c 128,-1,7
 254 -10 254 -10 224.5 -7.5 c 128,-1,8
 195 -5 195 -5 159.5 5 c 128,-1,9
 124 15 124 15 102 33.5 c 128,-1,10
 80 52 80 52 65 85.5 c 128,-1,11
 50 119 50 119 50 166 c 2,12,-1
 50 309 l 2,13,14
 50 359 50 359 65.5 394.5 c 128,-1,15
 81 430 81 430 103.5 449 c 128,-1,16
 126 468 126 468 162 478.5 c 128,-1,17
 198 489 198 489 226.5 491.5 c 128,-1,18
 255 494 255 494 296 494 c 128,-1,19
 337 494 337 494 365.5 491.5 c 128,-1,20
 394 489 394 489 430 478.5 c 128,-1,21
 466 468 466 468 488.5 449 c 128,-1,22
 511 430 511 430 526.5 394.5 c 128,-1,23
 542 359 542 359 542 309 c 2,0,-1
396 149 m 2,24,-1
 396 332 l 2,25,26
 396 371 396 371 376 387.5 c 128,-1,27
 356 404 356 404 296 404 c 128,-1,28
 236 404 236 404 216 387.5 c 128,-1,29
 196 371 196 371 196 332 c 2,30,-1
 196 149 l 2,31,32
 196 111 196 111 215.5 96 c 128,-1,33
 235 81 235 81 296 81 c 128,-1,34
 357 81 357 81 376.5 96 c 128,-1,35
 396 111 396 111 396 149 c 2,24,-1
474 680 m 1,36,-1
 349 553 l 1,37,-1
 225 553 l 1,38,-1
 315 680 l 1,39,-1
 474 680 l 1,36,-1
EndSplineSet
Substitution2: "<3,3> Small Caps in Latin lookup 11 subtable" oacute.smcp
EndChar

StartChar: ocircumflex
Encoding: 244 244 181
Width: 592
Flags: W
LayerCount: 2
Fore
SplineSet
542 309 m 2,0,-1
 542 166 l 2,1,2
 542 119 542 119 527 85.5 c 128,-1,3
 512 52 512 52 490 33.5 c 128,-1,4
 468 15 468 15 432.5 5 c 128,-1,5
 397 -5 397 -5 367.5 -7.5 c 128,-1,6
 338 -10 338 -10 296 -10 c 128,-1,7
 254 -10 254 -10 224.5 -7.5 c 128,-1,8
 195 -5 195 -5 159.5 5 c 128,-1,9
 124 15 124 15 102 33.5 c 128,-1,10
 80 52 80 52 65 85.5 c 128,-1,11
 50 119 50 119 50 166 c 2,12,-1
 50 309 l 2,13,14
 50 359 50 359 65.5 394.5 c 128,-1,15
 81 430 81 430 103.5 449 c 128,-1,16
 126 468 126 468 162 478.5 c 128,-1,17
 198 489 198 489 226.5 491.5 c 128,-1,18
 255 494 255 494 296 494 c 128,-1,19
 337 494 337 494 365.5 491.5 c 128,-1,20
 394 489 394 489 430 478.5 c 128,-1,21
 466 468 466 468 488.5 449 c 128,-1,22
 511 430 511 430 526.5 394.5 c 128,-1,23
 542 359 542 359 542 309 c 2,0,-1
396 149 m 2,24,-1
 396 332 l 2,25,26
 396 371 396 371 376 387.5 c 128,-1,27
 356 404 356 404 296 404 c 128,-1,28
 236 404 236 404 216 387.5 c 128,-1,29
 196 371 196 371 196 332 c 2,30,-1
 196 149 l 2,31,32
 196 111 196 111 215.5 96 c 128,-1,33
 235 81 235 81 296 81 c 128,-1,34
 357 81 357 81 376.5 96 c 128,-1,35
 396 111 396 111 396 149 c 2,24,-1
446 553 m 1,36,-1
 348 553 l 1,37,-1
 295 640 l 1,38,-1
 243 553 l 1,39,-1
 145 553 l 1,40,-1
 201 680 l 1,41,-1
 388 680 l 1,42,-1
 446 553 l 1,36,-1
EndSplineSet
Substitution2: "<3,3> Small Caps in Latin lookup 11 subtable" ocircumflex.smcp
EndChar

StartChar: otilde
Encoding: 245 245 182
Width: 592
Flags: W
LayerCount: 2
Fore
SplineSet
542 309 m 2,0,-1
 542 166 l 2,1,2
 542 119 542 119 527 85.5 c 128,-1,3
 512 52 512 52 490 33.5 c 128,-1,4
 468 15 468 15 432.5 5 c 128,-1,5
 397 -5 397 -5 367.5 -7.5 c 128,-1,6
 338 -10 338 -10 296 -10 c 128,-1,7
 254 -10 254 -10 224.5 -7.5 c 128,-1,8
 195 -5 195 -5 159.5 5 c 128,-1,9
 124 15 124 15 102 33.5 c 128,-1,10
 80 52 80 52 65 85.5 c 128,-1,11
 50 119 50 119 50 166 c 2,12,-1
 50 309 l 2,13,14
 50 359 50 359 65.5 394.5 c 128,-1,15
 81 430 81 430 103.5 449 c 128,-1,16
 126 468 126 468 162 478.5 c 128,-1,17
 198 489 198 489 226.5 491.5 c 128,-1,18
 255 494 255 494 296 494 c 128,-1,19
 337 494 337 494 365.5 491.5 c 128,-1,20
 394 489 394 489 430 478.5 c 128,-1,21
 466 468 466 468 488.5 449 c 128,-1,22
 511 430 511 430 526.5 394.5 c 128,-1,23
 542 359 542 359 542 309 c 2,0,-1
396 149 m 2,24,-1
 396 332 l 2,25,26
 396 371 396 371 376 387.5 c 128,-1,27
 356 404 356 404 296 404 c 128,-1,28
 236 404 236 404 216 387.5 c 128,-1,29
 196 371 196 371 196 332 c 2,30,-1
 196 149 l 2,31,32
 196 111 196 111 215.5 96 c 128,-1,33
 235 81 235 81 296 81 c 128,-1,34
 357 81 357 81 376.5 96 c 128,-1,35
 396 111 396 111 396 149 c 2,24,-1
358 659 m 0,36,37
 386 659 386 659 399 692 c 1,38,-1
 440 668 l 1,39,40
 433 644 433 644 409 615 c 128,-1,41
 385 586 385 586 349 586 c 0,42,43
 324 586 324 586 284 602.5 c 128,-1,44
 244 619 244 619 233 619 c 0,45,46
 204 619 204 619 191 586 c 1,47,-1
 151 610 l 1,48,49
 157 633 157 633 181.5 661 c 128,-1,50
 206 689 206 689 242 689 c 0,51,52
 265 689 265 689 303.5 674 c 128,-1,53
 342 659 342 659 358 659 c 0,36,37
EndSplineSet
Substitution2: "<3,3> Small Caps in Latin lookup 11 subtable" otilde.smcp
EndChar

StartChar: odieresis
Encoding: 246 246 183
Width: 592
Flags: W
LayerCount: 2
Fore
SplineSet
542 309 m 2,0,-1
 542 166 l 2,1,2
 542 119 542 119 527 85.5 c 128,-1,3
 512 52 512 52 490 33.5 c 128,-1,4
 468 15 468 15 432.5 5 c 128,-1,5
 397 -5 397 -5 367.5 -7.5 c 128,-1,6
 338 -10 338 -10 296 -10 c 128,-1,7
 254 -10 254 -10 224.5 -7.5 c 128,-1,8
 195 -5 195 -5 159.5 5 c 128,-1,9
 124 15 124 15 102 33.5 c 128,-1,10
 80 52 80 52 65 85.5 c 128,-1,11
 50 119 50 119 50 166 c 2,12,-1
 50 309 l 2,13,14
 50 359 50 359 65.5 394.5 c 128,-1,15
 81 430 81 430 103.5 449 c 128,-1,16
 126 468 126 468 162 478.5 c 128,-1,17
 198 489 198 489 226.5 491.5 c 128,-1,18
 255 494 255 494 296 494 c 128,-1,19
 337 494 337 494 365.5 491.5 c 128,-1,20
 394 489 394 489 430 478.5 c 128,-1,21
 466 468 466 468 488.5 449 c 128,-1,22
 511 430 511 430 526.5 394.5 c 128,-1,23
 542 359 542 359 542 309 c 2,0,-1
396 149 m 2,24,-1
 396 332 l 2,25,26
 396 371 396 371 376 387.5 c 128,-1,27
 356 404 356 404 296 404 c 128,-1,28
 236 404 236 404 216 387.5 c 128,-1,29
 196 371 196 371 196 332 c 2,30,-1
 196 149 l 2,31,32
 196 111 196 111 215.5 96 c 128,-1,33
 235 81 235 81 296 81 c 128,-1,34
 357 81 357 81 376.5 96 c 128,-1,35
 396 111 396 111 396 149 c 2,24,-1
454 565 m 1,36,-1
 328 565 l 1,37,-1
 328 683 l 1,38,-1
 454 683 l 1,39,-1
 454 565 l 1,36,-1
264 565 m 1,40,-1
 138 565 l 1,41,-1
 138 683 l 1,42,-1
 264 683 l 1,43,-1
 264 565 l 1,40,-1
EndSplineSet
Substitution2: "<3,3> Small Caps in Latin lookup 11 subtable" odieresis.smcp
EndChar

StartChar: divide
Encoding: 247 247 184
Width: 580
Flags: W
LayerCount: 2
Fore
SplineSet
510 264 m 1,0,-1
 70 264 l 1,1,-1
 70 365 l 1,2,-1
 510 365 l 1,3,-1
 510 264 l 1,0,-1
358 426 m 1,4,-1
 222 426 l 1,5,-1
 222 554 l 1,6,-1
 358 554 l 1,7,-1
 358 426 l 1,4,-1
358 70 m 1,8,-1
 222 70 l 1,9,-1
 222 198 l 1,10,-1
 358 198 l 1,11,-1
 358 70 l 1,8,-1
EndSplineSet
EndChar

StartChar: oslash
Encoding: 248 248 185
Width: 597
Flags: W
LayerCount: 2
Fore
SplineSet
546 166 m 2,0,1
 546 119 546 119 530.5 85.5 c 128,-1,2
 515 52 515 52 493 33.5 c 128,-1,3
 471 15 471 15 435 5 c 128,-1,4
 399 -5 399 -5 369.5 -7.5 c 128,-1,5
 340 -10 340 -10 298 -10 c 128,-1,6
 256 -10 256 -10 226.5 -7.5 c 128,-1,7
 197 -5 197 -5 161 5 c 128,-1,8
 125 15 125 15 103 33.5 c 128,-1,9
 81 52 81 52 65.5 85.5 c 128,-1,10
 50 119 50 119 50 166 c 2,11,-1
 50 309 l 2,12,13
 50 359 50 359 66 394.5 c 128,-1,14
 82 430 82 430 104.5 449 c 128,-1,15
 127 468 127 468 163 478.5 c 128,-1,16
 199 489 199 489 228 491.5 c 128,-1,17
 257 494 257 494 298 494 c 128,-1,18
 339 494 339 494 368 491.5 c 128,-1,19
 397 489 397 489 433 478.5 c 128,-1,20
 469 468 469 468 491.5 449 c 128,-1,21
 514 430 514 430 530 394.5 c 128,-1,22
 546 359 546 359 546 309 c 2,23,-1
 546 166 l 2,0,1
359 404 m 1,24,25
 338 411 338 411 298 411 c 0,26,27
 237 411 237 411 216.5 394.5 c 128,-1,28
 196 378 196 378 196 338 c 2,29,-1
 196 151 l 1,30,-1
 359 404 l 1,24,25
400 141 m 2,31,-1
 400 330 l 1,32,-1
 239 80 l 1,33,34
 256 75 256 75 298 75 c 0,35,36
 360 75 360 75 380 88.5 c 128,-1,37
 400 102 400 102 400 141 c 2,31,-1
EndSplineSet
Substitution2: "<3,3> Small Caps in Latin lookup 11 subtable" oslash.smcp
EndChar

StartChar: ugrave
Encoding: 249 249 186
Width: 595
Flags: W
LayerCount: 2
Fore
SplineSet
531 0 m 1,0,-1
 387 0 l 1,1,-1
 387 59 l 1,2,3
 370 -10 370 -10 232 -10 c 0,4,5
 136 -10 136 -10 100 24.5 c 128,-1,6
 64 59 64 59 64 129 c 2,7,-1
 64 484 l 1,8,-1
 210 484 l 1,9,-1
 210 149 l 2,10,11
 210 109 210 109 223.5 95 c 128,-1,12
 237 81 237 81 288 81 c 0,13,14
 351 81 351 81 368 94.5 c 128,-1,15
 385 108 385 108 385 149 c 2,16,-1
 385 484 l 1,17,-1
 531 484 l 1,18,-1
 531 0 l 1,0,-1
422 553 m 1,19,-1
 298 553 l 1,20,-1
 173 680 l 1,21,-1
 332 680 l 1,22,-1
 422 553 l 1,19,-1
EndSplineSet
Substitution2: "<3,3> Small Caps in Latin lookup 11 subtable" ugrave.smcp
EndChar

StartChar: uacute
Encoding: 250 250 187
Width: 595
Flags: W
LayerCount: 2
Fore
SplineSet
531 0 m 1,0,-1
 387 0 l 1,1,-1
 387 59 l 1,2,3
 370 -10 370 -10 232 -10 c 0,4,5
 136 -10 136 -10 100 24.5 c 128,-1,6
 64 59 64 59 64 129 c 2,7,-1
 64 484 l 1,8,-1
 210 484 l 1,9,-1
 210 149 l 2,10,11
 210 109 210 109 223.5 95 c 128,-1,12
 237 81 237 81 288 81 c 0,13,14
 351 81 351 81 368 94.5 c 128,-1,15
 385 108 385 108 385 149 c 2,16,-1
 385 484 l 1,17,-1
 531 484 l 1,18,-1
 531 0 l 1,0,-1
422 680 m 1,19,-1
 297 553 l 1,20,-1
 173 553 l 1,21,-1
 263 680 l 1,22,-1
 422 680 l 1,19,-1
EndSplineSet
Substitution2: "<3,3> Small Caps in Latin lookup 11 subtable" uacute.smcp
EndChar

StartChar: ucircumflex
Encoding: 251 251 188
Width: 595
Flags: W
LayerCount: 2
Fore
SplineSet
531 0 m 1,0,-1
 387 0 l 1,1,-1
 387 59 l 1,2,3
 370 -10 370 -10 232 -10 c 0,4,5
 136 -10 136 -10 100 24.5 c 128,-1,6
 64 59 64 59 64 129 c 2,7,-1
 64 484 l 1,8,-1
 210 484 l 1,9,-1
 210 149 l 2,10,11
 210 109 210 109 223.5 95 c 128,-1,12
 237 81 237 81 288 81 c 0,13,14
 351 81 351 81 368 94.5 c 128,-1,15
 385 108 385 108 385 149 c 2,16,-1
 385 484 l 1,17,-1
 531 484 l 1,18,-1
 531 0 l 1,0,-1
448 553 m 1,19,-1
 350 553 l 1,20,-1
 297 640 l 1,21,-1
 245 553 l 1,22,-1
 147 553 l 1,23,-1
 203 680 l 1,24,-1
 390 680 l 1,25,-1
 448 553 l 1,19,-1
EndSplineSet
Substitution2: "<3,3> Small Caps in Latin lookup 11 subtable" ucircumflex.smcp
EndChar

StartChar: udieresis
Encoding: 252 252 189
Width: 595
Flags: W
LayerCount: 2
Fore
SplineSet
531 0 m 1,0,-1
 387 0 l 1,1,-1
 387 59 l 1,2,3
 370 -10 370 -10 232 -10 c 0,4,5
 136 -10 136 -10 100 24.5 c 128,-1,6
 64 59 64 59 64 129 c 2,7,-1
 64 484 l 1,8,-1
 210 484 l 1,9,-1
 210 149 l 2,10,11
 210 109 210 109 223.5 95 c 128,-1,12
 237 81 237 81 288 81 c 0,13,14
 351 81 351 81 368 94.5 c 128,-1,15
 385 108 385 108 385 149 c 2,16,-1
 385 484 l 1,17,-1
 531 484 l 1,18,-1
 531 0 l 1,0,-1
455 565 m 1,19,-1
 329 565 l 1,20,-1
 329 683 l 1,21,-1
 455 683 l 1,22,-1
 455 565 l 1,19,-1
265 565 m 1,23,-1
 139 565 l 1,24,-1
 139 683 l 1,25,-1
 265 683 l 1,26,-1
 265 565 l 1,23,-1
EndSplineSet
Substitution2: "<3,3> Small Caps in Latin lookup 11 subtable" udieresis.smcp
EndChar

StartChar: yacute
Encoding: 253 253 190
Width: 534
Flags: W
LayerCount: 2
Fore
SplineSet
526 484 m 1,0,-1
 261 -208 l 1,1,-1
 113 -208 l 1,2,-1
 201 4 l 1,3,-1
 8 484 l 1,4,-1
 167 484 l 1,5,-1
 276 142 l 1,6,-1
 375 484 l 1,7,-1
 526 484 l 1,0,-1
429 680 m 1,8,-1
 304 553 l 1,9,-1
 180 553 l 1,10,-1
 270 680 l 1,11,-1
 429 680 l 1,8,-1
EndSplineSet
Substitution2: "<3,3> Small Caps in Latin lookup 11 subtable" yacute.smcp
EndChar

StartChar: thorn
Encoding: 254 254 191
Width: 613
Flags: W
LayerCount: 2
Fore
SplineSet
559 331 m 2,0,-1
 559 172 l 2,1,2
 559 64 559 64 511 27 c 128,-1,3
 463 -10 463 -10 355 -10 c 0,4,5
 287 -10 287 -10 253.5 1 c 128,-1,6
 220 12 220 12 210 49 c 1,7,-1
 210 -209 l 1,8,-1
 64 -209 l 1,9,-1
 64 700 l 1,10,-1
 210 700 l 1,11,-1
 210 450 l 1,12,13
 241 494 241 494 366 494 c 0,14,15
 428 494 428 494 467 484 c 128,-1,16
 506 474 506 474 526 451.5 c 128,-1,17
 546 429 546 429 552.5 402 c 128,-1,18
 559 375 559 375 559 331 c 2,0,-1
413 153 m 2,19,-1
 413 332 l 2,20,21
 413 379 413 379 395.5 391.5 c 128,-1,22
 378 404 378 404 309 404 c 0,23,24
 247 404 247 404 228.5 388 c 128,-1,25
 210 372 210 372 210 332 c 2,26,-1
 210 153 l 2,27,28
 210 110 210 110 228 95.5 c 128,-1,29
 246 81 246 81 310 81 c 128,-1,30
 374 81 374 81 393.5 95.5 c 128,-1,31
 413 110 413 110 413 153 c 2,19,-1
EndSplineSet
Substitution2: "<3,3> Small Caps in Latin lookup 11 subtable" thorn.smcp
EndChar

StartChar: ydieresis
Encoding: 255 255 192
Width: 534
Flags: W
LayerCount: 2
Fore
SplineSet
526 484 m 1,0,-1
 261 -208 l 1,1,-1
 113 -208 l 1,2,-1
 201 4 l 1,3,-1
 8 484 l 1,4,-1
 167 484 l 1,5,-1
 276 142 l 1,6,-1
 375 484 l 1,7,-1
 526 484 l 1,0,-1
416 565 m 1,8,-1
 290 565 l 1,9,-1
 290 683 l 1,10,-1
 416 683 l 1,11,-1
 416 565 l 1,8,-1
226 565 m 1,12,-1
 100 565 l 1,13,-1
 100 683 l 1,14,-1
 226 683 l 1,15,-1
 226 565 l 1,12,-1
EndSplineSet
Substitution2: "<3,3> Small Caps in Latin lookup 11 subtable" ydieresis.smcp
EndChar

StartChar: Amacron
Encoding: 256 256 193
Width: 668
Flags: W
LayerCount: 2
Fore
SplineSet
666 0 m 1,0,-1
 508 0 l 1,1,-1
 450 171 l 1,2,-1
 213 171 l 1,3,-1
 156 0 l 1,4,-1
 2 0 l 1,5,-1
 242 649 l 1,6,-1
 432 649 l 1,7,-1
 666 0 l 1,0,-1
416 275 m 1,8,-1
 334 519 l 1,9,-1
 330 519 l 1,10,-1
 248 275 l 1,11,-1
 416 275 l 1,8,-1
473 725 m 1,12,-1
 195 725 l 1,13,-1
 195 814 l 1,14,-1
 473 814 l 1,15,-1
 473 725 l 1,12,-1
EndSplineSet
EndChar

StartChar: amacron
Encoding: 257 257 194
Width: 564
Flags: W
LayerCount: 2
Fore
SplineSet
500 0 m 1,0,-1
 357 0 l 1,1,-1
 357 44 l 1,2,3
 341 15 341 15 311 2.5 c 128,-1,4
 281 -10 281 -10 201 -10 c 0,5,6
 103 -10 103 -10 71 20 c 128,-1,7
 39 50 39 50 39 145 c 0,8,9
 39 231 39 231 72 264.5 c 128,-1,10
 105 298 105 298 190 298 c 2,11,-1
 354 298 l 1,12,-1
 354 331 l 2,13,14
 354 375 354 375 333.5 389.5 c 128,-1,15
 313 404 313 404 247 404 c 0,16,17
 185 404 185 404 77 392 c 1,18,-1
 77 484 l 1,19,20
 160 494 160 494 262 494 c 0,21,22
 396 494 396 494 448 461.5 c 128,-1,23
 500 429 500 429 500 333 c 2,24,-1
 500 0 l 1,0,-1
354 124 m 2,25,-1
 354 218 l 1,26,-1
 254 218 l 2,27,28
 206 218 206 218 194 207 c 128,-1,29
 182 196 182 196 182 148 c 0,30,31
 182 101 182 101 194.5 91 c 128,-1,32
 207 81 207 81 258 81 c 0,33,34
 283 81 283 81 295 81.5 c 128,-1,35
 307 82 307 82 321 84 c 128,-1,36
 335 86 335 86 340.5 90.5 c 128,-1,37
 346 95 346 95 350 103 c 128,-1,38
 354 111 354 111 354 124 c 2,25,-1
421 560 m 1,39,-1
 143 560 l 1,40,-1
 143 649 l 1,41,-1
 421 649 l 1,42,-1
 421 560 l 1,39,-1
EndSplineSet
Substitution2: "<3,3> Small Caps in Latin lookup 11 subtable" amacron.smcp
EndChar

StartChar: Abreve
Encoding: 258 258 195
Width: 668
Flags: W
LayerCount: 2
Fore
SplineSet
666 0 m 1,0,-1
 508 0 l 1,1,-1
 450 171 l 1,2,-1
 213 171 l 1,3,-1
 156 0 l 1,4,-1
 2 0 l 1,5,-1
 242 649 l 1,6,-1
 432 649 l 1,7,-1
 666 0 l 1,0,-1
416 275 m 1,8,-1
 334 519 l 1,9,-1
 330 519 l 1,10,-1
 248 275 l 1,11,-1
 416 275 l 1,8,-1
472 845 m 1,12,13
 468 788 468 788 431.5 753 c 128,-1,14
 395 718 395 718 334 718 c 0,15,16
 272 718 272 718 235.5 753 c 128,-1,17
 199 788 199 788 196 845 c 1,18,-1
 277 845 l 1,19,20
 283 816 283 816 295 803 c 128,-1,21
 307 790 307 790 334 790 c 0,22,23
 384 790 384 790 390 845 c 1,24,-1
 472 845 l 1,12,13
EndSplineSet
EndChar

StartChar: abreve
Encoding: 259 259 196
Width: 564
Flags: W
LayerCount: 2
Fore
SplineSet
500 0 m 1,0,-1
 357 0 l 1,1,-1
 357 44 l 1,2,3
 341 15 341 15 311 2.5 c 128,-1,4
 281 -10 281 -10 201 -10 c 0,5,6
 103 -10 103 -10 71 20 c 128,-1,7
 39 50 39 50 39 145 c 0,8,9
 39 231 39 231 72 264.5 c 128,-1,10
 105 298 105 298 190 298 c 2,11,-1
 354 298 l 1,12,-1
 354 331 l 2,13,14
 354 375 354 375 333.5 389.5 c 128,-1,15
 313 404 313 404 247 404 c 0,16,17
 185 404 185 404 77 392 c 1,18,-1
 77 484 l 1,19,20
 160 494 160 494 262 494 c 0,21,22
 396 494 396 494 448 461.5 c 128,-1,23
 500 429 500 429 500 333 c 2,24,-1
 500 0 l 1,0,-1
354 124 m 2,25,-1
 354 218 l 1,26,-1
 254 218 l 2,27,28
 206 218 206 218 194 207 c 128,-1,29
 182 196 182 196 182 148 c 0,30,31
 182 101 182 101 194.5 91 c 128,-1,32
 207 81 207 81 258 81 c 0,33,34
 283 81 283 81 295 81.5 c 128,-1,35
 307 82 307 82 321 84 c 128,-1,36
 335 86 335 86 340.5 90.5 c 128,-1,37
 346 95 346 95 350 103 c 128,-1,38
 354 111 354 111 354 124 c 2,25,-1
420 680 m 1,39,40
 416 623 416 623 379.5 588 c 128,-1,41
 343 553 343 553 282 553 c 0,42,43
 220 553 220 553 183.5 588 c 128,-1,44
 147 623 147 623 144 680 c 1,45,-1
 225 680 l 1,46,47
 231 651 231 651 243 638 c 128,-1,48
 255 625 255 625 282 625 c 0,49,50
 332 625 332 625 338 680 c 1,51,-1
 420 680 l 1,39,40
EndSplineSet
Substitution2: "<3,3> Small Caps in Latin lookup 11 subtable" abreve.smcp
EndChar

StartChar: Aogonek
Encoding: 260 260 197
Width: 668
Flags: W
LayerCount: 2
Fore
SplineSet
582 -186 m 0,0,1
 537 -186 537 -186 510 -165 c 128,-1,2
 483 -144 483 -144 483 -106 c 0,3,4
 483 -48 483 -48 508 0 c 1,5,-1
 450 171 l 1,6,-1
 213 171 l 1,7,-1
 156 0 l 1,8,-1
 2 0 l 1,9,-1
 242 649 l 1,10,-1
 432 649 l 1,11,-1
 666 0 l 1,12,13
 595 -25 595 -25 595 -86 c 0,14,15
 595 -115 595 -115 622 -115 c 0,16,17
 634 -115 634 -115 652 -109 c 1,18,-1
 652 -176 l 1,19,20
 631 -186 631 -186 582 -186 c 0,0,1
416 275 m 1,21,-1
 334 519 l 1,22,-1
 330 519 l 1,23,-1
 248 275 l 1,24,-1
 416 275 l 1,21,-1
EndSplineSet
EndChar

StartChar: aogonek
Encoding: 261 261 198
Width: 564
Flags: W
LayerCount: 2
Fore
SplineSet
446 -186 m 0,0,1
 396 -186 396 -186 371.5 -167.5 c 128,-1,2
 347 -149 347 -149 347 -106 c 0,3,4
 347 -86 347 -86 352 -50.5 c 128,-1,5
 357 -15 357 -15 357 0 c 2,6,-1
 357 44 l 1,7,8
 341 15 341 15 311 2.5 c 128,-1,9
 281 -10 281 -10 201 -10 c 0,10,11
 103 -10 103 -10 71 20 c 128,-1,12
 39 50 39 50 39 145 c 0,13,14
 39 231 39 231 72 264.5 c 128,-1,15
 105 298 105 298 190 298 c 2,16,-1
 354 298 l 1,17,-1
 354 331 l 2,18,19
 354 375 354 375 333.5 389.5 c 128,-1,20
 313 404 313 404 247 404 c 0,21,22
 185 404 185 404 77 392 c 1,23,-1
 77 484 l 1,24,25
 160 494 160 494 262 494 c 0,26,27
 396 494 396 494 448 461.5 c 128,-1,28
 500 429 500 429 500 333 c 2,29,-1
 500 0 l 1,30,31
 473 -23 473 -23 460.5 -41.5 c 128,-1,32
 448 -60 448 -60 448 -83 c 0,33,34
 448 -99 448 -99 456 -107 c 128,-1,35
 464 -115 464 -115 486 -115 c 0,36,37
 498 -115 498 -115 516 -109 c 1,38,-1
 516 -176 l 1,39,40
 495 -186 495 -186 446 -186 c 0,0,1
354 124 m 2,41,-1
 354 218 l 1,42,-1
 254 218 l 2,43,44
 206 218 206 218 194 207 c 128,-1,45
 182 196 182 196 182 148 c 0,46,47
 182 101 182 101 194.5 91 c 128,-1,48
 207 81 207 81 258 81 c 0,49,50
 283 81 283 81 295 81.5 c 128,-1,51
 307 82 307 82 321 84 c 128,-1,52
 335 86 335 86 340.5 90.5 c 128,-1,53
 346 95 346 95 350 103 c 128,-1,54
 354 111 354 111 354 124 c 2,41,-1
EndSplineSet
Substitution2: "<3,3> Small Caps in Latin lookup 11 subtable" aogonek.smcp
EndChar

StartChar: Cacute
Encoding: 262 262 199
Width: 597
Flags: W
LayerCount: 2
Fore
SplineSet
567 12 m 1,0,1
 457 -10 457 -10 357 -10 c 0,2,3
 317 -10 317 -10 281.5 -6.5 c 128,-1,4
 246 -3 246 -3 202.5 8.5 c 128,-1,5
 159 20 159 20 128.5 39.5 c 128,-1,6
 98 59 98 59 77 94.5 c 128,-1,7
 56 130 56 130 56 178 c 2,8,-1
 56 463 l 2,9,10
 56 659 56 659 357 659 c 0,11,12
 431 659 431 659 563 637 c 1,13,-1
 563 520 l 1,14,15
 444 548 444 548 359 548 c 0,16,17
 325 548 325 548 303.5 546 c 128,-1,18
 282 544 282 544 258.5 536 c 128,-1,19
 235 528 235 528 223.5 510.5 c 128,-1,20
 212 493 212 493 212 465 c 2,21,-1
 212 189 l 2,22,23
 212 101 212 101 373 101 c 0,24,25
 444 101 444 101 567 130 c 1,26,-1
 567 12 l 1,0,1
483 845 m 1,27,-1
 358 718 l 1,28,-1
 234 718 l 1,29,-1
 324 845 l 1,30,-1
 483 845 l 1,27,-1
EndSplineSet
EndChar

StartChar: cacute
Encoding: 263 263 200
Width: 482
Flags: W
LayerCount: 2
Fore
SplineSet
464 7 m 1,0,1
 376 -10 376 -10 300 -10 c 0,2,3
 263 -10 263 -10 241 -9 c 128,-1,4
 219 -8 219 -8 185.5 -3.5 c 128,-1,5
 152 1 152 1 131.5 12 c 128,-1,6
 111 23 111 23 90.5 40.5 c 128,-1,7
 70 58 70 58 60 87.5 c 128,-1,8
 50 117 50 117 50 157 c 2,9,-1
 50 318 l 2,10,11
 50 354 50 354 58.5 381.5 c 128,-1,12
 67 409 67 409 79.5 427.5 c 128,-1,13
 92 446 92 446 114.5 459 c 128,-1,14
 137 472 137 472 156 478.5 c 128,-1,15
 175 485 175 485 205.5 489 c 128,-1,16
 236 493 236 493 256.5 493.5 c 128,-1,17
 277 494 277 494 310 494 c 0,18,19
 365 494 365 494 457 476 c 1,20,-1
 457 380 l 1,21,22
 353 404 353 404 299 404 c 0,23,24
 198 404 198 404 198 336 c 2,25,-1
 198 158 l 2,26,27
 198 81 198 81 309 81 c 0,28,29
 361 81 361 81 464 103 c 1,30,-1
 464 7 l 1,0,1
425 680 m 1,31,-1
 300 553 l 1,32,-1
 176 553 l 1,33,-1
 266 680 l 1,34,-1
 425 680 l 1,31,-1
EndSplineSet
Substitution2: "<3,3> Small Caps in Latin lookup 11 subtable" cacute.smcp
EndChar

StartChar: Ccircumflex
Encoding: 264 264 201
Width: 597
Flags: W
LayerCount: 2
Fore
SplineSet
567 12 m 1,0,1
 457 -10 457 -10 357 -10 c 0,2,3
 317 -10 317 -10 281.5 -6.5 c 128,-1,4
 246 -3 246 -3 202.5 8.5 c 128,-1,5
 159 20 159 20 128.5 39.5 c 128,-1,6
 98 59 98 59 77 94.5 c 128,-1,7
 56 130 56 130 56 178 c 2,8,-1
 56 463 l 2,9,10
 56 659 56 659 357 659 c 0,11,12
 431 659 431 659 563 637 c 1,13,-1
 563 520 l 1,14,15
 444 548 444 548 359 548 c 0,16,17
 325 548 325 548 303.5 546 c 128,-1,18
 282 544 282 544 258.5 536 c 128,-1,19
 235 528 235 528 223.5 510.5 c 128,-1,20
 212 493 212 493 212 465 c 2,21,-1
 212 189 l 2,22,23
 212 101 212 101 373 101 c 0,24,25
 444 101 444 101 567 130 c 1,26,-1
 567 12 l 1,0,1
489 718 m 1,27,-1
 391 718 l 1,28,-1
 338 805 l 1,29,-1
 286 718 l 1,30,-1
 188 718 l 1,31,-1
 244 845 l 1,32,-1
 431 845 l 1,33,-1
 489 718 l 1,27,-1
EndSplineSet
EndChar

StartChar: ccircumflex
Encoding: 265 265 202
Width: 482
Flags: W
LayerCount: 2
Fore
SplineSet
464 7 m 1,0,1
 376 -10 376 -10 300 -10 c 0,2,3
 263 -10 263 -10 241 -9 c 128,-1,4
 219 -8 219 -8 185.5 -3.5 c 128,-1,5
 152 1 152 1 131.5 12 c 128,-1,6
 111 23 111 23 90.5 40.5 c 128,-1,7
 70 58 70 58 60 87.5 c 128,-1,8
 50 117 50 117 50 157 c 2,9,-1
 50 318 l 2,10,11
 50 354 50 354 58.5 381.5 c 128,-1,12
 67 409 67 409 79.5 427.5 c 128,-1,13
 92 446 92 446 114.5 459 c 128,-1,14
 137 472 137 472 156 478.5 c 128,-1,15
 175 485 175 485 205.5 489 c 128,-1,16
 236 493 236 493 256.5 493.5 c 128,-1,17
 277 494 277 494 310 494 c 0,18,19
 365 494 365 494 457 476 c 1,20,-1
 457 380 l 1,21,22
 353 404 353 404 299 404 c 0,23,24
 198 404 198 404 198 336 c 2,25,-1
 198 158 l 2,26,27
 198 81 198 81 309 81 c 0,28,29
 361 81 361 81 464 103 c 1,30,-1
 464 7 l 1,0,1
431 553 m 1,31,-1
 333 553 l 1,32,-1
 280 640 l 1,33,-1
 228 553 l 1,34,-1
 130 553 l 1,35,-1
 186 680 l 1,36,-1
 373 680 l 1,37,-1
 431 553 l 1,31,-1
EndSplineSet
Substitution2: "<3,3> Small Caps in Latin lookup 11 subtable" ccircumflex.smcp
EndChar

StartChar: Cdotaccent
Encoding: 266 266 203
Width: 597
Flags: W
LayerCount: 2
Fore
SplineSet
567 12 m 1,0,1
 457 -10 457 -10 357 -10 c 0,2,3
 317 -10 317 -10 281.5 -6.5 c 128,-1,4
 246 -3 246 -3 202.5 8.5 c 128,-1,5
 159 20 159 20 128.5 39.5 c 128,-1,6
 98 59 98 59 77 94.5 c 128,-1,7
 56 130 56 130 56 178 c 2,8,-1
 56 463 l 2,9,10
 56 659 56 659 357 659 c 0,11,12
 431 659 431 659 563 637 c 1,13,-1
 563 520 l 1,14,15
 444 548 444 548 359 548 c 0,16,17
 325 548 325 548 303.5 546 c 128,-1,18
 282 544 282 544 258.5 536 c 128,-1,19
 235 528 235 528 223.5 510.5 c 128,-1,20
 212 493 212 493 212 465 c 2,21,-1
 212 189 l 2,22,23
 212 101 212 101 373 101 c 0,24,25
 444 101 444 101 567 130 c 1,26,-1
 567 12 l 1,0,1
411 730 m 1,27,-1
 265 730 l 1,28,-1
 265 845 l 1,29,-1
 411 845 l 1,30,-1
 411 730 l 1,27,-1
EndSplineSet
EndChar

StartChar: cdotaccent
Encoding: 267 267 204
Width: 482
Flags: W
LayerCount: 2
Fore
SplineSet
464 7 m 1,0,1
 376 -10 376 -10 300 -10 c 0,2,3
 263 -10 263 -10 241 -9 c 128,-1,4
 219 -8 219 -8 185.5 -3.5 c 128,-1,5
 152 1 152 1 131.5 12 c 128,-1,6
 111 23 111 23 90.5 40.5 c 128,-1,7
 70 58 70 58 60 87.5 c 128,-1,8
 50 117 50 117 50 157 c 2,9,-1
 50 318 l 2,10,11
 50 354 50 354 58.5 381.5 c 128,-1,12
 67 409 67 409 79.5 427.5 c 128,-1,13
 92 446 92 446 114.5 459 c 128,-1,14
 137 472 137 472 156 478.5 c 128,-1,15
 175 485 175 485 205.5 489 c 128,-1,16
 236 493 236 493 256.5 493.5 c 128,-1,17
 277 494 277 494 310 494 c 0,18,19
 365 494 365 494 457 476 c 1,20,-1
 457 380 l 1,21,22
 353 404 353 404 299 404 c 0,23,24
 198 404 198 404 198 336 c 2,25,-1
 198 158 l 2,26,27
 198 81 198 81 309 81 c 0,28,29
 361 81 361 81 464 103 c 1,30,-1
 464 7 l 1,0,1
354 565 m 1,31,-1
 208 565 l 1,32,-1
 208 680 l 1,33,-1
 354 680 l 1,34,-1
 354 565 l 1,31,-1
EndSplineSet
Substitution2: "<3,3> Small Caps in Latin lookup 11 subtable" cdotaccent.smcp
EndChar

StartChar: Ccaron
Encoding: 268 268 205
Width: 597
Flags: W
LayerCount: 2
Fore
SplineSet
567 12 m 1,0,1
 457 -10 457 -10 357 -10 c 0,2,3
 317 -10 317 -10 281.5 -6.5 c 128,-1,4
 246 -3 246 -3 202.5 8.5 c 128,-1,5
 159 20 159 20 128.5 39.5 c 128,-1,6
 98 59 98 59 77 94.5 c 128,-1,7
 56 130 56 130 56 178 c 2,8,-1
 56 463 l 2,9,10
 56 659 56 659 357 659 c 0,11,12
 431 659 431 659 563 637 c 1,13,-1
 563 520 l 1,14,15
 444 548 444 548 359 548 c 0,16,17
 325 548 325 548 303.5 546 c 128,-1,18
 282 544 282 544 258.5 536 c 128,-1,19
 235 528 235 528 223.5 510.5 c 128,-1,20
 212 493 212 493 212 465 c 2,21,-1
 212 189 l 2,22,23
 212 101 212 101 373 101 c 0,24,25
 444 101 444 101 567 130 c 1,26,-1
 567 12 l 1,0,1
489 845 m 1,27,-1
 433 718 l 1,28,-1
 246 718 l 1,29,-1
 188 845 l 1,30,-1
 286 845 l 1,31,-1
 339 758 l 1,32,-1
 391 845 l 1,33,-1
 489 845 l 1,27,-1
EndSplineSet
EndChar

StartChar: ccaron
Encoding: 269 269 206
Width: 482
Flags: W
LayerCount: 2
Fore
SplineSet
464 7 m 1,0,1
 376 -10 376 -10 300 -10 c 0,2,3
 263 -10 263 -10 241 -9 c 128,-1,4
 219 -8 219 -8 185.5 -3.5 c 128,-1,5
 152 1 152 1 131.5 12 c 128,-1,6
 111 23 111 23 90.5 40.5 c 128,-1,7
 70 58 70 58 60 87.5 c 128,-1,8
 50 117 50 117 50 157 c 2,9,-1
 50 318 l 2,10,11
 50 354 50 354 58.5 381.5 c 128,-1,12
 67 409 67 409 79.5 427.5 c 128,-1,13
 92 446 92 446 114.5 459 c 128,-1,14
 137 472 137 472 156 478.5 c 128,-1,15
 175 485 175 485 205.5 489 c 128,-1,16
 236 493 236 493 256.5 493.5 c 128,-1,17
 277 494 277 494 310 494 c 0,18,19
 365 494 365 494 457 476 c 1,20,-1
 457 380 l 1,21,22
 353 404 353 404 299 404 c 0,23,24
 198 404 198 404 198 336 c 2,25,-1
 198 158 l 2,26,27
 198 81 198 81 309 81 c 0,28,29
 361 81 361 81 464 103 c 1,30,-1
 464 7 l 1,0,1
431 680 m 1,31,-1
 375 553 l 1,32,-1
 188 553 l 1,33,-1
 130 680 l 1,34,-1
 228 680 l 1,35,-1
 281 593 l 1,36,-1
 333 680 l 1,37,-1
 431 680 l 1,31,-1
EndSplineSet
Substitution2: "<3,3> Small Caps in Latin lookup 11 subtable" ccaron.smcp
EndChar

StartChar: Dcaron
Encoding: 270 270 207
Width: 710
Flags: W
LayerCount: 2
Fore
SplineSet
654 452 m 2,0,-1
 654 188 l 2,1,2
 654 78 654 78 586 39 c 128,-1,3
 518 0 518 0 347 0 c 2,4,-1
 70 0 l 1,5,-1
 70 649 l 1,6,-1
 346 649 l 2,7,8
 511 649 511 649 582.5 608 c 128,-1,9
 654 567 654 567 654 452 c 2,0,-1
498 188 m 2,10,-1
 498 455 l 2,11,12
 498 502 498 502 460 520 c 128,-1,13
 422 538 422 538 345 538 c 2,14,-1
 226 538 l 1,15,-1
 226 111 l 1,16,-1
 340 111 l 2,17,18
 430 111 430 111 464 124.5 c 128,-1,19
 498 138 498 138 498 188 c 2,10,-1
505 845 m 1,20,-1
 449 718 l 1,21,-1
 262 718 l 1,22,-1
 204 845 l 1,23,-1
 302 845 l 1,24,-1
 355 758 l 1,25,-1
 407 845 l 1,26,-1
 505 845 l 1,20,-1
EndSplineSet
EndChar

StartChar: dcaron
Encoding: 271 271 208
Width: 700
Flags: W
LayerCount: 2
Fore
SplineSet
544 0 m 1,0,-1
 403 0 l 1,1,-1
 403 55 l 1,2,3
 386 28 386 28 372 15.5 c 128,-1,4
 358 3 358 3 330 -3.5 c 128,-1,5
 302 -10 302 -10 250 -10 c 0,6,7
 126 -10 126 -10 88 21 c 128,-1,8
 50 52 50 52 50 159 c 2,9,-1
 50 348 l 2,10,11
 50 430 50 430 96.5 462 c 128,-1,12
 143 494 143 494 243 494 c 0,13,14
 315 494 315 494 344 480.5 c 128,-1,15
 373 467 373 467 398 430 c 1,16,-1
 398 700 l 1,17,-1
 544 700 l 1,18,-1
 544 0 l 1,0,-1
398 145 m 2,19,-1
 398 340 l 2,20,21
 398 376 398 376 378.5 390 c 128,-1,22
 359 404 359 404 295 404 c 0,23,24
 228 404 228 404 212 391 c 128,-1,25
 196 378 196 378 196 335 c 2,26,-1
 196 150 l 2,27,28
 196 110 196 110 212 95.5 c 128,-1,29
 228 81 228 81 287 81 c 0,30,31
 358 81 358 81 378 93.5 c 128,-1,32
 398 106 398 106 398 145 c 2,19,-1
739 700 m 1,33,-1
 675 537 l 1,34,-1
 579 537 l 1,35,-1
 605 700 l 1,36,-1
 739 700 l 1,33,-1
EndSplineSet
Substitution2: "<3,3> Small Caps in Latin lookup 11 subtable" dcaron.smcp
EndChar

StartChar: Dcroat
Encoding: 272 272 209
Width: 677
Flags: W
LayerCount: 2
Fore
SplineSet
627 452 m 2,0,-1
 627 188 l 2,1,2
 627 87 627 87 554 43.5 c 128,-1,3
 481 0 481 0 327 0 c 2,4,-1
 70 0 l 1,5,-1
 70 288 l 1,6,-1
 10 288 l 1,7,-1
 10 379 l 1,8,-1
 70 379 l 1,9,-1
 70 649 l 1,10,-1
 326 649 l 2,11,12
 505 649 505 649 566 607.5 c 128,-1,13
 627 566 627 566 627 452 c 2,0,-1
478 186 m 2,14,-1
 478 460 l 2,15,16
 478 507 478 507 440 525 c 128,-1,17
 402 543 402 543 325 543 c 2,18,-1
 223 543 l 1,19,-1
 223 379 l 1,20,-1
 357 379 l 1,21,-1
 357 288 l 1,22,-1
 223 288 l 1,23,-1
 223 109 l 1,24,-1
 320 109 l 2,25,26
 353 109 353 109 376.5 111.5 c 128,-1,27
 400 114 400 114 425.5 121 c 128,-1,28
 451 128 451 128 464.5 144.5 c 128,-1,29
 478 161 478 161 478 186 c 2,14,-1
EndSplineSet
EndChar

StartChar: dcroat
Encoding: 273 273 210
Width: 608
Flags: W
LayerCount: 2
Fore
SplineSet
544 0 m 1,0,-1
 403 0 l 1,1,-1
 403 55 l 1,2,3
 386 28 386 28 372 15.5 c 128,-1,4
 358 3 358 3 330 -3.5 c 128,-1,5
 302 -10 302 -10 250 -10 c 0,6,7
 126 -10 126 -10 88 21 c 128,-1,8
 50 52 50 52 50 159 c 2,9,-1
 50 348 l 2,10,11
 50 430 50 430 96.5 462 c 128,-1,12
 143 494 143 494 243 494 c 0,13,14
 315 494 315 494 344 480.5 c 128,-1,15
 373 467 373 467 398 430 c 1,16,-1
 398 553 l 1,17,-1
 287 553 l 1,18,-1
 287 635 l 1,19,-1
 398 635 l 1,20,-1
 398 700 l 1,21,-1
 544 700 l 1,22,-1
 544 635 l 1,23,-1
 586 635 l 1,24,-1
 586 553 l 1,25,-1
 544 553 l 1,26,-1
 544 0 l 1,0,-1
398 145 m 2,27,-1
 398 340 l 2,28,29
 398 376 398 376 378.5 390 c 128,-1,30
 359 404 359 404 295 404 c 0,31,32
 228 404 228 404 212 391 c 128,-1,33
 196 378 196 378 196 335 c 2,34,-1
 196 150 l 2,35,36
 196 110 196 110 212 95.5 c 128,-1,37
 228 81 228 81 287 81 c 0,38,39
 358 81 358 81 378 93.5 c 128,-1,40
 398 106 398 106 398 145 c 2,27,-1
EndSplineSet
Substitution2: "<3,3> Small Caps in Latin lookup 11 subtable" dcroat.smcp
EndChar

StartChar: Emacron
Encoding: 274 274 211
Width: 610
Flags: W
LayerCount: 2
Fore
SplineSet
575 0 m 1,0,-1
 70 0 l 1,1,-1
 70 649 l 1,2,-1
 565 649 l 1,3,-1
 565 538 l 1,4,-1
 226 538 l 1,5,-1
 226 389 l 1,6,-1
 532 389 l 1,7,-1
 532 278 l 1,8,-1
 226 278 l 1,9,-1
 226 111 l 1,10,-1
 575 111 l 1,11,-1
 575 0 l 1,0,-1
444 725 m 1,12,-1
 166 725 l 1,13,-1
 166 814 l 1,14,-1
 444 814 l 1,15,-1
 444 725 l 1,12,-1
EndSplineSet
EndChar

StartChar: emacron
Encoding: 275 275 212
Width: 559
Flags: W
LayerCount: 2
Fore
SplineSet
511 203 m 1,0,-1
 197 203 l 1,1,-1
 197 159 l 2,2,3
 197 118 197 118 226 99.5 c 128,-1,4
 255 81 255 81 335 81 c 0,5,6
 407 81 407 81 497 102 c 1,7,-1
 497 9 l 1,8,9
 405 -10 405 -10 307 -10 c 0,10,11
 50 -10 50 -10 50 147 c 2,12,-1
 50 321 l 2,13,14
 50 414 50 414 110 454 c 128,-1,15
 170 494 170 494 289 494 c 0,16,17
 401 494 401 494 456 456 c 128,-1,18
 511 418 511 418 511 321 c 2,19,-1
 511 203 l 1,0,-1
372 286 m 1,20,-1
 372 356 l 2,21,22
 372 379 372 379 353.5 391.5 c 128,-1,23
 335 404 335 404 287 404 c 0,24,25
 234 404 234 404 215.5 391.5 c 128,-1,26
 197 379 197 379 197 356 c 2,27,-1
 197 286 l 1,28,-1
 372 286 l 1,20,-1
418 560 m 1,29,-1
 140 560 l 1,30,-1
 140 649 l 1,31,-1
 418 649 l 1,32,-1
 418 560 l 1,29,-1
EndSplineSet
Substitution2: "<3,3> Small Caps in Latin lookup 11 subtable" emacron.smcp
EndChar

StartChar: Ebreve
Encoding: 276 276 213
Width: 610
Flags: W
LayerCount: 2
Fore
SplineSet
575 0 m 1,0,-1
 70 0 l 1,1,-1
 70 649 l 1,2,-1
 565 649 l 1,3,-1
 565 538 l 1,4,-1
 226 538 l 1,5,-1
 226 389 l 1,6,-1
 532 389 l 1,7,-1
 532 278 l 1,8,-1
 226 278 l 1,9,-1
 226 111 l 1,10,-1
 575 111 l 1,11,-1
 575 0 l 1,0,-1
471 845 m 1,12,13
 467 788 467 788 430.5 753 c 128,-1,14
 394 718 394 718 333 718 c 0,15,16
 271 718 271 718 234.5 753 c 128,-1,17
 198 788 198 788 195 845 c 1,18,-1
 276 845 l 1,19,20
 282 816 282 816 294 803 c 128,-1,21
 306 790 306 790 333 790 c 0,22,23
 383 790 383 790 389 845 c 1,24,-1
 471 845 l 1,12,13
EndSplineSet
EndChar

StartChar: ebreve
Encoding: 277 277 214
Width: 559
Flags: W
LayerCount: 2
Fore
SplineSet
511 203 m 1,0,-1
 197 203 l 1,1,-1
 197 159 l 2,2,3
 197 118 197 118 226 99.5 c 128,-1,4
 255 81 255 81 335 81 c 0,5,6
 407 81 407 81 497 102 c 1,7,-1
 497 9 l 1,8,9
 405 -10 405 -10 307 -10 c 0,10,11
 50 -10 50 -10 50 147 c 2,12,-1
 50 321 l 2,13,14
 50 414 50 414 110 454 c 128,-1,15
 170 494 170 494 289 494 c 0,16,17
 401 494 401 494 456 456 c 128,-1,18
 511 418 511 418 511 321 c 2,19,-1
 511 203 l 1,0,-1
372 286 m 1,20,-1
 372 356 l 2,21,22
 372 379 372 379 353.5 391.5 c 128,-1,23
 335 404 335 404 287 404 c 0,24,25
 234 404 234 404 215.5 391.5 c 128,-1,26
 197 379 197 379 197 356 c 2,27,-1
 197 286 l 1,28,-1
 372 286 l 1,20,-1
422 680 m 1,29,30
 418 623 418 623 381.5 588 c 128,-1,31
 345 553 345 553 284 553 c 0,32,33
 222 553 222 553 185.5 588 c 128,-1,34
 149 623 149 623 146 680 c 1,35,-1
 227 680 l 1,36,37
 233 651 233 651 245 638 c 128,-1,38
 257 625 257 625 284 625 c 0,39,40
 334 625 334 625 340 680 c 1,41,-1
 422 680 l 1,29,30
EndSplineSet
Substitution2: "<3,3> Small Caps in Latin lookup 11 subtable" ebreve.smcp
EndChar

StartChar: Edotaccent
Encoding: 278 278 215
Width: 610
Flags: W
LayerCount: 2
Fore
SplineSet
575 0 m 1,0,-1
 70 0 l 1,1,-1
 70 649 l 1,2,-1
 565 649 l 1,3,-1
 565 538 l 1,4,-1
 226 538 l 1,5,-1
 226 389 l 1,6,-1
 532 389 l 1,7,-1
 532 278 l 1,8,-1
 226 278 l 1,9,-1
 226 111 l 1,10,-1
 575 111 l 1,11,-1
 575 0 l 1,0,-1
398 730 m 1,12,-1
 252 730 l 1,13,-1
 252 845 l 1,14,-1
 398 845 l 1,15,-1
 398 730 l 1,12,-1
EndSplineSet
EndChar

StartChar: edotaccent
Encoding: 279 279 216
Width: 559
Flags: W
LayerCount: 2
Fore
SplineSet
511 203 m 1,0,-1
 197 203 l 1,1,-1
 197 159 l 2,2,3
 197 118 197 118 226 99.5 c 128,-1,4
 255 81 255 81 335 81 c 0,5,6
 407 81 407 81 497 102 c 1,7,-1
 497 9 l 1,8,9
 405 -10 405 -10 307 -10 c 0,10,11
 50 -10 50 -10 50 147 c 2,12,-1
 50 321 l 2,13,14
 50 414 50 414 110 454 c 128,-1,15
 170 494 170 494 289 494 c 0,16,17
 401 494 401 494 456 456 c 128,-1,18
 511 418 511 418 511 321 c 2,19,-1
 511 203 l 1,0,-1
372 286 m 1,20,-1
 372 356 l 2,21,22
 372 379 372 379 353.5 391.5 c 128,-1,23
 335 404 335 404 287 404 c 0,24,25
 234 404 234 404 215.5 391.5 c 128,-1,26
 197 379 197 379 197 356 c 2,27,-1
 197 286 l 1,28,-1
 372 286 l 1,20,-1
362 565 m 1,29,-1
 216 565 l 1,30,-1
 216 680 l 1,31,-1
 362 680 l 1,32,-1
 362 565 l 1,29,-1
EndSplineSet
Substitution2: "<3,3> Small Caps in Latin lookup 11 subtable" edotaccent.smcp
EndChar

StartChar: Eogonek
Encoding: 280 280 217
Width: 610
Flags: W
LayerCount: 2
Fore
SplineSet
575 0 m 1,0,-1
 70 0 l 1,1,-1
 70 649 l 1,2,-1
 565 649 l 1,3,-1
 565 538 l 1,4,-1
 226 538 l 1,5,-1
 226 389 l 1,6,-1
 532 389 l 1,7,-1
 532 278 l 1,8,-1
 226 278 l 1,9,-1
 226 111 l 1,10,-1
 575 111 l 1,11,-1
 575 0 l 1,0,-1
505 -186 m 128,-1,13
 456 -186 456 -186 431 -167.5 c 128,-1,14
 406 -149 406 -149 406 -106 c 0,15,16
 406 -56 406 -56 442 0 c 1,17,-1
 537 0 l 1,18,19
 507 -47 507 -47 507 -83 c 0,20,21
 507 -99 507 -99 515 -107 c 128,-1,22
 523 -115 523 -115 545 -115 c 0,23,24
 557 -115 557 -115 575 -109 c 1,25,-1
 575 -176 l 1,26,12
 554 -186 554 -186 505 -186 c 128,-1,13
EndSplineSet
EndChar

StartChar: eogonek
Encoding: 281 281 218
Width: 559
Flags: W
LayerCount: 2
Fore
SplineSet
441 -186 m 128,-1,1
 392 -186 392 -186 367 -167.5 c 128,-1,2
 342 -149 342 -149 342 -106 c 0,3,4
 342 -60 342 -60 372 -9 c 1,5,6
 354 -10 354 -10 307 -10 c 0,7,8
 50 -10 50 -10 50 147 c 2,9,-1
 50 321 l 2,10,11
 50 414 50 414 110 454 c 128,-1,12
 170 494 170 494 289 494 c 0,13,14
 401 494 401 494 456 456 c 128,-1,15
 511 418 511 418 511 321 c 2,16,-1
 511 203 l 1,17,-1
 197 203 l 1,18,-1
 197 159 l 2,19,20
 197 118 197 118 226 99.5 c 128,-1,21
 255 81 255 81 335 81 c 0,22,23
 407 81 407 81 497 102 c 1,24,-1
 497 9 l 1,25,-1
 463 2 l 1,26,27
 443 -38 443 -38 443 -83 c 0,28,29
 443 -99 443 -99 451 -107 c 128,-1,30
 459 -115 459 -115 481 -115 c 0,31,32
 493 -115 493 -115 511 -109 c 1,33,-1
 511 -176 l 1,34,0
 490 -186 490 -186 441 -186 c 128,-1,1
372 286 m 1,35,-1
 372 356 l 2,36,37
 372 379 372 379 353.5 391.5 c 128,-1,38
 335 404 335 404 287 404 c 0,39,40
 234 404 234 404 215.5 391.5 c 128,-1,41
 197 379 197 379 197 356 c 2,42,-1
 197 286 l 1,43,-1
 372 286 l 1,35,-1
EndSplineSet
Substitution2: "<3,3> Small Caps in Latin lookup 11 subtable" eogonek.smcp
EndChar

StartChar: Ecaron
Encoding: 282 282 219
Width: 610
Flags: W
LayerCount: 2
Fore
SplineSet
575 0 m 1,0,-1
 70 0 l 1,1,-1
 70 649 l 1,2,-1
 565 649 l 1,3,-1
 565 538 l 1,4,-1
 226 538 l 1,5,-1
 226 389 l 1,6,-1
 532 389 l 1,7,-1
 532 278 l 1,8,-1
 226 278 l 1,9,-1
 226 111 l 1,10,-1
 575 111 l 1,11,-1
 575 0 l 1,0,-1
473 845 m 1,12,-1
 417 718 l 1,13,-1
 230 718 l 1,14,-1
 172 845 l 1,15,-1
 270 845 l 1,16,-1
 323 758 l 1,17,-1
 375 845 l 1,18,-1
 473 845 l 1,12,-1
EndSplineSet
EndChar

StartChar: ecaron
Encoding: 283 283 220
Width: 559
Flags: W
LayerCount: 2
Fore
SplineSet
511 203 m 1,0,-1
 197 203 l 1,1,-1
 197 159 l 2,2,3
 197 118 197 118 226 99.5 c 128,-1,4
 255 81 255 81 335 81 c 0,5,6
 407 81 407 81 497 102 c 1,7,-1
 497 9 l 1,8,9
 405 -10 405 -10 307 -10 c 0,10,11
 50 -10 50 -10 50 147 c 2,12,-1
 50 321 l 2,13,14
 50 414 50 414 110 454 c 128,-1,15
 170 494 170 494 289 494 c 0,16,17
 401 494 401 494 456 456 c 128,-1,18
 511 418 511 418 511 321 c 2,19,-1
 511 203 l 1,0,-1
372 286 m 1,20,-1
 372 356 l 2,21,22
 372 379 372 379 353.5 391.5 c 128,-1,23
 335 404 335 404 287 404 c 0,24,25
 234 404 234 404 215.5 391.5 c 128,-1,26
 197 379 197 379 197 356 c 2,27,-1
 197 286 l 1,28,-1
 372 286 l 1,20,-1
430 680 m 1,29,-1
 374 553 l 1,30,-1
 187 553 l 1,31,-1
 129 680 l 1,32,-1
 227 680 l 1,33,-1
 280 593 l 1,34,-1
 332 680 l 1,35,-1
 430 680 l 1,29,-1
EndSplineSet
Substitution2: "<3,3> Small Caps in Latin lookup 11 subtable" ecaron.smcp
EndChar

StartChar: Gcircumflex
Encoding: 284 284 221
Width: 641
Flags: W
LayerCount: 2
Fore
SplineSet
591 12 m 1,0,1
 481 -10 481 -10 361 -10 c 0,2,3
 321 -10 321 -10 284.5 -6.5 c 128,-1,4
 248 -3 248 -3 203 8.5 c 128,-1,5
 158 20 158 20 126 39.5 c 128,-1,6
 94 59 94 59 72 94.5 c 128,-1,7
 50 130 50 130 50 178 c 2,8,-1
 50 463 l 2,9,10
 50 513 50 513 72.5 551 c 128,-1,11
 95 589 95 589 127.5 609 c 128,-1,12
 160 629 160 629 205.5 641.5 c 128,-1,13
 251 654 251 654 286.5 657 c 128,-1,14
 322 660 322 660 361 660 c 0,15,16
 455 660 455 660 587 638 c 1,17,-1
 587 527 l 1,18,19
 468 555 468 555 363 555 c 0,20,21
 336 555 336 555 317 554 c 128,-1,22
 298 553 298 553 274 548 c 128,-1,23
 250 543 250 543 235 535 c 128,-1,24
 220 527 220 527 209.5 510.5 c 128,-1,25
 199 494 199 494 199 472 c 2,26,-1
 199 181 l 2,27,28
 199 155 199 155 216 137 c 128,-1,29
 233 119 233 119 261 110 c 128,-1,30
 289 101 289 101 317.5 97 c 128,-1,31
 346 93 346 93 377 93 c 0,32,33
 404 93 404 93 452 98 c 1,34,-1
 452 267 l 1,35,-1
 326 267 l 1,36,-1
 326 369 l 1,37,-1
 591 369 l 1,38,-1
 591 12 l 1,0,1
493 703 m 1,39,-1
 395 703 l 1,40,-1
 342 790 l 1,41,-1
 290 703 l 1,42,-1
 192 703 l 1,43,-1
 248 830 l 1,44,-1
 435 830 l 1,45,-1
 493 703 l 1,39,-1
EndSplineSet
EndChar

StartChar: gcircumflex
Encoding: 285 285 222
Width: 608
Flags: W
LayerCount: 2
Fore
SplineSet
544 484 m 1,0,-1
 544 -26 l 2,1,2
 544 -132 544 -132 471.5 -176 c 128,-1,3
 399 -220 399 -220 260 -220 c 0,4,5
 146 -220 146 -220 85 -213 c 1,6,-1
 85 -115 l 1,7,8
 183 -128 183 -128 260 -128 c 0,9,10
 333 -128 333 -128 365.5 -104.5 c 128,-1,11
 398 -81 398 -81 398 -24 c 2,12,-1
 398 54 l 1,13,14
 373 17 373 17 344 3.5 c 128,-1,15
 315 -10 315 -10 243 -10 c 0,16,17
 139 -10 139 -10 94.5 21 c 128,-1,18
 50 52 50 52 50 136 c 2,19,-1
 50 325 l 2,20,21
 50 423 50 423 91 458.5 c 128,-1,22
 132 494 132 494 250 494 c 0,23,24
 302 494 302 494 330 487.5 c 128,-1,25
 358 481 358 481 372 468.5 c 128,-1,26
 386 456 386 456 403 429 c 1,27,-1
 403 484 l 1,28,-1
 544 484 l 1,0,-1
398 145 m 2,29,-1
 398 340 l 2,30,31
 398 379 398 379 378 391.5 c 128,-1,32
 358 404 358 404 287 404 c 0,33,34
 228 404 228 404 212 389.5 c 128,-1,35
 196 375 196 375 196 335 c 2,36,-1
 196 150 l 2,37,38
 196 107 196 107 212 94 c 128,-1,39
 228 81 228 81 295 81 c 0,40,41
 359 81 359 81 378.5 95 c 128,-1,42
 398 109 398 109 398 145 c 2,29,-1
454 553 m 1,43,-1
 356 553 l 1,44,-1
 303 640 l 1,45,-1
 251 553 l 1,46,-1
 153 553 l 1,47,-1
 209 680 l 1,48,-1
 396 680 l 1,49,-1
 454 553 l 1,43,-1
EndSplineSet
Substitution2: "<3,3> Small Caps in Latin lookup 11 subtable" gcircumflex.smcp
EndChar

StartChar: Gbreve
Encoding: 286 286 223
Width: 641
Flags: W
LayerCount: 2
Fore
SplineSet
591 12 m 1,0,1
 481 -10 481 -10 361 -10 c 0,2,3
 321 -10 321 -10 284.5 -6.5 c 128,-1,4
 248 -3 248 -3 203 8.5 c 128,-1,5
 158 20 158 20 126 39.5 c 128,-1,6
 94 59 94 59 72 94.5 c 128,-1,7
 50 130 50 130 50 178 c 2,8,-1
 50 463 l 2,9,10
 50 513 50 513 72.5 551 c 128,-1,11
 95 589 95 589 127.5 609 c 128,-1,12
 160 629 160 629 205.5 641.5 c 128,-1,13
 251 654 251 654 286.5 657 c 128,-1,14
 322 660 322 660 361 660 c 0,15,16
 455 660 455 660 587 638 c 1,17,-1
 587 527 l 1,18,19
 468 555 468 555 363 555 c 0,20,21
 336 555 336 555 317 554 c 128,-1,22
 298 553 298 553 274 548 c 128,-1,23
 250 543 250 543 235 535 c 128,-1,24
 220 527 220 527 209.5 510.5 c 128,-1,25
 199 494 199 494 199 472 c 2,26,-1
 199 181 l 2,27,28
 199 155 199 155 216 137 c 128,-1,29
 233 119 233 119 261 110 c 128,-1,30
 289 101 289 101 317.5 97 c 128,-1,31
 346 93 346 93 377 93 c 0,32,33
 404 93 404 93 452 98 c 1,34,-1
 452 267 l 1,35,-1
 326 267 l 1,36,-1
 326 369 l 1,37,-1
 591 369 l 1,38,-1
 591 12 l 1,0,1
471 830 m 1,39,40
 467 773 467 773 434 738 c 128,-1,41
 401 703 401 703 347 703 c 0,42,43
 292 703 292 703 258.5 738 c 128,-1,44
 225 773 225 773 222 830 c 1,45,-1
 290 830 l 1,46,47
 296 800 296 800 308.5 786 c 128,-1,48
 321 772 321 772 347 772 c 0,49,50
 397 772 397 772 403 830 c 1,51,-1
 471 830 l 1,39,40
EndSplineSet
EndChar

StartChar: gbreve
Encoding: 287 287 224
Width: 608
Flags: W
LayerCount: 2
Fore
SplineSet
544 484 m 1,0,-1
 544 -26 l 2,1,2
 544 -132 544 -132 471.5 -176 c 128,-1,3
 399 -220 399 -220 260 -220 c 0,4,5
 146 -220 146 -220 85 -213 c 1,6,-1
 85 -115 l 1,7,8
 183 -128 183 -128 260 -128 c 0,9,10
 333 -128 333 -128 365.5 -104.5 c 128,-1,11
 398 -81 398 -81 398 -24 c 2,12,-1
 398 54 l 1,13,14
 373 17 373 17 344 3.5 c 128,-1,15
 315 -10 315 -10 243 -10 c 0,16,17
 139 -10 139 -10 94.5 21 c 128,-1,18
 50 52 50 52 50 136 c 2,19,-1
 50 325 l 2,20,21
 50 423 50 423 91 458.5 c 128,-1,22
 132 494 132 494 250 494 c 0,23,24
 302 494 302 494 330 487.5 c 128,-1,25
 358 481 358 481 372 468.5 c 128,-1,26
 386 456 386 456 403 429 c 1,27,-1
 403 484 l 1,28,-1
 544 484 l 1,0,-1
398 145 m 2,29,-1
 398 340 l 2,30,31
 398 379 398 379 378 391.5 c 128,-1,32
 358 404 358 404 287 404 c 0,33,34
 228 404 228 404 212 389.5 c 128,-1,35
 196 375 196 375 196 335 c 2,36,-1
 196 150 l 2,37,38
 196 107 196 107 212 94 c 128,-1,39
 228 81 228 81 295 81 c 0,40,41
 359 81 359 81 378.5 95 c 128,-1,42
 398 109 398 109 398 145 c 2,29,-1
442 680 m 1,43,44
 438 623 438 623 401.5 588 c 128,-1,45
 365 553 365 553 304 553 c 0,46,47
 242 553 242 553 205.5 588 c 128,-1,48
 169 623 169 623 166 680 c 1,49,-1
 247 680 l 1,50,51
 253 651 253 651 265 638 c 128,-1,52
 277 625 277 625 304 625 c 0,53,54
 354 625 354 625 360 680 c 1,55,-1
 442 680 l 1,43,44
EndSplineSet
Substitution2: "<3,3> Small Caps in Latin lookup 11 subtable" gbreve.smcp
EndChar

StartChar: Gdotaccent
Encoding: 288 288 225
Width: 641
Flags: W
LayerCount: 2
Fore
SplineSet
591 12 m 1,0,1
 481 -10 481 -10 361 -10 c 0,2,3
 321 -10 321 -10 284.5 -6.5 c 128,-1,4
 248 -3 248 -3 203 8.5 c 128,-1,5
 158 20 158 20 126 39.5 c 128,-1,6
 94 59 94 59 72 94.5 c 128,-1,7
 50 130 50 130 50 178 c 2,8,-1
 50 463 l 2,9,10
 50 513 50 513 72.5 551 c 128,-1,11
 95 589 95 589 127.5 609 c 128,-1,12
 160 629 160 629 205.5 641.5 c 128,-1,13
 251 654 251 654 286.5 657 c 128,-1,14
 322 660 322 660 361 660 c 0,15,16
 455 660 455 660 587 638 c 1,17,-1
 587 527 l 1,18,19
 468 555 468 555 363 555 c 0,20,21
 336 555 336 555 317 554 c 128,-1,22
 298 553 298 553 274 548 c 128,-1,23
 250 543 250 543 235 535 c 128,-1,24
 220 527 220 527 209.5 510.5 c 128,-1,25
 199 494 199 494 199 472 c 2,26,-1
 199 181 l 2,27,28
 199 155 199 155 216 137 c 128,-1,29
 233 119 233 119 261 110 c 128,-1,30
 289 101 289 101 317.5 97 c 128,-1,31
 346 93 346 93 377 93 c 0,32,33
 404 93 404 93 452 98 c 1,34,-1
 452 267 l 1,35,-1
 326 267 l 1,36,-1
 326 369 l 1,37,-1
 591 369 l 1,38,-1
 591 12 l 1,0,1
432 715 m 1,39,-1
 286 715 l 1,40,-1
 286 830 l 1,41,-1
 432 830 l 1,42,-1
 432 715 l 1,39,-1
EndSplineSet
EndChar

StartChar: gdotaccent
Encoding: 289 289 226
Width: 608
Flags: W
LayerCount: 2
Fore
SplineSet
544 484 m 1,0,-1
 544 -26 l 2,1,2
 544 -132 544 -132 471.5 -176 c 128,-1,3
 399 -220 399 -220 260 -220 c 0,4,5
 146 -220 146 -220 85 -213 c 1,6,-1
 85 -115 l 1,7,8
 183 -128 183 -128 260 -128 c 0,9,10
 333 -128 333 -128 365.5 -104.5 c 128,-1,11
 398 -81 398 -81 398 -24 c 2,12,-1
 398 54 l 1,13,14
 373 17 373 17 344 3.5 c 128,-1,15
 315 -10 315 -10 243 -10 c 0,16,17
 139 -10 139 -10 94.5 21 c 128,-1,18
 50 52 50 52 50 136 c 2,19,-1
 50 325 l 2,20,21
 50 423 50 423 91 458.5 c 128,-1,22
 132 494 132 494 250 494 c 0,23,24
 302 494 302 494 330 487.5 c 128,-1,25
 358 481 358 481 372 468.5 c 128,-1,26
 386 456 386 456 403 429 c 1,27,-1
 403 484 l 1,28,-1
 544 484 l 1,0,-1
398 145 m 2,29,-1
 398 340 l 2,30,31
 398 379 398 379 378 391.5 c 128,-1,32
 358 404 358 404 287 404 c 0,33,34
 228 404 228 404 212 389.5 c 128,-1,35
 196 375 196 375 196 335 c 2,36,-1
 196 150 l 2,37,38
 196 107 196 107 212 94 c 128,-1,39
 228 81 228 81 295 81 c 0,40,41
 359 81 359 81 378.5 95 c 128,-1,42
 398 109 398 109 398 145 c 2,29,-1
377 565 m 1,43,-1
 231 565 l 1,44,-1
 231 680 l 1,45,-1
 377 680 l 1,46,-1
 377 565 l 1,43,-1
EndSplineSet
Substitution2: "<3,3> Small Caps in Latin lookup 11 subtable" gdotaccent.smcp
EndChar

StartChar: Gcommaaccent
Encoding: 290 290 227
Width: 705
Flags: W
LayerCount: 2
Fore
SplineSet
649 32 m 1,0,1
 599 14 599 14 521.5 2 c 128,-1,2
 444 -10 444 -10 379 -10 c 0,3,4
 325 -10 325 -10 281.5 -5.5 c 128,-1,5
 238 -1 238 -1 194.5 11.5 c 128,-1,6
 151 24 151 24 121.5 44 c 128,-1,7
 92 64 92 64 74 98 c 128,-1,8
 56 132 56 132 56 178 c 2,9,-1
 56 448 l 2,10,11
 56 499 56 499 77 538 c 128,-1,12
 98 577 98 577 130 599 c 128,-1,13
 162 621 162 621 207 635.5 c 128,-1,14
 252 650 252 650 293.5 654.5 c 128,-1,15
 335 659 335 659 381 659 c 0,16,17
 519 659 519 659 645 638 c 1,18,-1
 645 520 l 1,19,20
 526 548 526 548 381 548 c 0,21,22
 212 548 212 548 212 450 c 2,23,-1
 212 189 l 2,24,25
 212 139 212 139 259.5 120 c 128,-1,26
 307 101 307 101 395 101 c 0,27,28
 444 101 444 101 500 116 c 1,29,-1
 500 267 l 1,30,-1
 394 267 l 1,31,-1
 394 369 l 1,32,-1
 649 369 l 1,33,-1
 649 32 l 1,0,1
442 -46 m 1,34,-1
 359 -208 l 1,35,-1
 263 -208 l 1,36,-1
 309 -46 l 1,37,-1
 442 -46 l 1,34,-1
EndSplineSet
EndChar

StartChar: gcommaaccent
Encoding: 291 291 228
Width: 608
Flags: W
LayerCount: 2
Fore
SplineSet
544 484 m 1,0,-1
 544 -26 l 2,1,2
 544 -132 544 -132 471.5 -176 c 128,-1,3
 399 -220 399 -220 260 -220 c 0,4,5
 146 -220 146 -220 85 -213 c 1,6,-1
 85 -115 l 1,7,8
 183 -128 183 -128 260 -128 c 0,9,10
 333 -128 333 -128 365.5 -104.5 c 128,-1,11
 398 -81 398 -81 398 -24 c 2,12,-1
 398 54 l 1,13,14
 373 17 373 17 344 3.5 c 128,-1,15
 315 -10 315 -10 243 -10 c 0,16,17
 139 -10 139 -10 94.5 21 c 128,-1,18
 50 52 50 52 50 136 c 2,19,-1
 50 325 l 2,20,21
 50 423 50 423 91 458.5 c 128,-1,22
 132 494 132 494 250 494 c 0,23,24
 302 494 302 494 330 487.5 c 128,-1,25
 358 481 358 481 372 468.5 c 128,-1,26
 386 456 386 456 403 429 c 1,27,-1
 403 484 l 1,28,-1
 544 484 l 1,0,-1
398 145 m 2,29,-1
 398 340 l 2,30,31
 398 379 398 379 378 391.5 c 128,-1,32
 358 404 358 404 287 404 c 0,33,34
 228 404 228 404 212 389.5 c 128,-1,35
 196 375 196 375 196 335 c 2,36,-1
 196 150 l 2,37,38
 196 107 196 107 212 94 c 128,-1,39
 228 81 228 81 295 81 c 0,40,41
 359 81 359 81 378.5 95 c 128,-1,42
 398 109 398 109 398 145 c 2,29,-1
215 538 m 1,43,-1
 298 700 l 1,44,-1
 394 700 l 1,45,-1
 348 538 l 1,46,-1
 215 538 l 1,43,-1
EndSplineSet
Substitution2: "<3,3> Small Caps in Latin lookup 11 subtable" gcommaaccent.smcp
EndChar

StartChar: Hcircumflex
Encoding: 292 292 229
Width: 728
Flags: W
LayerCount: 2
Fore
SplineSet
658 0 m 1,0,-1
 502 0 l 1,1,-1
 502 278 l 1,2,-1
 226 278 l 1,3,-1
 226 0 l 1,4,-1
 70 0 l 1,5,-1
 70 649 l 1,6,-1
 226 649 l 1,7,-1
 226 389 l 1,8,-1
 502 389 l 1,9,-1
 502 649 l 1,10,-1
 658 649 l 1,11,-1
 658 0 l 1,0,-1
514 718 m 1,12,-1
 416 718 l 1,13,-1
 363 805 l 1,14,-1
 311 718 l 1,15,-1
 213 718 l 1,16,-1
 269 845 l 1,17,-1
 456 845 l 1,18,-1
 514 718 l 1,12,-1
EndSplineSet
EndChar

StartChar: hcircumflex
Encoding: 293 293 230
Width: 595
Flags: W
LayerCount: 2
Fore
SplineSet
531 0 m 1,0,-1
 385 0 l 1,1,-1
 385 338 l 2,2,3
 385 378 385 378 371.5 391 c 128,-1,4
 358 404 358 404 307 404 c 0,5,6
 244 404 244 404 227 391.5 c 128,-1,7
 210 379 210 379 210 338 c 2,8,-1
 210 0 l 1,9,-1
 64 0 l 1,10,-1
 64 700 l 1,11,-1
 210 700 l 1,12,-1
 210 425 l 1,13,14
 224 494 224 494 363 494 c 0,15,16
 459 494 459 494 495 459.5 c 128,-1,17
 531 425 531 425 531 355 c 2,18,-1
 531 0 l 1,0,-1
282 744 m 1,19,-1
 184 744 l 1,20,-1
 131 831 l 1,21,-1
 79 744 l 1,22,-1
 -19 744 l 1,23,-1
 37 871 l 1,24,-1
 224 871 l 1,25,-1
 282 744 l 1,19,-1
EndSplineSet
Substitution2: "<3,3> Small Caps in Latin lookup 11 subtable" hcircumflex.smcp
EndChar

StartChar: Hbar
Encoding: 294 294 231
Width: 728
Flags: W
LayerCount: 2
Fore
SplineSet
658 0 m 1,0,-1
 502 0 l 1,1,-1
 502 208 l 1,2,-1
 226 208 l 1,3,-1
 226 0 l 1,4,-1
 70 0 l 1,5,-1
 70 649 l 1,6,-1
 226 649 l 1,7,-1
 226 485 l 1,8,-1
 502 485 l 1,9,-1
 502 649 l 1,10,-1
 658 649 l 1,11,-1
 658 0 l 1,0,-1
226 383 m 1,12,-1
 226 310 l 1,13,-1
 502 310 l 1,14,-1
 502 383 l 1,15,-1
 226 383 l 1,12,-1
EndSplineSet
EndChar

StartChar: hbar
Encoding: 295 295 232
Width: 595
Flags: W
LayerCount: 2
Fore
SplineSet
19 553 m 1,0,-1
 19 640 l 1,1,-1
 64 640 l 1,2,-1
 64 700 l 1,3,-1
 210 700 l 1,4,-1
 210 640 l 1,5,-1
 358 640 l 1,6,-1
 358 553 l 1,7,-1
 210 553 l 1,8,-1
 210 425 l 1,9,10
 224 494 224 494 363 494 c 0,11,12
 459 494 459 494 495 459.5 c 128,-1,13
 531 425 531 425 531 355 c 2,14,-1
 531 0 l 1,15,-1
 385 0 l 1,16,-1
 385 338 l 2,17,18
 385 378 385 378 371.5 391 c 128,-1,19
 358 404 358 404 307 404 c 0,20,21
 244 404 244 404 227 391.5 c 128,-1,22
 210 379 210 379 210 338 c 2,23,-1
 210 0 l 1,24,-1
 64 0 l 1,25,-1
 64 553 l 1,26,-1
 19 553 l 1,0,-1
EndSplineSet
Substitution2: "<3,3> Small Caps in Latin lookup 11 subtable" hbar.smcp
EndChar

StartChar: Itilde
Encoding: 296 296 233
Width: 296
Flags: W
LayerCount: 2
Fore
SplineSet
226 0 m 1,0,-1
 70 0 l 1,1,-1
 70 649 l 1,2,-1
 226 649 l 1,3,-1
 226 0 l 1,0,-1
211 824 m 0,4,5
 239 824 239 824 252 857 c 1,6,-1
 293 833 l 1,7,8
 286 809 286 809 262 780 c 128,-1,9
 238 751 238 751 202 751 c 0,10,11
 177 751 177 751 137 767.5 c 128,-1,12
 97 784 97 784 86 784 c 0,13,14
 57 784 57 784 44 751 c 1,15,-1
 4 775 l 1,16,17
 10 798 10 798 34.5 826 c 128,-1,18
 59 854 59 854 95 854 c 0,19,20
 118 854 118 854 156.5 839 c 128,-1,21
 195 824 195 824 211 824 c 0,4,5
EndSplineSet
EndChar

StartChar: itilde
Encoding: 297 297 234
Width: 282
Flags: W
LayerCount: 2
Fore
SplineSet
214 0 m 1,0,-1
 68 0 l 1,1,-1
 68 484 l 1,2,-1
 214 484 l 1,3,-1
 214 0 l 1,0,-1
204 659 m 0,4,5
 232 659 232 659 245 692 c 1,6,-1
 286 668 l 1,7,8
 279 644 279 644 255 615 c 128,-1,9
 231 586 231 586 195 586 c 0,10,11
 170 586 170 586 130 602.5 c 128,-1,12
 90 619 90 619 79 619 c 0,13,14
 50 619 50 619 37 586 c 1,15,-1
 -3 610 l 1,16,17
 3 633 3 633 27.5 661 c 128,-1,18
 52 689 52 689 88 689 c 0,19,20
 111 689 111 689 149.5 674 c 128,-1,21
 188 659 188 659 204 659 c 0,4,5
EndSplineSet
Substitution2: "<3,3> Small Caps in Latin lookup 11 subtable" itilde.smcp
EndChar

StartChar: Imacron
Encoding: 298 298 235
Width: 296
Flags: W
LayerCount: 2
Fore
SplineSet
226 0 m 1,0,-1
 70 0 l 1,1,-1
 70 649 l 1,2,-1
 226 649 l 1,3,-1
 226 0 l 1,0,-1
287 725 m 1,4,-1
 9 725 l 1,5,-1
 9 814 l 1,6,-1
 287 814 l 1,7,-1
 287 725 l 1,4,-1
EndSplineSet
EndChar

StartChar: imacron
Encoding: 299 299 236
Width: 282
Flags: W
LayerCount: 2
Fore
SplineSet
214 0 m 1,0,-1
 68 0 l 1,1,-1
 68 484 l 1,2,-1
 214 484 l 1,3,-1
 214 0 l 1,0,-1
280 560 m 1,4,-1
 2 560 l 1,5,-1
 2 649 l 1,6,-1
 280 649 l 1,7,-1
 280 560 l 1,4,-1
EndSplineSet
Substitution2: "<3,3> Small Caps in Latin lookup 11 subtable" imacron.smcp
EndChar

StartChar: Ibreve
Encoding: 300 300 237
Width: 296
Flags: W
LayerCount: 2
Fore
SplineSet
226 0 m 1,0,-1
 70 0 l 1,1,-1
 70 649 l 1,2,-1
 226 649 l 1,3,-1
 226 0 l 1,0,-1
286 845 m 1,4,5
 282 788 282 788 245.5 753 c 128,-1,6
 209 718 209 718 148 718 c 0,7,8
 86 718 86 718 49.5 753 c 128,-1,9
 13 788 13 788 10 845 c 1,10,-1
 91 845 l 1,11,12
 97 816 97 816 109 803 c 128,-1,13
 121 790 121 790 148 790 c 0,14,15
 198 790 198 790 204 845 c 1,16,-1
 286 845 l 1,4,5
EndSplineSet
EndChar

StartChar: ibreve
Encoding: 301 301 238
Width: 282
Flags: W
LayerCount: 2
Fore
SplineSet
214 0 m 1,0,-1
 68 0 l 1,1,-1
 68 484 l 1,2,-1
 214 484 l 1,3,-1
 214 0 l 1,0,-1
279 680 m 1,4,5
 275 623 275 623 238.5 588 c 128,-1,6
 202 553 202 553 141 553 c 0,7,8
 79 553 79 553 42.5 588 c 128,-1,9
 6 623 6 623 3 680 c 1,10,-1
 84 680 l 1,11,12
 90 651 90 651 102 638 c 128,-1,13
 114 625 114 625 141 625 c 0,14,15
 191 625 191 625 197 680 c 1,16,-1
 279 680 l 1,4,5
EndSplineSet
Substitution2: "<3,3> Small Caps in Latin lookup 11 subtable" ibreve.smcp
EndChar

StartChar: Iogonek
Encoding: 302 302 239
Width: 296
Flags: W
LayerCount: 2
Fore
SplineSet
226 0 m 1,0,1
 192 -11 192 -11 166 -35 c 128,-1,2
 140 -59 140 -59 140 -83 c 0,3,4
 140 -99 140 -99 148 -107 c 128,-1,5
 156 -115 156 -115 178 -115 c 0,6,7
 190 -115 190 -115 208 -109 c 1,8,-1
 208 -176 l 1,9,10
 187 -186 187 -186 138 -186 c 128,-1,11
 89 -186 89 -186 64 -167.5 c 128,-1,12
 39 -149 39 -149 39 -106 c 0,13,14
 39 -48 39 -48 70 0 c 1,15,-1
 70 649 l 1,16,-1
 226 649 l 1,17,-1
 226 0 l 1,0,1
EndSplineSet
EndChar

StartChar: iogonek
Encoding: 303 303 240
Width: 286
Flags: W
LayerCount: 2
Fore
SplineSet
150 -186 m 0,0,1
 41 -186 41 -186 41 -106 c 0,2,3
 41 -45 41 -45 70 0 c 1,4,-1
 70 484 l 1,5,-1
 216 484 l 1,6,-1
 216 0 l 1,7,8
 152 -33 152 -33 152 -83 c 0,9,10
 152 -99 152 -99 160 -107 c 128,-1,11
 168 -115 168 -115 190 -115 c 0,12,13
 202 -115 202 -115 220 -109 c 1,14,-1
 220 -176 l 1,15,16
 199 -186 199 -186 150 -186 c 0,0,1
EndSplineSet
Substitution2: "<3,3> Small Caps in Latin lookup 11 subtable" iogonek.smcp
EndChar

StartChar: Idotaccent
Encoding: 304 304 241
Width: 296
Flags: W
LayerCount: 2
Fore
SplineSet
226 0 m 1,0,-1
 70 0 l 1,1,-1
 70 649 l 1,2,-1
 226 649 l 1,3,-1
 226 0 l 1,0,-1
221 730 m 1,4,-1
 75 730 l 1,5,-1
 75 845 l 1,6,-1
 221 845 l 1,7,-1
 221 730 l 1,4,-1
EndSplineSet
EndChar

StartChar: dotlessi
Encoding: 305 305 242
Width: 282
Flags: W
LayerCount: 2
Fore
SplineSet
214 0 m 1,0,-1
 68 0 l 1,1,-1
 68 484 l 1,2,-1
 214 484 l 1,3,-1
 214 0 l 1,0,-1
EndSplineSet
Substitution2: "<3,3> Small Caps in Latin lookup 11 subtable" dotlessi.smcp
EndChar

StartChar: IJ
Encoding: 306 306 243
Width: 741
Flags: W
LayerCount: 2
Fore
SplineSet
226 0 m 1,0,-1
 70 0 l 1,1,-1
 70 649 l 1,2,-1
 226 649 l 1,3,-1
 226 0 l 1,0,-1
673 649 m 1,4,-1
 673 177 l 2,5,6
 673 72 673 72 616 31 c 128,-1,7
 559 -10 559 -10 450 -10 c 0,8,9
 385 -10 385 -10 315 0 c 1,10,-1
 315 114 l 1,11,12
 389 101 389 101 438 101 c 0,13,14
 517 101 517 101 517 172 c 2,15,-1
 517 649 l 1,16,-1
 673 649 l 1,4,-1
EndSplineSet
EndChar

StartChar: ij
Encoding: 307 307 244
Width: 556
Flags: W
LayerCount: 2
Fore
SplineSet
214 541 m 1,0,-1
 68 541 l 1,1,-1
 68 659 l 1,2,-1
 214 659 l 1,3,-1
 214 541 l 1,0,-1
214 0 m 1,4,-1
 68 0 l 1,5,-1
 68 484 l 1,6,-1
 214 484 l 1,7,-1
 214 0 l 1,4,-1
492 484 m 1,8,-1
 492 -73 l 2,9,10
 492 -159 492 -159 440.5 -189.5 c 128,-1,11
 389 -220 389 -220 291 -220 c 0,12,13
 278 -220 278 -220 244 -218 c 1,14,-1
 244 -123 l 1,15,16
 250 -124 250 -124 262 -124 c 0,17,18
 316 -124 316 -124 331 -110 c 128,-1,19
 346 -96 346 -96 346 -40 c 2,20,-1
 346 484 l 1,21,-1
 492 484 l 1,8,-1
492 541 m 1,22,-1
 346 541 l 1,23,-1
 346 659 l 1,24,-1
 492 659 l 1,25,-1
 492 541 l 1,22,-1
EndSplineSet
Substitution2: "<3,3> Small Caps in Latin lookup 11 subtable" ij.smcp
EndChar

StartChar: Jcircumflex
Encoding: 308 308 245
Width: 445
Flags: W
LayerCount: 2
Fore
SplineSet
377 649 m 1,0,-1
 377 177 l 2,1,2
 377 72 377 72 320 31 c 128,-1,3
 263 -10 263 -10 154 -10 c 0,4,5
 89 -10 89 -10 19 0 c 1,6,-1
 19 114 l 1,7,8
 93 101 93 101 142 101 c 0,9,10
 221 101 221 101 221 172 c 2,11,-1
 221 649 l 1,12,-1
 377 649 l 1,0,-1
449 718 m 1,13,-1
 351 718 l 1,14,-1
 298 805 l 1,15,-1
 246 718 l 1,16,-1
 148 718 l 1,17,-1
 204 845 l 1,18,-1
 391 845 l 1,19,-1
 449 718 l 1,13,-1
EndSplineSet
EndChar

StartChar: jcircumflex
Encoding: 309 309 246
Width: 274
Flags: W
LayerCount: 2
Fore
SplineSet
210 484 m 1,0,-1
 210 -73 l 2,1,2
 210 -159 210 -159 158.5 -189.5 c 128,-1,3
 107 -220 107 -220 9 -220 c 0,4,5
 -4 -220 -4 -220 -38 -218 c 1,6,-1
 -38 -123 l 1,7,8
 -32 -124 -32 -124 -20 -124 c 0,9,10
 34 -124 34 -124 49 -110 c 128,-1,11
 64 -96 64 -96 64 -40 c 2,12,-1
 64 484 l 1,13,-1
 210 484 l 1,0,-1
288 553 m 1,14,-1
 190 553 l 1,15,-1
 137 640 l 1,16,-1
 85 553 l 1,17,-1
 -13 553 l 1,18,-1
 43 680 l 1,19,-1
 230 680 l 1,20,-1
 288 553 l 1,14,-1
EndSplineSet
Substitution2: "<3,3> Small Caps in Latin lookup 11 subtable" jcircumflex.smcp
EndChar

StartChar: Kcommaaccent
Encoding: 310 310 247
Width: 682
Flags: W
LayerCount: 2
Fore
SplineSet
683 0 m 1,0,-1
 493 0 l 1,1,-1
 230 344 l 1,2,-1
 473 649 l 1,3,-1
 656 649 l 1,4,-1
 410 347 l 1,5,-1
 683 0 l 1,0,-1
226 0 m 1,6,-1
 70 0 l 1,7,-1
 70 649 l 1,8,-1
 226 649 l 1,9,-1
 226 0 l 1,6,-1
430 -46 m 1,10,-1
 347 -208 l 1,11,-1
 251 -208 l 1,12,-1
 297 -46 l 1,13,-1
 430 -46 l 1,10,-1
EndSplineSet
EndChar

StartChar: kcommaaccent
Encoding: 311 311 248
Width: 540
Flags: W
LayerCount: 2
Fore
SplineSet
556 0 m 1,0,-1
 391 0 l 1,1,-1
 216 272 l 1,2,-1
 375 484 l 1,3,-1
 542 484 l 1,4,-1
 374 273 l 1,5,-1
 556 0 l 1,0,-1
210 0 m 1,6,-1
 64 0 l 1,7,-1
 64 700 l 1,8,-1
 210 700 l 1,9,-1
 210 0 l 1,6,-1
359 -46 m 1,10,-1
 276 -208 l 1,11,-1
 180 -208 l 1,12,-1
 226 -46 l 1,13,-1
 359 -46 l 1,10,-1
EndSplineSet
Substitution2: "<3,3> Small Caps in Latin lookup 11 subtable" kcommaaccent.smcp
EndChar

